<svg xmlns="http://www.w3.org/2000/svg" width="441.119" height="566.773" viewBox="0 0 441.119 566.773">
  <g id="Calque_2" data-name="Calque 2" transform="translate(-0.003 -0.124)">
    <g id="Layer_1" data-name="Layer 1" transform="translate(0.003 0.124)">
      <path id="Tracé_473" data-name="Tracé 473" d="M338.685,330.367c-90.469-63.887-199.491-65.111-243.547-2.737C84.116,343.244,78.2,361.36,76.959,380.742c-28.464-9.1-56.082-4.325-69.364,14.484-18.148,25.691-2.642,67.856,34.608,94.169,27.721,19.579,59.678,24.872,81.7,15.717a281.236,281.236,0,0,0,55.236,51.135c90.469,63.882,199.491,65.106,243.547,2.732S429.136,394.249,338.685,330.367Z" transform="translate(-0.003 -154.93)" fill="#9dc5f2"/>
      <path id="Tracé_474" data-name="Tracé 474" d="M616.806,1231.088c-.027,4.618-51.671,8.1-115.355,7.728s-115.288-4.388-115.26-9,51.671-8.1,115.35-7.728S616.828,1226.466,616.806,1231.088Z" transform="translate(-212.369 -672.071)" fill="#666" opacity="0.08"/>
      <path id="Tracé_475" data-name="Tracé 475" d="M587.251,92.245s-4.821-3.533-7.512-3.151-1.35,4.28-1.35,4.28a3.02,3.02,0,0,0-2.179,2.277c-.378,1.863.833,1.8-.409,3.034s-2.07.72-2.07,1.922,10.766,4.807,14.727,8.763c.45.45,4.654,13.476,4.951,14.534,2.872-1.3,6.6-6.9,9.452-8.255C597.459,105.636,587.251,92.245,587.251,92.245Z" transform="translate(-315.498 -49.033)" fill="#fd5e5a"/>
      <path id="Tracé_476" data-name="Tracé 476" d="M613.449,118.48l-7,7.08,3.5,15.249L622.6,132.3Z" transform="translate(-333.491 -65.208)" fill="#fff"/>
      <path id="Tracé_477" data-name="Tracé 477" d="M583.747,71.2l-2.957,29.18L587,102.018,595.562,76.1Z" transform="translate(-319.38 -39.209)" fill="#0b1742"/>
      <path id="Tracé_478" data-name="Tracé 478" d="M594.767,80.027l-6.9-3.547-3.281,25.493,3.538-23.932Z" transform="translate(-321.47 -42.112)" fill="#283049"/>
      <path id="Tracé_479" data-name="Tracé 479" d="M673.96,1171.009l5.923,29.009,40.315-26.439-29.382,6-5.334-12.855Z" transform="translate(-370.615 -641.64)" fill="#333"/>
      <path id="Tracé_480" data-name="Tracé 480" d="M481.49,561.25l15.785,287H493.1L495,863.43H456.663s21.636-9.11,24.305-9.11v-5.694l-6.454-.378L440.32,559.76Z" transform="translate(-242.135 -307.87)" fill="#333"/>
      <path id="Tracé_481" data-name="Tracé 481" d="M496.86,551.39l78.294,285.424L593.1,833.6,542.509,553.276Z" transform="translate(-273.227 -303.268)" fill="#333"/>
      <path id="Tracé_482" data-name="Tracé 482" d="M408.871,494.257l1.773,2.25c-1.638-.229-3.565-.315-3.9.45-.405.932,3.632,1.953,6.247,2.507l.846,1.071-2.539.351s-5.149-1.188-5.149.549,12.369,1.265,12.369,1.265l.95-19.8-9.452-1.247s-1.926-4.051-4.469-9.74c-2.44,2.309-5.19,4.244-7.809,6.355C404.032,487.474,408.871,494.257,408.871,494.257Z" transform="translate(-218.72 -259.561)" fill="#fd5e5a"/>
      <path id="Tracé_483" data-name="Tracé 483" d="M392.99,476.515l7.314,7.332,8.214-6.657-4.951-11.59Z" transform="translate(-216.108 -256.091)" fill="#fff"/>
      <path id="Tracé_484" data-name="Tracé 484" d="M400.738,237.741c8.633-8.894,5.055-32.749,5.055-32.749s-4.2-3.128-19.3,2.8-49.06,65.714-53.53,70.3c-2.975,3.061,12.6,38.992,25.52,57.882,2.656-2.133,16.6-14.43,19.075-16.766-5.532-12.4-20.736-36.678-19.075-41.116C360.918,271.579,392.074,246.639,400.738,237.741Z" transform="translate(-182.894 -112.328)" fill="#666"/>
      <path id="Tracé_485" data-name="Tracé 485" d="M576.45,25.889c.279-6.751,10.838-10.6,15.753-1.8l-1.553,1.2C586.483,18.449,578.5,20.2,576.45,25.889Z" transform="translate(-316.994 -10.488)" fill="#5c2c55"/>
      <path id="Tracé_486" data-name="Tracé 486" d="M512.11,151.658l6.832-36.008,14.826,8.741s4.74,20.439,7.89,26.583C547.123,161.632,544.917,193.841,512.11,151.658Z" transform="translate(-281.613 -63.652)" fill="#fc7575"/>
      <path id="Tracé_487" data-name="Tracé 487" d="M545.1,142.466c-6.936-.482-20.7-10.483-21.051-19.1l1.458-7.674,14.826,8.741S542.639,134.369,545.1,142.466Z" transform="translate(-288.179 -63.674)" fill="#fd5e5a"/>
      <path id="Tracé_488" data-name="Tracé 488" d="M534.565,26.078S547,31.479,547,42.16s4.951,37.25,0,42.34-21.708,2.2-29.189-10.883-6.243-40.189-3.893-42.588S529.943,21.325,534.565,26.078Z" transform="translate(-281.613 -13.531)" fill="#fc7575"/>
      <path id="Tracé_489" data-name="Tracé 489" d="M513.315,16.614v1.008s3.029,13.129,14.669,15.263,13.075-4.1,13.075-4.1,12.117,5.253,13.053-7.2S544.7,6.315,544.7,6.315s3.506,8.552-.954,7.548-.369-8.205-5.127-9.844a11.881,11.881,0,0,0-9.141.986s-7.418-.657-12.679-3.6-15.753-.5-16.874,4.1a61.218,61.218,0,0,0-1.458,7.715c.09-.9-3.2.23-3.349.315-10.33,5.811-2.7,22.329,2.39,33.208a98.7,98.7,0,0,0,4.924,9.4,18.006,18.006,0,0,0,2.9,3.6s-5.428-14.853-3.6-19.93,4.051.329,5.023-4.924-3.029-5.905-3.029-10.172S513.315,16.614,513.315,16.614Z" transform="translate(-269.45 -0.124)"/>
      <path id="Tracé_490" data-name="Tracé 490" d="M563.062,81.165s4.46-7.877,7.161-5.086-2.156,18.625-4.866,17.068S563.062,81.165,563.062,81.165Z" transform="translate(-309.62 -41.563)" fill="#fc7575"/>
      <path id="Tracé_491" data-name="Tracé 491" d="M576.46,94.312a16.691,16.691,0,0,1,1.877,6.414,35.026,35.026,0,0,1-3.74.45c1-.356,2.007-.7,3.02-.986-.374-1.926-3.637-10.042-4.807-10.91C574.192,89.874,575.821,92.926,576.46,94.312Z" transform="translate(-314.992 -49.151)"/>
      <path id="Tracé_492" data-name="Tracé 492" d="M553.31,87.118c0,1.454.806,2.633,1.8,2.633s1.8-1.179,1.8-2.633-.806-2.638-1.8-2.638S553.31,85.659,553.31,87.118Z" transform="translate(-304.269 -46.512)" fill="#330"/>
      <path id="Tracé_493" data-name="Tracé 493" d="M581.9,87.118c0,1.454.806,2.633,1.8,2.633s1.8-1.179,1.8-2.633-.806-2.638-1.8-2.638S581.9,85.659,581.9,87.118Z" transform="translate(-319.991 -46.512)" fill="#330"/>
      <path id="Tracé_494" data-name="Tracé 494" d="M548.955,72.8s-4.69-.9-7.094,1.553-1.512,4.051-.878,4.051.81-4.285,3.191-4.051C550.805,75.053,550.9,72.992,548.955,72.8Z" transform="translate(-297.106 -40.002)"/>
      <path id="Tracé_495" data-name="Tracé 495" d="M617.556,227.515c-8.381-4.177-16.757,18.845-7.2,39.982l34.1,13.552L656.642,260.4S650.462,243.9,617.556,227.515Z" transform="translate(-333.3 -124.895)" fill="#666"/>
      <path id="Tracé_496" data-name="Tracé 496" d="M453.634,202.68,449.66,348.115l62.221,2.6,19.57-142.289-24.066-16.55-18.305,2.6-12.486-3.295Z" transform="translate(-247.271 -105.187)" fill="#fff"/>
      <path id="Tracé_497" data-name="Tracé 497" d="M524.2,203.739l2.133,8.093h5.473l3.524-8.093-5.262-5.239Z" transform="translate(-288.261 -109.212)" fill="#333"/>
      <path id="Tracé_498" data-name="Tracé 498" d="M506.521,202.324l5.869-9.114-13.039-4.33-7.3,4.969Z" transform="translate(-270.582 -103.922)" fill="#fff" stroke="#333" stroke-miterlimit="10" stroke-width="1"/>
      <path id="Tracé_499" data-name="Tracé 499" d="M542.331,203.589l-5.091-9.114,18.305-3.295,6.882,4.627Z" transform="translate(-295.432 -105.187)" fill="#fff" stroke="#333" stroke-miterlimit="10" stroke-width="1"/>
      <path id="Tracé_500" data-name="Tracé 500" d="M521.082,228.12h5.473l3.524,83.52-8.151,12.076L514.65,310.5Z" transform="translate(-283.01 -125.5)" fill="#333"/>
      <path id="Tracé_501" data-name="Tracé 501" d="M462.267,199.92l15.672,78.969,31.6-75.58,15.519,9.3-16.068,127.35,7.292,27.343-78.389-3.934,3.34-35.26,3.164-122.656Z" transform="translate(-240.799 -109.993)" fill="#666"/>
      <path id="Tracé_502" data-name="Tracé 502" d="M478.225,199.92,493.9,278.889l-20.3-39.487.995-4-4.636-7.26-3.043-26.47Z" transform="translate(-256.757 -109.993)" fill="#333"/>
      <path id="Tracé_503" data-name="Tracé 503" d="M557.382,204.24,526.87,281.265l29.09-41.323v-4.559l6.211-4.253,5.793-23.878Z" transform="translate(-289.73 -112.368)" fill="#333"/>
      <path id="Tracé_504" data-name="Tracé 504" d="M510.07,461.487l7.562-86.117-5.5,84.483,43.839,3.934Z" transform="translate(-280.491 -206.473)" fill="#333"/>
      <path id="Tracé_505" data-name="Tracé 505" d="M615.582,125.69l-16.131,14.9s16.96,75.976,37.457,83.623,18.918-17.819,10.951-40.27S615.582,125.69,615.582,125.69Z" transform="translate(-329.642 -69.173)" fill="#666"/>
      <path id="Tracé_506" data-name="Tracé 506" d="M517.875,80.864s-4.5-5.9-6.545-2.876,0,14.4,3.272,13.5S517.875,80.864,517.875,80.864Z" transform="translate(-280.734 -42.468)" fill="#fc7575"/>
      <path id="Tracé_507" data-name="Tracé 507" d="M519.1,86.034s-.549-3.524-2.4-3.524-2.3,9-.5,9S519.1,86.034,519.1,86.034Z" transform="translate(-283.232 -45.428)" fill="#fd5e5a"/>
      <path id="Tracé_508" data-name="Tracé 508" d="M563,129.51s8.291,2.012,10.289,1.454l-.572,3.718S565.475,133.111,563,129.51Z" transform="translate(-309.598 -71.274)" fill="#fff"/>
      <path id="Tracé_509" data-name="Tracé 509" d="M718.365,312.708a.671.671,0,0,1-.153-1.328,18.528,18.528,0,0,0,11.95-9c11.176-18.778.572-58.778.45-59.179a.676.676,0,1,1,1.305-.351c.45,1.661,10.856,40.959-.608,60.223a19.857,19.857,0,0,1-12.8,9.6A.624.624,0,0,1,718.365,312.708Z" transform="translate(-394.653 -133.324)"/>
      <path id="Tracé_510" data-name="Tracé 510" d="M695.852,903.472a.675.675,0,0,1-.63-.45L660.767,811.2a.676.676,0,0,1,1.265-.477l34.455,91.82a.675.675,0,0,1-.4.869.626.626,0,0,1-.239.058Z" transform="translate(-363.336 -445.637)"/>
    </g>
  </g>
</svg>
