<svg id="Calque_2" data-name="Calque 2" xmlns="http://www.w3.org/2000/svg" width="330.229" height="375.555" viewBox="0 0 330.229 375.555">
  <g id="Layer_1" data-name="Layer 1" transform="translate(0 0)">
    <path id="Tracé_25" data-name="Tracé 25" d="M252.548,335.186c-66-46.614-146.814-45.737-180.494,1.935a80.947,80.947,0,0,0-14.348,40.293c-20.949-6.391-41.512-2.339-51.654,12.03-13.875,19.645-3.081,51.145,24.109,70.34C50.392,474.071,74,477.532,90.469,470.276a195.89,195.89,0,0,0,40.118,37.6c66,46.617,146.814,45.751,180.492-1.932S318.553,381.805,252.548,335.186Z" transform="translate(-0.001 -212.855)" fill="#9dc5f2"/>
    <path id="Tracé_26" data-name="Tracé 26" d="M364.18,1238.085c-.023,4.458-68.346,7.694-152.6,7.227S59.042,1240.85,59.06,1236.4s68.349-7.694,152.6-7.227S364.206,1233.627,364.18,1238.085Z" transform="translate(-41.795 -869.801)" fill="#666" opacity="0.08"/>
    <path id="Tracé_27" data-name="Tracé 27" d="M483,622.642c.1-.07,9.694-7,9.016-8.966s-3.333.088-4.894,1.354-3.625.713-3.347-.1c.342-1.006,3.262-.95,5.707-3.216a73.227,73.227,0,0,1,7.42-6.069c.076-.044,1.833-1.491,4.517-4.072,1.307,2.017,2.786,3.932,4.256,5.847q-.818.564-1.666,1.128a88.678,88.678,0,0,1-5.663,12.922,24.027,24.027,0,0,1-5.3,6.449.339.339,0,0,1-.488-.453c1.348-2.119,4.812-5.686,3.868-7.308-.661-.02-1.491.953-4.21,4.563a29.374,29.374,0,0,1-3.426,4.148c-2.146.406.751-3.245,2.134-4.827,1.421-1.625,3.093-3.2,2.546-4.148-.181-.31-2.359,1.462-4.756,4.017-8.7,9.3-7.329,4.546-2.763.292,4.166-3.873,6.1-5.555,5.847-5.99-.558-.111-1.555.664-4.607,3.216-1.754,1.462-4.929,3.529-5.555,3.537C480.516,624.75,482.051,623.306,483,622.642Z" transform="translate(-340.558 -425.706)" fill="#fd5e5a"/>
    <path id="Tracé_28" data-name="Tracé 28" d="M538.632,591.23l-5.212,5.359,7.016,7.6,6.87-4.873Z" transform="translate(-377.48 -418.388)" fill="#fff"/>
    <path id="Tracé_29" data-name="Tracé 29" d="M568.191,355.253C583.1,329.311,582.96,299.927,592.9,295.63c0,.418,4.157,25.229,4.213,28.848-2.029,10.387-4.324,44.012-44.412,71.656-1.7-2.216-7.788-12.164-9.3-14.491C549.5,375.784,560.344,368.914,568.191,355.253Z" transform="translate(-384.542 -209.204)" fill="#666"/>
    <path id="Tracé_30" data-name="Tracé 30" d="M1072.34,636.507c-.09-.064-9.112-6.37-8.51-8.212s3.1.035,4.569,1.19,3.382.611,3.114-.14c-.333-.933-3.049-.839-5.353-2.923a65.234,65.234,0,0,0-6.987-5.537c-.07-.041-1.725-1.362-4.256-3.724-1.19,1.891-2.538,3.7-3.877,5.5q.772.517,1.564,1.026a82.69,82.69,0,0,0,5.449,11.939,22.378,22.378,0,0,0,5.016,5.92.313.313,0,0,0,.45-.424c-1.283-1.956-4.558-5.221-3.7-6.753.614-.029,1.4.877,3.979,4.183a26.218,26.218,0,0,0,3.245,3.8c2,.348-.745-3.005-2.046-4.458s-2.924-2.923-2.427-3.821c.164-.292,2.216,1.324,4.479,3.669,8.226,8.525,6.882,4.125,2.573.237-3.929-3.543-5.753-5.09-5.528-5.49.517-.111,1.462.585,4.33,2.923,1.652,1.342,4.634,3.216,5.221,3.216C1074.684,638.434,1073.246,637.109,1072.34,636.507Z" transform="translate(-743.778 -436.738)" fill="#fc7575"/>
    <path id="Tracé_31" data-name="Tracé 31" d="M1036.5,598.89l5.943,5.847-5.455,8.478-7.408-4.578Z" transform="translate(-728.592 -423.809)" fill="#fff"/>
    <path id="Tracé_32" data-name="Tracé 32" d="M671.284,1230.6c-10.606,0-10.346,4.268-10.346,4.268h31.041s-1.547-13.117-1.777-16.222h-7.291C682.1,1222.445,679.429,1230.6,671.284,1230.6Z" transform="translate(-467.719 -862.388)" fill="#260101"/>
    <path id="Tracé_33" data-name="Tracé 33" d="M823.732,1232.171c-9.647,0-11.629-11.463-11.907-13.521h-6.972v1c0,1.421-1.812,16.789-1.812,16.789h31.041S834.338,1232.171,823.732,1232.171Z" transform="translate(-568.279 -862.388)" fill="#260101"/>
    <path id="Tracé_34" data-name="Tracé 34" d="M734.724,725.255l7.838-82.04-2.8-24.285H687.286l-.389,21.4-5.727,83.358s14.652,71.545,14.409,72.714h9.957c-.018-.251-2.991-78.248-2.991-78.248l11.77-67.578,4.6,70.919s-2.125,65.078-2.157,73.9l9.574.143C726.31,795.332,734.724,725.255,734.724,725.255Z" transform="translate(-482.036 -437.991)" fill="#333"/>
    <path id="Tracé_35" data-name="Tracé 35" d="M770.172,206.077s-.175,14.032-1.547,21.192a5.911,5.911,0,0,0,3.163,6.616,12.061,12.061,0,0,0,7.048.646c7.63-1.421,7.893-9.817,7.893-9.817l-2.584-25.6Z" transform="translate(-543.842 -140.901)" fill="#fc7575"/>
    <path id="Tracé_36" data-name="Tracé 36" d="M787.148,199.11l-13.974,6.966s-.064,5.183-.424,10.855c3.649.175,8.232-1.848,13.1-7.958q1.085-1.362,2.026-2.7Z" transform="translate(-546.844 -140.901)" fill="#fd5e5a"/>
    <path id="Tracé_37" data-name="Tracé 37" d="M751.308,98.552a24.533,24.533,0,0,0-6.855,10.67c-2.07,6.689-3.882,11.524-3.882,11.524l2.2,1.424s-1.754,9.334-.386,12.521c2.07,4.835,10.8,8.75,20.695-2.134s10.735-20.487,9.063-25.182S755.187,96.135,751.308,98.552Z" transform="translate(-524.071 -69.373)" fill="#fc7575"/>
    <path id="Tracé_38" data-name="Tracé 38" d="M763.788,70.541a12.059,12.059,0,0,0-10.735-2.289c-6.338,1.707-8.478-.924-7.241-2.277,0,0-5.554.143-7.633-4.835s-1.552-20.06,8.279-17.216S754.3,53.6,754.3,53.6s3.151-3.271,6.125-1.564,2.587,4.125,2.587,4.125,2.716,5.554,6.467,6.262,3.362,8.963,3.362,8.963,2.2,1.707.649,7.683-10.685,15.222-10.685,18.067c0,0-2.251-3.7-.439-9.53s1.81-9.25-.129-9.25S763.788,70.541,763.788,70.541Z" transform="translate(-521.68 -30.831)"/>
    <path id="Tracé_39" data-name="Tracé 39" d="M817.875,163.908S818.5,159,819.921,159s2.716.535,2.377,3.309-1.795,5.867-3.64,4.587A2.175,2.175,0,0,1,817.875,163.908Z" transform="translate(-578.561 -112.517)" fill="#fc7575"/>
    <path id="Tracé_40" data-name="Tracé 40" d="M863.75,132.077a1.676,1.676,0,0,0-.8-.979c-1.225-.57-2.859.661-3.935,1.517l-.184-.24A8.414,8.414,0,0,1,861.4,130.2a2.552,2.552,0,0,1,3.6,1.409Z" transform="translate(-607.759 -91.932)"/>
    <path id="Tracé_41" data-name="Tracé 41" d="M860.659,144.321a5.525,5.525,0,0,0-.041-2.122c-.783-3.432-4.584-3.14-4.768-3.242v-.213c.108.041,5.5-1.111,6.268,4.435a6.267,6.267,0,0,1,.061,1.462Z" transform="translate(-605.65 -98.131)"/>
    <path id="Tracé_42" data-name="Tracé 42" d="M768.178,145.607c0,1.207-.485,2.187-1.085,2.187S766,146.805,766,145.607s.482-2.187,1.082-2.187S768.178,144.4,768.178,145.607Z" transform="translate(-542.067 -101.492)" fill="#330"/>
    <path id="Tracé_43" data-name="Tracé 43" d="M772.653,135.406a7.464,7.464,0,0,0-2.923-3.9l.485-.7a7.94,7.94,0,0,1,3.216,4.338Z" transform="translate(-544.706 -92.568)"/>
    <path id="Tracé_44" data-name="Tracé 44" d="M820.457,165.491s.819-1.663,1.552-1.427.9,3.578-.4,4.987S819.206,168.157,820.457,165.491Z" transform="translate(-580.214 -116.084)" fill="#fd5e5a"/>
    <path id="Tracé_45" data-name="Tracé 45" d="M759.988,202c0,1.611-.786,2.923-1.754,2.923s-1.754-1.3-1.754-2.923.786-2.923,1.754-2.923S759.988,200.393,759.988,202Z" transform="translate(-535.33 -140.88)"/>
    <path id="Tracé_46" data-name="Tracé 46" d="M717.124,281.236l-.754,94.494,40.44.906,10.919-92.643-15.836-10.448-11.854,1.921-8.148-1.985Z" transform="translate(-506.946 -193.53)" fill="#fff"/>
    <path id="Tracé_47" data-name="Tracé 47" d="M784.51,283.746,786,288.973l3.555-.067,2.19-5.3-3.485-3.339Z" transform="translate(-555.166 -198.335)" fill="#333"/>
    <path id="Tracé_48" data-name="Tracé 48" d="M761.681,279.852l3.7-5.993-8.522-2.649-4.677,3.318Z" transform="translate(-532.287 -191.924)" fill="#fff" stroke="#333" stroke-miterlimit="10" stroke-width="1"/>
    <path id="Tracé_49" data-name="Tracé 49" d="M800.75,280.387l-3.42-5.856,11.846-2.371,4.528,2.92Z" transform="translate(-564.238 -192.596)" fill="#fff" stroke="#000" stroke-miterlimit="10" stroke-width="1"/>
    <path id="Tracé_50" data-name="Tracé 50" d="M781.993,309.877l3.555-.067L788.886,364l-5.142,7.946-4.894-8.492Z" transform="translate(-551.16 -219.239)" fill="#333"/>
    <path id="Tracé_51" data-name="Tracé 51" d="M710.952,282.56l11.17,51.084,19.567-49.476,10.2,5.847-4.008,82.9,4.142,18.043-58.1-.374L698.9,366.07l.515-79.689Z" transform="translate(-491.059 -199.955)" fill="#666"/>
    <path id="Tracé_52" data-name="Tracé 52" d="M734.446,282.56l11.17,51.084L731.935,308.26l.593-2.611-3.1-4.654L727.12,283.84Z" transform="translate(-514.553 -199.955)" fill="#333"/>
    <path id="Tracé_53" data-name="Tracé 53" d="M809.234,284.9,790.39,335.3l18.368-27.2-.056-2.958,3.982-2.842,3.461-15.579Z" transform="translate(-559.327 -201.611)" fill="#333"/>
    <path id="Tracé_54" data-name="Tracé 54" d="M777.28,513.318l3.833-56.018L778.6,512.234l28.521,2.005Z" transform="translate(-550.049 -323.612)" fill="#333"/>
    <path id="Tracé_55" data-name="Tracé 55" d="M911.355,367.691c-15.289-25.726-16.59-56.156-26.6-60.3-5.277-3.184-2.128,22.063-2.128,25.682,2.187,10.355,4.327,48.236,44.83,75.26,1.664-2.242,7.75-12.156,9.224-14.506C930.507,388.058,919.406,381.229,911.355,367.691Z" transform="translate(-623.937 -217.331)" fill="#666"/>
    <path id="Tracé_56" data-name="Tracé 56" d="M875.145,24.158c.067-.962-1.462-4.651,3.184-9.726C887.71,4.384,876.908,1.3,871.336,5.15L870,2.1c5.607-3.719,16.935-2.768,17.017,5.037.035,3.309-2.02,5.718-4.616,8.522-4.216,4.514-2.859,7.192-2.988,8.455Zm2.12,3.73a3.051,3.051,0,1,1,0,6.087A3.051,3.051,0,1,1,877.265,27.888Z" transform="translate(-615.663 0.002)" fill="#9dc5f2"/>
    <path id="Tracé_57" data-name="Tracé 57" d="M408.8,1210.265l3.4,11.033,6.484,4.11,1.368-4.292-6.671-12.667c-2.011-.292-2.824.626-4.815.453Z" transform="translate(-289.128 -855.128)" fill="#fc7575"/>
    <path id="Tracé_58" data-name="Tracé 58" d="M307.1,244.556c-1.941-1.956,3.412-2.242,3.412-6.706s-3.759.821-6-1.438,5.555-3.876,1.111-8.346-17.707-5.376-17.707-5.376c-.491-.047-10.741,5.847-9.738,8.016s4.131,3.242,1.643,4.125-5.04.772-3.508,3.382,4.42,3.426,2.488,4.385-2.14,4.52.585,7.268,4.142-1.57,6.358,1.672,2.412,5.5,7.575,4.812a9.1,9.1,0,0,0,6.61-3.8,25.075,25.075,0,0,0,9.94-1.318C313.568,249.763,309.039,246.512,307.1,244.556Z" transform="translate(-195.205 -157.587)"/>
    <path id="Tracé_59" data-name="Tracé 59" d="M358.12,292.25s20.394,17.248,23.352,26.694,8.387,16.14,3.289,19.426-18.684-9.881-18.684-9.881Z" transform="translate(-253.427 -206.813)" fill="#a1b2e2"/>
    <path id="Tracé_60" data-name="Tracé 60" d="M302.2,312.749s-2.692-13.246-6.431-19.075c-2.236-3.491-4.435-6.724-12.995-6.665a59.187,59.187,0,0,0-18.037,3.216l-.74,26.7,5.572,20.908a26.942,26.942,0,0,1-.292,20.873l-2.865,6.578a3.952,3.952,0,0,0,3.8,3.6l24.934,1.219a3.936,3.936,0,0,0,4.221-4.064c-.441-7.636-1.272-21.183.181-32.026C300.271,328.789,301.656,315.228,302.2,312.749Z" transform="translate(-186.822 -203.103)" fill="#c2cef9"/>
    <path id="Tracé_61" data-name="Tracé 61" d="M264,389.33c2.257,7.405,5.7,19.517,6.078,20.829a54.479,54.479,0,0,1,1.754,9.206c0,.035-.181,4.064-.181,4.064-.8,5.285-1.959,7.4-5.218,14.26,2.961-7.472,5.745-16.172,2.853-27.354C267.8,404.7,265.564,396.142,264,389.33Z" transform="translate(-186.822 -275.512)" fill="#6265a8"/>
    <path id="Tracé_62" data-name="Tracé 62" d="M236.632,1206.739l-5.4,12.027,1.462,4.257,6.388-4.257,3.157-11.109s.17-1.2.474-3.341q-3.122-.161-6.241-.2C236.571,1205.8,236.632,1206.739,236.632,1206.739Z" transform="translate(-163.632 -852.105)" fill="#fc7575"/>
    <path id="Tracé_63" data-name="Tracé 63" d="M227.526,1234.25s-5.236,6.522-5.236,8.747.7,3.982,2.558,4.42,6.265-1.532,7.911-7.332c0,0-4.277,2.876-5.952,1.187S227.526,1234.25,227.526,1234.25Z" transform="translate(-157.306 -873.427)"/>
    <path id="Tracé_64" data-name="Tracé 64" d="M298.029,708.1c-.494-21.5-3.148-91.781-3.493-106.88-.307-13.307-9.294-33.169-11.416-37.695a9.163,9.163,0,0,1-.064-.938l-27.556.389a6.927,6.927,0,0,1-.026.769c-1.988,4.5-10.551,24.639-10.551,37.987,0,15.1-1.044,85.425-1.044,106.933,0,17.117-.623,37.794-.249,44.348,2.079.023,5.695-.108,7.776,0,2.271-16.079,11.948-87.507,11.948-93.16,0-6.408,6.376-56.545,6.376-56.545L291.77,751.9c1.991.172,6.762.368,6.762.368S298.506,729.607,298.029,708.1Z" transform="translate(-172.323 -398.121)" fill="#666"/>
    <path id="Tracé_65" data-name="Tracé 65" d="M425.832,1232.17s5.671,6.4,5.721,8.621-.614,4-2.453,4.482-6.3-1.388-8.08-7.148c0,0,4.341,2.774,5.978,1.047S425.832,1232.17,425.832,1232.17Z" transform="translate(-297.939 -871.955)"/>
    <path id="Tracé_66" data-name="Tracé 66" d="M396.724,37.469c.067-.971-1.462-4.677,3.184-9.805,9.381-10.13-1.418-13.234-6.993-9.355l-1.345-3.075c5.61-3.751,16.935-2.792,17.017,5.075.035,3.339-2.017,5.765-4.616,8.592-4.2,4.534-2.85,7.247-2.979,8.522Zm2.119,3.76a3.076,3.076,0,1,1,0,6.139A3.076,3.076,0,1,1,398.843,41.228Z" transform="translate(-277.098 -9.281)" fill="#9dc5f2"/>
    <path id="Tracé_67" data-name="Tracé 67" d="M236.557,182.516s2.862-4.634,5.99-5.467c2.257-.6,6.277-2.289,6.35-1.523s-7.168,4.008-7.168,4.008-2.672,2.973.629.816c1.894-1.237,9.46-3.985,7.6-1.944a12.352,12.352,0,0,1-5.019,2.941s-4.622,2.155-3.453,2.14c2.377-.023,7.566-1.912,7.566-1.912s.833-.377.254.675c-1.07,1.935-7.309,2.812-12.369,10.179a98.234,98.234,0,0,1-13,15.278c-2.535-2.719-4.42-3.871-4.727-7.431C232.012,189.982,233.818,191.52,236.557,182.516Z" transform="translate(-155.126 -124.073)" fill="#ea5c5c"/>
    <path id="Tracé_68" data-name="Tracé 68" d="M141.743,309.235s33.362,16.62,38.165,14.909,5.847-26.156-3.859-27.243-22.016.158-27.717.158S134.01,303.57,141.743,309.235Z" transform="translate(-98.131 -209.789)" fill="#a1b2e2"/>
    <path id="Tracé_69" data-name="Tracé 69" d="M254.947,224.63l-4.277,3.008,5.262,5.452,2.766-4.677Z" transform="translate(-177.389 -158.961)" fill="#c2cef9"/>
    <path id="Tracé_70" data-name="Tracé 70" d="M140.066,264.9s9.551-.348,17.005-5.587c7.206-5.066,19.4-18.09,18.175-20.189s-3.216-4.476-5.8-5.288-29.377,14.059-32.45,22.244C134.366,263.093,140.066,264.9,140.066,264.9Z" transform="translate(-96.455 -165.45)" fill="#c2cef9"/>
    <path id="Tracé_71" data-name="Tracé 71" d="M273.581,167.889a23.793,23.793,0,0,0-1.927-4.774c-1.584-3.2-6.344-5.356-4.97-10.328s5.891-3.929,7.475-7.82,13.766-2.236,16.883.9,3.172,10.758,4.531,15.088-5.1,7.981-8.045,7.981S273.581,167.889,273.581,167.889Z" transform="translate(-188.548 -100.981)"/>
    <path id="Tracé_72" data-name="Tracé 72" d="M295.61,232.7c0,1.5,1.43,19.812,1.43,19.812.62,1.681,4.248,15.62,6.554,15.468s3.841-14.377,4.061-15.134c.453-1.582.2-20.145.2-20.145Z" transform="translate(-209.191 -164.672)" fill="#fc7575"/>
    <path id="Tracé_73" data-name="Tracé 73" d="M299.369,241.125c2.391,1.131,6.195.585,8.551-.743-.018-4.128-.067-7.68-.067-7.683H295.61c0,.567.2,3.543.459,7.016C297.294,240.263,298.712,240.812,299.369,241.125Z" transform="translate(-209.191 -164.672)" fill="#fd5e5a"/>
    <path id="Tracé_74" data-name="Tracé 74" d="M287.33,200.939s-.585-2.16-2.236-1.62-.105,7.5,1.608,6.747S287.33,200.939,287.33,200.939Z" transform="translate(-201.251 -140.988)" fill="#e54e4e"/>
    <path id="Tracé_75" data-name="Tracé 75" d="M342.427,196.9s1.169-2.339,1.982-1.517.269,7.77-1.286,7.341S342.427,196.9,342.427,196.9Z" transform="translate(-242.154 -138.143)" fill="#e54e4e"/>
    <path id="Tracé_76" data-name="Tracé 76" d="M290.738,156.739s-4.268,1.716-4.268,6.139,1.234,5.1.672,8.5,2.228,12.556,6.274,13.48c8.019,1.833,10.633-5.028,10.633-8.878s-.479-7.42.532-11.609S301.075,151.184,290.738,156.739Z" transform="translate(-202.723 -109.671)" fill="#fc7575"/>
    <path id="Tracé_77" data-name="Tracé 77" d="M330.33,150.207c-.76.24-.786,4.531,1.573,6.911s5.847,11.8,5.847,18.078a16.679,16.679,0,0,1-3.163,10.071l1.912.848s3.157-8.311,3.157-13.281S337.217,148.058,330.33,150.207Z" transform="translate(-233.436 -106.18)" fill="#333"/>
    <path id="Tracé_78" data-name="Tracé 78" d="M315.86,216.226s1.634-1.6,2.339-1.275a7.8,7.8,0,0,1,1.8,1.81s-1.462-1.275-2.064-1.275A7.719,7.719,0,0,0,315.86,216.226Z" transform="translate(-223.521 -152.08)"/>
    <path id="Tracé_79" data-name="Tracé 79" d="M287.384,150.57s1.02,5.6-4.078,8.338-11.9,6.624-12.457,10.963,1.927,3.508,1.927,3.508l-.465,2.093s-1.359,1.713-2.833-3.084,2.266-8.566,2.266-8.566,2.38-5.514,3.739-9.893S287.384,150.57,287.384,150.57Z" transform="translate(-190.455 -106.479)" fill="#333"/>
    <path id="Tracé_80" data-name="Tracé 80" d="M292.154,155.64c-6.584,2.184-5.2,5.1-9.89,9.291-3,2.59-3.952,2.269-6.294,5.449,2.228-4.031,4.362-3.631,7.852-7.893C285.918,159.882,286.5,156.783,292.154,155.64Z" transform="translate(-195.293 -110.139)" fill="#ccc"/>
    <path id="Tracé_81" data-name="Tracé 81" d="M301.824,152.56c-2.2.237-6.025.816-7.855,2.09-1.9,1.228-3.309,4.876-3.979,7.016.491-2.356,1.818-5.984,3.8-7.309S299.476,152.578,301.824,152.56Z" transform="translate(-205.214 -107.96)" fill="#ccc"/>
    <path id="Tracé_82" data-name="Tracé 82" d="M319.241,228.778c0,1.169-.6,2.1-1.351,2.1s-1.351-.944-1.351-2.1.605-2.108,1.351-2.108S319.241,227.614,319.241,228.778Z" transform="translate(-224.003 -160.404)"/>
    <path id="Tracé_83" data-name="Tracé 83" d="M329.91,201.607a2.352,2.352,0,0,1,2.73-1.193c1.111.406,1.6,1.3,2.517,1.409-.895.468-1.924-.538-3.04-.842A3.9,3.9,0,0,0,329.91,201.607Z" transform="translate(-233.464 -141.738)"/>
    <path id="Tracé_84" data-name="Tracé 84" d="M331.28,188.616a10.067,10.067,0,0,1,2.046-1.5c.655-.225,1.26-.2,1.365.126s-.561.553-1.169.553A8.817,8.817,0,0,0,331.28,188.616Z" transform="translate(-234.433 -132.308)"/>
    <path id="Tracé_85" data-name="Tracé 85" d="M300.29,201.41a2.351,2.351,0,0,0-2.713-1.234c-1.117.389-1.617,1.269-2.538,1.371.877.482,1.932-.509,3.052-.8A3.871,3.871,0,0,1,300.29,201.41Z" transform="translate(-208.788 -141.576)"/>
    <path id="Tracé_86" data-name="Tracé 86" d="M303.621,188.369a10.242,10.242,0,0,0-2.014-1.532c-.64-.234-1.254-.216-1.368.105s.555.561,1.169.57A8.546,8.546,0,0,1,303.621,188.369Z" transform="translate(-212.458 -132.104)"/>
    <path id="Tracé_87" data-name="Tracé 87" d="M327.081,304.243s-3.78-4.245-6.914-5.058c-2.263-.585-6.294-2.242-6.361-1.462s7.2,3.949,7.2,3.949,2.7,2.953-.62.821c-1.906-1.222-9.492-3.909-7.618-1.883a12.287,12.287,0,0,0,5.043,2.894s4.639,2.117,3.47,2.114c-2.377,0-7.58-1.854-7.58-1.854s-.839-.371-.248.678c1.082,1.927,10.191,4.765,15.319,12.091,3.336,4.768,4.429,11.372,9.185,15.687,2.514-2.739,5.4-5.177,5.674-8.741C332.232,312.709,331.449,310.394,327.081,304.243Z" transform="translate(-221.123 -210.541)" fill="#ea5c5c"/>
    <path id="Tracé_88" data-name="Tracé 88" d="M367.96,353.1l1.973,4.642,5.838-6.133L372.3,347.9Z" transform="translate(-260.39 -246.194)" fill="#dce5ff"/>
    <path id="Tracé_89" data-name="Tracé 89" d="M394.248,370.515s-10.691-11.621-13.9-10.211-5.92,4.142-5.92,6.63,2.923,11.694,9.6,16.827,12.15,3.771,13.755,2.155S399.346,376.5,394.248,370.515Z" transform="translate(-264.969 -254.887)" fill="#dce5ff"/>
    <path id="Tracé_90" data-name="Tracé 90" d="M343.362,644.44,333.2,661.232l22.04,148.585Z" transform="translate(-235.792 -456.043)" fill="#333"/>
    <path id="Tracé_91" data-name="Tracé 91" d="M521.8,666.669a.442.442,0,1,1-.105-.877,47.849,47.849,0,0,0,11.834-5.207,56.646,56.646,0,0,0,20.721-21.3.439.439,0,1,1,.766.424,57.532,57.532,0,0,1-21.049,21.66,49.8,49.8,0,0,1-12.044,5.286A.438.438,0,0,1,521.8,666.669Z" transform="translate(-368.909 -452.218)" fill="#35385f"/>
    <path id="Tracé_92" data-name="Tracé 92" d="M1010.483,674.839h-.061c-18.081-2.453-35.862-23.326-36.04-23.536a.439.439,0,0,1,.053-.617.433.433,0,0,1,.617.053c.175.208,17.742,20.826,35.49,23.232a.44.44,0,0,1-.058.877Z" transform="translate(-689.457 -460.388)" fill="#35385f"/>
    <path id="Tracé_93" data-name="Tracé 93" d="M117.919,329.983a.488.488,0,0,1-.143-.023c-13.006-4.578-13.155-20.312-13.155-20.981a.439.439,0,0,1,.877,0c0,.643.143,15.786,12.571,20.154a.438.438,0,0,1-.146.851Z" transform="translate(-74.036 -218.34)"/>
  </g>
</svg>
