<svg id="Calque_2" data-name="Calque 2" xmlns="http://www.w3.org/2000/svg" width="414.294" height="372.6" viewBox="0 0 414.294 372.6">
  <g id="Layer_1" data-name="Layer 1">
    <path id="Tracé_94" data-name="Tracé 94" d="M320.5,311.863c88.27,7.562,164.044-35.669,169.237-96.537,1.3-15.238-1.937-30.135-8.912-44.027,23.329-5.214,40.469-19.671,42.039-38.021,2.16-25.076-25.591-47.923-61.933-51.034-27.053-2.312-51.257,6.95-62.758,22.17a224.422,224.422,0,0,0-58.812-12.963c-88.266-7.562-164.044,35.673-169.237,96.541S232.23,304.312,320.5,311.863Z" transform="translate(-108.683 -52.405)" fill="#9dc5f2"/>
    <path id="Tracé_95" data-name="Tracé 95" d="M375.817,990.277c-.029,5.491-84.186,9.477-187.961,8.9S-.029,993.684,0,988.193s84.186-9.477,187.961-8.9S375.846,984.786,375.817,990.277Z" transform="translate(0 -626.634)" fill="#666" opacity="0.08"/>
    <path id="Tracé_96" data-name="Tracé 96" d="M801.175,164.306s11.476-.36,17.511,5.686-4.562,8.217-1.509,11.27,8.166-4.083,8.166,1.944-7.284,6.409-4.641,9.045,8.8,7.032,3.745,9-17.057,3.414-21.662-1.2-19.5.065-15.26-4.177,11.483-6.417,5.452-9.859-5.912-3.421-1.336-9.722S794.273,163.647,801.175,164.306Z" transform="translate(-503.473 -105.113)"/>
    <path id="Tracé_97" data-name="Tracé 97" d="M538.068,614.141s8.512,24.608,21.453,29,30.607,7.4,32.465,5.549,5.16-24.784-7.349-34.294-47.617-4.321-47.617-4.321Z" transform="translate(-343.651 -389.499)" fill="#521b3b"/>
    <rect id="Rectangle_5" data-name="Rectangle 5" width="5.779" height="90.376" transform="matrix(1, 0.006, -0.006, 1, 293.15, 241.859)"/>
    <path id="Tracé_98" data-name="Tracé 98" d="M690.3,942.786l42.824-22.145-.126,22.382,3.057.015.122-22.109,44.149,22.357,4.7.025-48.132-24.377-1,.673-2.773-.014v.187l-1.3-.861-46.1,23.841Z" transform="translate(-438.807 -588.037)"/>
    <path id="Tracé_99" data-name="Tracé 99" d="M817.8,909.142l-9.747-.054.029-5.1a4.648,4.648,0,0,1,4.681-4.623h.443a4.652,4.652,0,0,1,4.627,4.681Z" transform="translate(-517.089 -575.526)"/>
    <path id="Tracé_100" data-name="Tracé 100" d="M657.637,629.38s-2.355,5.912-.544,9.553,27.031,16.016,27.031,16.016l8.6-10.849Z" transform="translate(-420.05 -402.754)" fill="#1b2b80"/>
    <path id="Tracé_101" data-name="Tracé 101" d="M776.848,330.422c2.294-12.981,6.481-72.588-11.883-68.869s-30.517,5.815-40.091,9.207-4.029,87.348-15.174,98.377-63.374,17.424-48.722,32.22c0,0,24,13.9,28.2,13.917s55.092-6.575,60.81-6.543S774.007,346.485,776.848,330.422Z" transform="translate(-421.329 -167.267)" fill="#666"/>
    <path id="Tracé_102" data-name="Tracé 102" d="M817.01,265.62s-10.082,134.867-31.158,139.386c-14.2,3.043-53.14,8.757-55.092,14.864s11.476-1.847,21.8-1.8,31.4-2.189,43.609-6.64C824.579,401.092,838.133,280.52,817.01,265.62Z" transform="translate(-467.508 -169.976)"/>
    <path id="Tracé_103" data-name="Tracé 103" d="M691.845,515.937c-.036-7.112.2-43.008,8.462-51.182,8.174-8.084,44.189-14.7,48.25-15.426l1.242,6.964c-14.576,2.6-39.555,8.563-44.538,13.488-4.53,4.483-6.445,29.667-6.359,46.119Z" transform="translate(-442.725 -287.536)"/>
    <path id="Tracé_104" data-name="Tracé 104" d="M584.338,570l-45.474,12a8.923,8.923,0,0,0-6.658,9c.392,9.585,1.71,26.761,6.121,39.141,6.4,17.9,19.2,54.559,19.149,64.324s-3.669,25.591-3.669,25.591l15.408.1s-1.08-9.848-1.033-16.981-.659-16.153-.63-21.785c.029-5.12-9.682-62.391-8.095-84.7.158-2.243,33.793-8.93,33.793-8.93Z" transform="translate(-340.565 -364.755)" fill="#fd5e5a"/>
    <path id="Tracé_105" data-name="Tracé 105" d="M667.772,546.58l-50.9,34.568c-5.693,4.5-5.729,14.4-3.194,21.209,3.932,10.55,11.595,29.343,17.464,38.582,9.614,15.123,22.22,39.18,22.22,39.18s4.771,16.718,1.17,20.272a52.6,52.6,0,0,1-8.1,6.337s15.069.158,17.716-2.456,1.3-13.683,1.325-17.446a13.841,13.841,0,0,0-1.57-6.481s-1.318-6.064-3.583-13.913c-3.266-11.378-4.49-29.08-8.858-39.8-7.385-18.115-11.45-17.669-11.45-17.669l49.367-30.434Z" transform="translate(-391.675 -349.768)" fill="#fc7575"/>
    <path id="Tracé_106" data-name="Tracé 106" d="M656.081,500.773a60.514,60.514,0,0,1-5.059-9.513c-11.422,4.526-23.765,7.922-34.524,2.395.054,3.921-.5,6.816-2.013,8.332-10.943,10.936-72.8,22.48-77.485,32.972,0,0,25.342-3.345,38.229,9.682a68.858,68.858,0,0,1,16.737,28.922s53.173-28.086,66.654-32.965C666.318,537.814,667.726,519.612,656.081,500.773Z" transform="translate(-343.638 -314.368)" fill="#333"/>
    <path id="Tracé_107" data-name="Tracé 107" d="M592.24,970.908s4.8,6.7,8.141,6.723S607.637,971,607.637,971l-.753-8.937s-2.672,8.916-6.464,8.9S594.015,962,594.015,962Z" transform="translate(-378.987 -615.605)"/>
    <path id="Tracé_108" data-name="Tracé 108" d="M731.927,938.54h1.357L730.112,924.6c.025-1.466-5.131-6.517-5.131-6.517L723.4,937.974l-7.792.148-8.1,6.337s13.877.36,17.169-.889,3.6-8.152,2.769-11.371a6.326,6.326,0,0,1,.36-3.961Z" transform="translate(-452.751 -587.499)"/>
    <path id="Tracé_109" data-name="Tracé 109" d="M779.338,329.357c1.21-.67,2.3-3.633,2.247-4.537-1.214-19.743,7.371-45.73,5.977-57.281-2.881-24.006,2.286-27.586-6.575-31.352s-19.3-2.657-19.3-2.657-6.283-.623-11.285,7.2c-5.268,8.228-9.8,16.538-10.212,27.348-.281,7.522,4.843,12.833,5.635,20.723,1.386,13.816-.969,29.768-.533,37.97.065,1.217.36,3.324,1.505,3.784C756.318,334.423,769.756,333.156,779.338,329.357Z" transform="translate(-473.657 -149.343)" fill="#fff"/>
    <path id="Tracé_110" data-name="Tracé 110" d="M819.152,232.61l-7.432,37.275V332.1l5.419,29.048h32.436l-19.916-44.6,4.3-48.726-4.49-31.687Z" transform="translate(-519.437 -148.852)" fill="#333"/>
    <path id="Tracé_111" data-name="Tracé 111" d="M796.855,563.7c-.04-7.115.194-43.011,8.458-51.185,8.174-8.084,44.189-14.7,48.25-15.426l1.242,6.968c-14.554,2.6-39.537,8.559-44.516,13.488-4.53,4.476-6.445,29.663-6.363,46.119Z" transform="translate(-509.923 -318.099)"/>
    <path id="Tracé_112" data-name="Tracé 112" d="M733.228,233.38l-8.771,36.526,1.714,61.908L719.61,352.7l-17.86-6.546,12.815-18.137,2.747-41.787L712.135,270.2l12.073-33.707Z" transform="translate(-449.065 -149.345)" fill="#333"/>
    <path id="Tracé_113" data-name="Tracé 113" d="M761.538,106.226a31.591,31.591,0,0,0-2.621-6.445c-2.16-4.317-8.642-7.234-6.784-13.949s8.023-5.3,10.183-10.557,18.724-3.017,22.977,1.221,4.321,14.529,6.168,20.37-6.939,10.781-10.95,10.781S761.538,106.226,761.538,106.226Z" transform="translate(-481.094 -46.208)"/>
    <path id="Tracé_114" data-name="Tracé 114" d="M784.08,170.87c0,2.027,1.944,26.75,1.944,26.75,2.362,4.245,13.013,2.16,14.446.45s.274-27.2.274-27.2Z" transform="translate(-501.75 -109.343)" fill="#fc7575"/>
    <path id="Tracé_115" data-name="Tracé 115" d="M789.568,181.874a10.415,10.415,0,0,0,11.494-2c-.133-4.969-.317-9-.317-9H784.08c0,.72.238,4.188.547,8.411A45.01,45.01,0,0,0,789.568,181.874Z" transform="translate(-501.75 -109.343)" fill="#fd5e5a"/>
    <path id="Tracé_116" data-name="Tracé 116" d="M775.68,136.488s-.785-2.913-3.043-2.186-.144,10.133,2.186,9.11S775.68,136.488,775.68,136.488Z" transform="translate(-493.81 -85.869)" fill="#e54e4e"/>
    <path id="Tracé_117" data-name="Tracé 117" d="M835.862,132.028s1.6-3.143,2.7-2.049.36,10.493-1.75,9.909S835.862,132.028,835.862,132.028Z" transform="translate(-534.681 -83.028)" fill="#e54e4e"/>
    <path id="Tracé_118" data-name="Tracé 118" d="M779.8,88.052S774,90.367,774,96.33s1.682,6.885.915,11.472,2.247,13.24,7.094,15.6c10.061,4.9,15.919-4.191,15.919-9.391s-.652-10.014.72-15.674S793.873,80.537,779.8,88.052Z" transform="translate(-495.299 -54.82)" fill="#fc7575"/>
    <path id="Tracé_119" data-name="Tracé 119" d="M822.556,80.49c-1.037.32-1.08,6.121,2.16,9.33s7.951,15.937,7.951,24.41a22.5,22.5,0,0,1-4.281,13.6l2.6,1.141s4.281-11.224,4.281-17.925S831.925,77.588,822.556,80.49Z" transform="translate(-525.97 -51.367)" fill="#333"/>
    <path id="Tracé_120" data-name="Tracé 120" d="M779.675,80.869s1.386,7.562-5.552,11.256-16.2,8.941-16.963,14.8,2.621,4.749,2.621,4.749l-.616,2.805s-1.851,2.312-3.857-4.162,3.086-11.566,3.086-11.566,3.241-7.446,5.088-13.359S779.675,80.869,779.675,80.869Z" transform="translate(-483.039 -51.659)" fill="#333"/>
    <path id="Tracé_121" data-name="Tracé 121" d="M784.406,86.4c-8.959,2.945-7.076,6.885-13.46,12.545-4.087,3.5-5.379,3.061-8.566,7.356,3.032-5.441,5.934-4.9,10.687-10.651C775.926,92.125,776.722,87.945,784.406,86.4Z" transform="translate(-487.863 -55.289)" fill="#ccc"/>
    <path id="Tracé_122" data-name="Tracé 122" d="M794,83c-2.992.324-8.2,1.1-10.691,2.823-2.589,1.656-4.5,6.586-5.4,9.5.67-3.183,2.474-8.08,5.174-9.859S790.808,83.032,794,83Z" transform="translate(-497.801 -53.113)" fill="#ccc"/>
    <path id="Tracé_123" data-name="Tracé 123" d="M769.475,134.24l-2.042,1.235A2.83,2.83,0,0,0,766.1,138.3c.544,3.781,1.8,12.117,2.492,13.363a14.484,14.484,0,0,0,3.136,3.028,3.406,3.406,0,0,0,4.721-.479l.479-.569s-2.812-2.956-4.371-4.515S769.475,134.24,769.475,134.24Z" transform="translate(-490.224 -85.903)"/>
    <path id="Tracé_124" data-name="Tracé 124" d="M765.368,147.385A15.183,15.183,0,0,0,764,151.141c0,1,.954,9.913.954,9.913l1.4-3.694s-.558-5.538-.558-5.851.832-2.917.558-3.9S765.368,147.385,765.368,147.385Z" transform="translate(-488.9 -94.133)" fill="#ed5151"/>
    <path id="Tracé_125" data-name="Tracé 125" d="M753.364,144.187a.619.619,0,0,1,1.149.36,32.824,32.824,0,0,0,.025,5.761c.36,2.733-.288,3.266-.288,4.994s-.479,2.881-.209,3.633.591-4.8,1.631-5.844.382,7.382,0,8.584-1.206,4.555-2.225,5.574-2.7,14.54-2.7,14.54l-7.94-1.854a29.964,29.964,0,0,0,3.241-8.282c.983-4.595,5.761-9.567,6.561-21.486C752.7,148.853,752.438,145.847,753.364,144.187Z" transform="translate(-475.34 -92.076)" fill="#fd5e5a"/>
    <path id="Tracé_126" data-name="Tracé 126" d="M760.29,233.38l-4.544.522L744.04,266.7l3.781,1.159-3.781,1.61,9.193,62.344-1.2-63.954Z" transform="translate(-476.127 -149.345)" fill="#666"/>
    <path id="Tracé_127" data-name="Tracé 127" d="M764.425,419.35s-6.121,7.227-4.029,7.8,4.714-6.539,7.05-5.369S764.425,419.35,764.425,419.35Z" transform="translate(-486.315 -268.351)" fill="#d36363"/>
    <path id="Tracé_128" data-name="Tracé 128" d="M743.136,223.87l-2.956,10.637,9.877,2.434,1.707-11.324Z" transform="translate(-473.657 -143.259)" fill="#fff"/>
    <path id="Tracé_129" data-name="Tracé 129" d="M696.559,290.077c3.961,8.091,15.339,8.966,18.62,2.625S725,238.622,725,238.622l-14.119-3.792S692.591,281.986,696.559,290.077Z" transform="translate(-445.382 -150.273)" fill="#333"/>
    <path id="Tracé_130" data-name="Tracé 130" d="M753.644,251.719a1.149,1.149,0,1,1-.338-.813,1.152,1.152,0,0,1,.338.813Z" transform="translate(-480.799 -160.345)" fill="#fff"/>
    <path id="Tracé_131" data-name="Tracé 131" d="M750.457,264.959a1.149,1.149,0,1,1-1.149-1.149A1.149,1.149,0,0,1,750.457,264.959Z" transform="translate(-478.764 -168.818)" fill="#fff"/>
    <path id="Tracé_132" data-name="Tracé 132" d="M747.267,277.419a1.149,1.149,0,1,1-1.149-1.149A1.149,1.149,0,0,1,747.267,277.419Z" transform="translate(-476.722 -176.791)" fill="#fff"/>
    <path id="Tracé_133" data-name="Tracé 133" d="M820.668,272.8l-4-2.611h5.214l3.738-36.879-6.953-.857-6.95,37.333V332Z" transform="translate(-519.437 -148.75)" fill="#666"/>
    <path id="Tracé_134" data-name="Tracé 134" d="M755.483,416.09s-7.018-1.6-10.723.587c-2.675,1.577-8.019,3.806-7.367,4.587s10.442-3.053,10.442-3.053,5.286.23.176,1.35c-2.931.641-12.585,5.243-8.934,5.38a16.461,16.461,0,0,0,7.454-2.016s6.341-2.369,5.235-1.275c-2.247,2.222-8.872,5.372-8.872,5.372s-.691,1.1.843,1.527c2.812.789,9.33-6.273,20.665-2.9,7.518,2.232,17.982,2.319,26.484,1.894-.18-4.919.5-7.77-2.549-11.364C767.139,421.726,765.32,417.75,755.483,416.09Z" transform="translate(-471.839 -265.905)" fill="#ea7373"/>
    <path id="Tracé_135" data-name="Tracé 135" d="M856.732,417.12l-11.112,2.16v9.755l12.1,1.167Z" transform="translate(-541.131 -266.924)" fill="#fff"/>
    <path id="Tracé_136" data-name="Tracé 136" d="M898.273,307.347c.054-9.117-9.913-29.21-19.927-43.083C864.955,245.7,854.221,242.4,854.221,242.4c-8.188,13.827,1.8,29.065,5.4,32.681s21.342,21.317,16.528,26.08c-.72.72-24.039,3.748-25.656,4.152,0,0-.475,13.168.6,17.428C862.4,321.279,898.251,311.6,898.273,307.347Z" transform="translate(-544.183 -155.117)" fill="#333"/>
    <path id="Tracé_137" data-name="Tracé 137" d="M854.353,242.4a26.6,26.6,0,0,0-2.337,7.9c-.987,8.066,2.1,16.481,6.46,23.333C851.394,266.216,847.13,252.407,854.353,242.4Z" transform="translate(-544.326 -155.117)" fill="#333"/>
    <circle id="Ellipse_1" data-name="Ellipse 1" cx="1.149" cy="1.149" r="1.149" transform="translate(309.138 162.399)" fill="#fff"/>
    <path id="Tracé_138" data-name="Tracé 138" d="M873.507,450.479a1.149,1.149,0,1,1-1.149-1.149A1.149,1.149,0,0,1,873.507,450.479Z" transform="translate(-557.506 -287.536)" fill="#fff"/>
    <path id="Tracé_139" data-name="Tracé 139" d="M883.3,449.419a1.149,1.149,0,1,1-1.149-1.149A1.149,1.149,0,0,1,883.3,449.419Z" transform="translate(-563.771 -286.858)" fill="#fff"/>
    <path id="Tracé_140" data-name="Tracé 140" d="M824.12,123.088a14.032,14.032,0,0,1,2.769-2.031c.875-.306,1.714-.266,1.858.173s-.763.745-1.6.745A11.61,11.61,0,0,0,824.12,123.088Z" transform="translate(-527.372 -77.34)"/>
    <path id="Tracé_141" data-name="Tracé 141" d="M794.429,122.831a14.006,14.006,0,0,0-2.737-2.07c-.868-.317-1.711-.292-1.862.144s.753.756,1.592.767A11.524,11.524,0,0,1,794.429,122.831Z" transform="translate(-505.419 -77.14)"/>
    <path id="Tracé_142" data-name="Tracé 142" d="M796.22,166.934s6.823,1.829,10.648-.454c0,0-3.273,4.681-5.066,4.681S796.22,166.934,796.22,166.934Z" transform="translate(-509.518 -106.534)" fill="#fff"/>
    <path id="Tracé_143" data-name="Tracé 143" d="M796.663,138.1a1.033,1.033,0,1,1-1-1.264A1.16,1.16,0,0,1,796.663,138.1Z" transform="translate(-508.514 -87.567)" fill="#330"/>
    <path id="Tracé_144" data-name="Tracé 144" d="M829.783,138.1a1.033,1.033,0,1,1-1-1.264A1.16,1.16,0,0,1,829.783,138.1Z" transform="translate(-529.708 -87.567)" fill="#330"/>
    <path id="Tracé_145" data-name="Tracé 145" d="M822.6,137.26a3.228,3.228,0,0,1,3.716-1.613c1.512.547,2.161,1.75,3.428,1.9-1.221.63-2.618-.72-4.137-1.141A5.375,5.375,0,0,0,822.6,137.26Z" transform="translate(-526.4 -86.701)"/>
    <path id="Tracé_146" data-name="Tracé 146" d="M791.3,137.036a3.219,3.219,0,0,0-3.691-1.667c-1.519.526-2.2,1.718-3.453,1.854,1.21.648,2.628-.688,4.152-1.08A5.435,5.435,0,0,1,791.3,137.036Z" transform="translate(-501.801 -86.528)"/>
    <path id="Tracé_147" data-name="Tracé 147" d="M812.3,154.05a15.522,15.522,0,0,0-1.7-1.71,16.156,16.156,0,0,0-2.16,1.71,14.664,14.664,0,0,0,2.124-1.26A13.259,13.259,0,0,0,812.3,154.05Z" transform="translate(-517.338 -97.486)"/>
    <rect id="Rectangle_6" data-name="Rectangle 6" width="62.452" height="175.635" transform="translate(103.328 191.68)"/>
    <rect id="Rectangle_7" data-name="Rectangle 7" width="11.137" height="175.635" transform="translate(310.91 191.68)"/>
    <path id="Tracé_148" data-name="Tracé 148" d="M658.19,503.35H599.94v4.011l58.25-.306Z" transform="translate(-383.915 -322.105)" fill="#333"/>
    <path id="Tracé_149" data-name="Tracé 149" d="M512.586,261.48v69.286l-72.477-4.18-2.279-62.394Z" transform="translate(-280.177 -167.327)" fill="#666"/>
    <path id="Tracé_150" data-name="Tracé 150" d="M506.26,392.216c0-4.062,3.961-7.356,8.811-7.356s8.815,3.295,8.815,7.356-3.961,7.356-8.815,7.356c-.184,0-.36,0-.547-.018-2.085,6.582-4.508,18.1-3.05,23.405a13.762,13.762,0,0,0,5.441,7.81l-.4.652a15.048,15.048,0,0,1-6.842-7.994c-2.088-5.506-1.037-17.507.569-25.043A7.177,7.177,0,0,1,506.26,392.216Z" transform="translate(-323.967 -246.28)" fill="#333"/>
    <path id="Tracé_151" data-name="Tracé 151" d="M0,0H27.805V.612A3.089,3.089,0,0,1,24.716,3.7H3.089A3.089,3.089,0,0,1,0,.612Z" transform="translate(212.227 185.376) rotate(180)" fill="#333"/>
    <rect id="Rectangle_8" data-name="Rectangle 8" width="232.859" height="7.054" transform="translate(99.598 184.627)"/>
    <path id="Tracé_152" data-name="Tracé 152" d="M881.152,96.2a.54.54,0,0,1-.54-.54c0-19.592-19.106-33.43-19.3-33.57a.54.54,0,1,1,.627-.879c.2.14,19.754,14.292,19.754,34.449A.54.54,0,0,1,881.152,96.2Z" transform="translate(-551.014 -39.099)"/>
    <path id="Tracé_153" data-name="Tracé 153" d="M867.108,31.842a.537.537,0,0,1-.519-.4c-4.263-15.422-12.354-22.854-18.378-26.372A28.158,28.158,0,0,0,836.04,1.08a.54.54,0,0,1,0-1.08h0a28.661,28.661,0,0,1,12.646,4.108c6.215,3.6,14.544,11.242,18.926,27.049a.54.54,0,0,1-.378.663A.5.5,0,0,1,867.108,31.842Z" transform="translate(-534.655)"/>
  </g>
</svg>
