<svg id="Calque_2" data-name="Calque 2" xmlns="http://www.w3.org/2000/svg" width="451.34" height="366.592" viewBox="0 0 451.34 366.592">
  <g id="Layer_1" data-name="Layer 1" transform="translate(0)">
    <path id="Tracé_154" data-name="Tracé 154" d="M170.782,342.066c53.921,52.524,142.781,48.762,198.474-8.417a151.6,151.6,0,0,0,31.607-47.839c20.427,6.793,44.537,1.341,61.326-15.895,22.943-23.55,23.533-60.185,1.322-81.823-16.524-16.1-41-19.358-61.922-10.276a129.191,129.191,0,0,0-29.121-42.805c-53.921-52.527-142.781-48.762-198.474,8.414S116.861,289.539,170.782,342.066Z" transform="translate(-94.894 -70.814)" fill="#9dc5f2"/>
    <path id="Tracé_155" data-name="Tracé 155" d="M479.256,1215.322c-.022,4.225-64.776,7.292-144.623,6.849s-144.568-4.214-144.543-8.453,64.776-7.292,144.623-6.849S479.281,1211.1,479.256,1215.322Z" transform="translate(-137.422 -872.468)" fill="#666" opacity="0.08"/>
    <path id="Tracé_156" data-name="Tracé 156" d="M798.05,700.49l43.938,154.661L804.129,700.49Z" transform="translate(-576.943 -506.415)"/>
    <path id="Tracé_157" data-name="Tracé 157" d="M527.718,700.49,483.78,855.151,521.64,700.49Z" transform="translate(-349.744 -506.415)"/>
    <rect id="Rectangle_9" data-name="Rectangle 9" width="176.87" height="192.263" transform="translate(108.816)" fill="#e3e4ff"/>
    <path id="Tracé_158" data-name="Tracé 158" d="M618.9,222.63H583.25l31.354,17A38.235,38.235,0,0,0,618.9,222.63Z" transform="translate(-421.655 -160.949)" fill="#4f80ff"/>
    <path id="Tracé_159" data-name="Tracé 159" d="M434.59,222.63A38.417,38.417,0,0,0,454.1,255.389l17.732-32.759Z" transform="translate(-314.182 -160.949)" fill="#4f80ff"/>
    <path id="Tracé_160" data-name="Tracé 160" d="M575.76,224.26v37.275a38.416,38.416,0,0,0,32.759-19.521Z" transform="translate(-416.24 -162.127)" fill="#4f80ff"/>
    <path id="Tracé_161" data-name="Tracé 161" d="M434.59,173.22h35.724L438.9,156.2a38.215,38.215,0,0,0-4.311,17.02Z" transform="translate(-314.182 -112.924)" fill="#4f80ff"/>
    <path id="Tracé_162" data-name="Tracé 162" d="M595.174,99.37,577.42,132.135h37.264a38.405,38.405,0,0,0-19.51-32.765Z" transform="translate(-417.44 -71.839)" fill="#ffba00"/>
    <path id="Tracé_163" data-name="Tracé 163" d="M485.294,118.7V81.46a38.414,38.414,0,0,0-32.754,19.491Z" transform="translate(-327.159 -58.891)" fill="#4f80ff"/>
    <path id="Tracé_164" data-name="Tracé 164" d="M577.42,77.46v35.671l17-31.365a38.233,38.233,0,0,0-17-4.305Z" transform="translate(-417.44 -55.999)" fill="#fff7cf"/>
    <path id="Tracé_165" data-name="Tracé 165" d="M526.371,229.94l-17.011,31.4a38.248,38.248,0,0,0,17.011,4.305Z" transform="translate(-368.237 -166.234)" fill="#4f80ff"/>
    <rect id="Rectangle_10" data-name="Rectangle 10" width="8.417" height="31.839" transform="translate(125.475 154.863)" fill="#4f80ff"/>
    <rect id="Rectangle_11" data-name="Rectangle 11" width="8.417" height="37.596" transform="translate(140.713 149.109)" fill="#4f80ff"/>
    <rect id="Rectangle_12" data-name="Rectangle 12" width="8.417" height="43.351" transform="translate(155.952 143.354)" fill="#4f80ff"/>
    <rect id="Rectangle_13" data-name="Rectangle 13" width="8.417" height="49.105" transform="translate(171.187 137.597)" fill="#4f80ff"/>
    <rect id="Rectangle_14" data-name="Rectangle 14" width="8.417" height="54.863" transform="translate(186.425 131.843)" fill="#4f80ff"/>
    <rect id="Rectangle_15" data-name="Rectangle 15" width="8.417" height="60.617" transform="translate(201.663 126.088)" fill="#4f80ff"/>
    <rect id="Rectangle_16" data-name="Rectangle 16" width="8.417" height="66.374" transform="translate(216.898 120.331)" fill="#4f80ff"/>
    <rect id="Rectangle_17" data-name="Rectangle 17" width="8.417" height="72.129" transform="translate(232.136 114.576)" fill="#4f80ff"/>
    <rect id="Rectangle_18" data-name="Rectangle 18" width="8.417" height="77.883" transform="translate(247.374 108.819)" fill="#4f80ff"/>
    <rect id="Rectangle_19" data-name="Rectangle 19" width="8.417" height="83.64" transform="translate(262.612 103.065)" fill="#4f80ff"/>
    <path id="Tracé_166" data-name="Tracé 166" d="M576.384,254.06h0c-.751.133-20.9,3.724-21.63,3.724l6.885,1.87L541,267.486c-1.081,4.71-1.845,8.054-2.452,10.7L523.86,276.82l-19.427,17.474-15.216-1.939-28.182,24L447.9,311.926l-28.537,19.8,1.421,2.047,27.506-19.084,13.3,4.488c3.355-2.859,25.373-21.61,28.409-24.206l15.257,1.939c1.108-.984,18.751-16.864,19.466-17.507l15.792,1.474c.676-2.959,2.316-10.126,2.651-11.586l19.588-8.974-1.518,6.732Z" transform="translate(-303.172 -183.671)" fill="#cd3179"/>
    <rect id="Rectangle_20" data-name="Rectangle 20" width="189.526" height="3.621" transform="translate(104.779 192.263)"/>
    <rect id="Rectangle_21" data-name="Rectangle 21" width="68.43" height="4.987" transform="translate(210.08 13.329)" fill="#c5c8ea"/>
    <rect id="Rectangle_22" data-name="Rectangle 22" width="68.43" height="4.987" transform="translate(210.08 32.169)" fill="#c5c8ea"/>
    <rect id="Rectangle_23" data-name="Rectangle 23" width="68.43" height="4.987" transform="translate(210.634 41.503)" fill="#c5c8ea"/>
    <rect id="Rectangle_24" data-name="Rectangle 24" width="34.214" height="3.663" transform="translate(210.08 23.868)" fill="#c5c8ea"/>
    <rect id="Rectangle_25" data-name="Rectangle 25" width="26.927" height="3.663" transform="translate(251.583 23.868)" fill="#c5c8ea"/>
    <path id="Tracé_167" data-name="Tracé 167" d="M19.521,323.665C12.738,340.12,5.892,396.908,4.995,399.074c-1.288,3.111-5.112,10.822-5,11.29.224.939,3.6-5.674,3.6-5.674,1.022.936-.845,6.131-1.047,7.785s-1.349,3.544.091,3.369,2.469-10.681,3.048-10.753,0,9.159-.349,11.279,1.064,3.962,1.455.127.975-13.113,1.147-11.3.643,10.728,1.6,11.589.864-3.715.385-8.788a20.928,20.928,0,0,1-.055-4.679,1.313,1.313,0,0,1,1.54-1.222.67.67,0,0,1,.535.634c.1,1.086.579,4.245,1.967,4.078s-.036-3.308-.277-5.843-3.35-7.3-3.35-7.3,11.2-48.246,14.338-55.8c2.928-7.051,9.545-16.435,10.406-17.646l1.385-33.1C30.88,292.214,26.533,306.643,19.521,323.665Z" transform="translate(0.009 -207.579)" fill="#fc7575"/>
    <path id="Tracé_168" data-name="Tracé 168" d="M22.4,644.45V650.3l4.724.637.723-4.006Z" transform="translate(-16.192 -465.901)" fill="#c2cef9"/>
    <path id="Tracé_169" data-name="Tracé 169" d="M385.79,273.469s6.181-3.134,6.926-2.388-5.718,3-5.718,3Z" transform="translate(-278.902 -195.894)" fill="#fc7575"/>
    <path id="Tracé_170" data-name="Tracé 170" d="M372.79,291.15l.889-4.779s-.449-4.577-.449-5.425,4.674-4.214,5.8-3.095c.277.277,1.6,3.048,1.743,3.325.69,1.346-2.563,4.876-3.23,6.234l-2.036,4.139Z" transform="translate(-269.504 -200.708)" fill="#fc7575"/>
    <path id="Tracé_171" data-name="Tracé 171" d="M384.538,180.167l25.489-43.9a.194.194,0,0,1,.277-.075.244.244,0,0,1,.061.313l-23.7,45.119a1.214,1.214,0,0,1-1.74.554,1.524,1.524,0,0,1-.418-1.962A.384.384,0,0,1,384.538,180.167Z" transform="translate(-277.836 -98.436)" fill="#ed1c24"/>
    <path id="Tracé_172" data-name="Tracé 172" d="M258.531,300.537a4.9,4.9,0,0,0-6.533,2.41c-3.99,8.752-9.581,20.092-13.3,20.092-5.2,0-19.829-30.648-26.135-33.43-2.723,23.863,7.885,29.617,8.168,30.379.887,2.4,7.433,17.349,16.316,17.349s19.973-20.5,24.483-29.9a4.929,4.929,0,0,0-2.347-6.6Z" transform="translate(-153.347 -209.372)" fill="#a3a8bf"/>
    <path id="Tracé_173" data-name="Tracé 173" d="M367.193,316.03,364.55,321l6.37,2.48V317.6Z" transform="translate(-263.547 -228.472)" fill="#a3a8bf"/>
    <path id="Tracé_174" data-name="Tracé 174" d="M194.918,633.113c-1.385-7.55-.468-95.077-1.84-101.073L173.13,580.109l9.107,52.034s-4.294,81.352-4.333,85.94h10.9C189.3,694.345,196.02,639.183,194.918,633.113Z" transform="translate(-125.161 -384.635)" fill="#333"/>
    <path id="Tracé_175" data-name="Tracé 175" d="M100.281,1213.416,95,1225.086l1.435,4.131,6.25-4.131,3.086-10.783.679-4.763h-6.4C100.189,1212,100.281,1213.416,100.281,1213.416Z" transform="translate(-68.677 -874.43)" fill="#fc7575"/>
    <path id="Tracé_176" data-name="Tracé 176" d="M135.492,573.563l7.647-43.37c-.078-.335-24.658-.693-24.658-.693s-12.06,31.077-12.06,45.734,2.8,70.815,2.8,70.815-3.793,12.085-3.793,32.956c0,15.565-1.709,31.7-1.31,38.9H113C115.552,699.939,135.492,573.563,135.492,573.563Z" transform="translate(-75.222 -382.799)" fill="#666"/>
    <path id="Tracé_177" data-name="Tracé 177" d="M213.777,1214.385c-.651-1.061-.831-5.042-.709-10.805h-6.151a31.917,31.917,0,0,1-.227,4.247l7.929,12.961,4.175-.878A25.748,25.748,0,0,1,213.777,1214.385Z" transform="translate(-149.423 -870.121)" fill="#fd5e5a"/>
    <path id="Tracé_178" data-name="Tracé 178" d="M201.123,1214.757s-.981.2-1.014,2.726,2.615,13.379,2.615,13.379h.956s-1.133-10.079.8-8.965,3.508,8.481,3.508,8.481a60.667,60.667,0,0,0,7.575.554c4.807.105-2.349-3.6-2.349-3.6l-4.749-1.15s-2.452-7.27-4.2-9.592S201.123,1214.757,201.123,1214.757Z" transform="translate(-144.665 -878.17)"/>
    <path id="Tracé_179" data-name="Tracé 179" d="M153.871,281.8c-2.189-3.075-.05-6.5-8.423-6.45a61.4,61.4,0,0,0-17.643,2.962L126.42,306.8l.1-.119,6.91,12.623c2.654,5.929,1.662,13.326-1.172,19.194l-2.8,5.8a3.709,3.709,0,0,0,3.726,3.172l24.381,1.075c2.336.1,4.261-1.56,4.131-3.582-.435-6.724-1.244-18.66.175-28.207.684-4.6,2.028-15.659,2.563-17.842C164.438,298.909,157.528,286.932,153.871,281.8Z" transform="translate(-91.392 -199.061)" fill="#c2cef9"/>
    <path id="Tracé_180" data-name="Tracé 180" d="M41.436,320.234h0a44.021,44.021,0,0,0,.7-30.753l-.812-2.341c-7.353,5.073-11.6,19.51-18.613,36.533-4.884,11.855-12.553,41.852-15.859,59.819a3.325,3.325,0,0,0,1.829,3.6c1.939.934,4.577,2.15,6.813,3.2a3.305,3.305,0,0,0,4.677-2.424c2.216-12.941,6.907-44.032,9.367-49.989C32.468,330.829,40.575,321.456,41.436,320.234Z" transform="translate(-4.913 -207.586)" fill="#d2deff"/>
    <path id="Tracé_181" data-name="Tracé 181" d="M131.531,320.227c3.8-13.548,2.621-21.752-.111-33.1C137,298.631,136.354,311.032,131.531,320.227Z" transform="translate(-95.007 -207.579)" fill="#fff"/>
    <path id="Tracé_182" data-name="Tracé 182" d="M90.88,1245.21s-5.12,6.314-5.12,8.486.69,3.862,2.493,4.289,6.128-1.488,7.741-7.112c0,0-4.186,2.787-5.818,1.15S90.88,1245.21,90.88,1245.21Z" transform="translate(-61.997 -900.217)"/>
    <path id="Tracé_183" data-name="Tracé 183" d="M181.66,228.106s3.546,8.977,4.513,14.332,9.464,3.987,9.464,7.165-4.74.571-3.665,5.935,8.245,2.23,9.1,5.372-7.65,5.347-1.183,7.758,8.378-1.092,8.378-1.092-5.7,1.108-5.7-1.108,4.812,1.225,7.508-2.607,1.033-7.633-1.8-8.422-3.02.208-1.358-4.355,5.173-3.641-.923-7.334-8.927-3.048-6.494-6.505S185.392,224.374,181.66,228.106Z" transform="translate(-131.328 -164.286)"/>
    <path id="Tracé_184" data-name="Tracé 184" d="M156.17,217.48s1.676,16.6,3.976,19.918c1.438,2.067,9.087,9.908,11.792,9.32,1.626-.355-5.921-27.858-5.921-27.858Z" transform="translate(-112.9 -157.226)" fill="#fc7575"/>
    <path id="Tracé_185" data-name="Tracé 185" d="M167.582,224.733c-.895-3.436-1.565-5.874-1.565-5.874l-1.078-.152-8.769-1.227h0s5.416,5.458,7.062,6.187A12.468,12.468,0,0,0,167.582,224.733Z" transform="translate(-112.9 -157.226)" fill="#fd5e5a"/>
    <path id="Tracé_186" data-name="Tracé 186" d="M142.242,126.456s4-.416,5.245,4.968.9,8.833,1.662,9.592a9.527,9.527,0,0,0,2.413,1.449,2.215,2.215,0,0,1-1,1.518,2.284,2.284,0,0,0-1.083,1.8c0,.31.657.31.657.862s-.8,1.485-.8,1.485a1.905,1.905,0,0,1,.587,1.108c0,.554-.931,1.313-.931,1.313s-.139,2-.139,3.106-4,3.8-9.456,1.588-20.779-5.522-14.836-17.529A19.333,19.333,0,0,1,142.242,126.456Z" transform="translate(-89.078 -91.414)" fill="#fc7575"/>
    <path id="Tracé_187" data-name="Tracé 187" d="M129.821,142.928c.277.277-3.369,2.311-2.059,6.683s-5.929,1.507-8.375-1.9-4.106-11.393-1.612-15.4,2.577-3,4.968-6.311,14.928-5.034,17.3-1.662-1.781,8.459-6.079,10.678S129.821,142.928,129.821,142.928Z" transform="translate(-84.248 -88.565)"/>
    <path id="Tracé_188" data-name="Tracé 188" d="M159.694,124.588c.368,0,7.913-2.657,7.087,2.311s-5.89,9-12.146,10.284-9.2,3.15-5.522,5.541c0,0-4.233-.46-4.233-2.668s5.4-4.785,8.173-6.17S159.694,124.588,159.694,124.588Z" transform="translate(-104.738 -89.557)" fill="#333"/>
    <path id="Tracé_189" data-name="Tracé 189" d="M164.148,176.061s-.277-4.968-3.048-4.048-1.011,8.281,1.518,8.281S164.148,176.061,164.148,176.061Z" transform="translate(-115.447 -124.274)" fill="#fc7575"/>
    <path id="Tracé_190" data-name="Tracé 190" d="M165.167,178.5s-.416-2.8-1.565-2.216-.964,5.935.507,5.66S165.167,178.5,165.167,178.5Z" transform="translate(-117.733 -127.381)" fill="#fd5e5a"/>
    <path id="Tracé_191" data-name="Tracé 191" d="M208.854,204.053a3.325,3.325,0,0,0,2.247.152,3.427,3.427,0,0,1-2.363.086.139.139,0,1,1,.086-.263h0Z" transform="translate(-150.831 -147.495)"/>
    <path id="Tracé_192" data-name="Tracé 192" d="M201.55,163.615a7.225,7.225,0,0,1,2.571-1.8c1.144-.277.515,1.208.515,1.208S204.9,162.1,201.55,163.615Z" transform="translate(-145.707 -116.962)"/>
    <path id="Tracé_193" data-name="Tracé 193" d="M168.09,197.7a1.205,1.205,0,1,1-1.205-1.205A1.205,1.205,0,0,1,168.09,197.7Z" transform="translate(-119.775 -142.051)"/>
    <path id="Tracé_194" data-name="Tracé 194" d="M380.882,279.63l2.923-1.56s2.493.41,2.4,1.064-2.344.161-2.344.161L380.07,284Z" transform="translate(-274.767 -201.029)" fill="#fc7575"/>
    <path id="Tracé_195" data-name="Tracé 195" d="M393.465,283.433s-3.455,1.515-2.651,2.319,4.311-.831,4.053-2.092C394.759,283.129,393.465,283.433,393.465,283.433Z" transform="translate(-282.447 -204.844)" fill="#fc7575"/>
    <path id="Tracé_196" data-name="Tracé 196" d="M391.915,289.693s-3.455,1.515-2.651,2.319,4.311-.831,4.053-2.092C393.209,289.388,391.915,289.693,391.915,289.693Z" transform="translate(-281.326 -209.369)" fill="#fc7575"/>
    <path id="Tracé_197" data-name="Tracé 197" d="M206.76,174.6a1.094,1.094,0,0,1,.676.909,1.24,1.24,0,0,1-.676.972Z" transform="translate(-149.474 -126.226)" fill="#330"/>
    <path id="Tracé_198" data-name="Tracé 198" d="M199.35,172.924s1.064-1.335,1.768-2.039a6.245,6.245,0,0,1,2.707-.975Z" transform="translate(-144.117 -122.835)"/>
    <path id="Tracé_199" data-name="Tracé 199" d="M172.685,126.44a13.133,13.133,0,0,1-.815,6.333,5.8,5.8,0,0,1-.864,1.421c-1.851,1.984-5.48,3.325-8.157,3.879,7.464-2.859,7.846-4.488,8.048-4.619a9.505,9.505,0,0,0,1.189-2.837A22.186,22.186,0,0,0,172.685,126.44Z" transform="translate(-117.729 -91.409)" fill="#ccc"/>
    <path id="Tracé_200" data-name="Tracé 200" d="M183.034,126.44c1.477.036,2.408,1.809,2.707,3.38.9,4.48-4.5,7.735-9.251,8.536,3.3-1.067,7.519-3.048,8.63-6.35C185.774,130.136,184.993,126.853,183.034,126.44Z" transform="translate(-127.59 -91.409)" fill="#ccc"/>
    <path id="Tracé_201" data-name="Tracé 201" d="M137.692,222.17c1.491,2.516,1.513,6.489-1.366,7.494-1.108.36-5.3.039-4.594,1.527.7,1.579,4.45,1.169,5.486,2.516a1.369,1.369,0,0,1,.277,1.033c-.277,1.5-3.762,1.571-5.306,1.477,1.061-.116,3.987-.468,4.619-1.327.252-.341,0-.779-.344-.984-1.369-.792-5.231-.452-5.655-2.87-.371-2.111,3.84-1.84,5.145-2a2.494,2.494,0,0,0,1.286-.684C138.686,226.93,138.459,224.032,137.692,222.17Z" transform="translate(-94.549 -160.617)"/>
    <path id="Tracé_202" data-name="Tracé 202" d="M1438.652,1259.518a8.319,8.319,0,0,1,0,2.46c-1.637,5.472-5.521,15.155-5.521,15.155l11.246-2.316v-5.051l-1.108-10.276Q1440.948,1259.523,1438.652,1259.518Z" transform="translate(-1036.071 -910.541)"/>
    <path id="Tracé_203" data-name="Tracé 203" d="M1198.282,1270.983l-.3,2.9-1.413.624c-3.69,1.629-12.925,5.61-12.925,5.61s1.817,1.25,7.674,0,12.925,0,12.925,0l.2-2.7-1.009-4.987s0-1.277.028-1.621C1201.607,1270.8,1200.128,1271,1198.282,1270.983Z" transform="translate(-855.703 -918.724)"/>
    <path id="Tracé_204" data-name="Tracé 204" d="M1198.875,577.5l1.108,1.385c-1.011-.139-2.194-.194-2.4.277-.249.576,2.236,1.2,3.843,1.543l.524.659-1.563.216s-3.172-.731-3.172.338,7.613.779,7.613.779l.587-12.19-5.818-.767s-1.183-2.494-2.751-6c-1.5,1.421-3.194,2.613-4.807,3.909C1195.908,573.321,1198.875,577.5,1198.875,577.5Z" transform="translate(-861.776 -407.553)" fill="#fd5e5a"/>
    <path id="Tracé_205" data-name="Tracé 205" d="M1187.24,564.149l4.5,4.513,5.056-4.1-3.048-7.134Z" transform="translate(-858.306 -402.991)" fill="#fff"/>
    <path id="Tracé_206" data-name="Tracé 206" d="M1168.77,316.674c5.322-5.48,3.122-20.156,3.122-20.156s-2.588-1.923-11.886,1.723-30.2,40.45-32.95,43.268c-1.831,1.887,7.757,24,15.712,35.629,1.632-1.313,10.221-8.88,11.739-10.32-3.405-7.63-12.764-22.577-11.739-25.309C1144.27,337.5,1163.448,322.154,1168.77,316.674Z" transform="translate(-814.632 -214)" fill="#666"/>
    <path id="Tracé_207" data-name="Tracé 207" d="M1238.7,722.65c0-5.685,10.839-62.3,10.839-62.3l3.125-42.794-21.148-3.341-5.087,100.441,2.793,82.358c1.87.022,6.356.033,8.231.044C1237.814,790.636,1238.7,728.038,1238.7,722.65Z" transform="translate(-886.638 -444.04)" fill="#333"/>
    <path id="Tracé_208" data-name="Tracé 208" d="M1336.168,792.994l-16.252-81.92s-8.4-89.874-8.4-93.664c0-.3.089-1.064.238-2.156-13.379-.3-13-1.9-26.741-.421.662,13.354.116,29.238.116,29.238s5.04,13.005,6.757,16.28c2.036,3.879,13.808,59.875,13.808,59.875s20.3,59.476,21.66,73.863C1328.887,794.094,1334.634,793.016,1336.168,792.994Z" transform="translate(-928.988 -444.045)" fill="#333"/>
    <path id="Tracé_209" data-name="Tracé 209" d="M1370.7,115.062c.172-4.156,6.669-6.522,9.7-1.108l-.939.731C1376.878,110.483,1371.952,111.566,1370.7,115.062Z" transform="translate(-990.937 -80.106)"/>
    <path id="Tracé_210" data-name="Tracé 210" d="M1320.476,228.684l-4.206-22.164-9.143,5.38s-2.9,12.592-4.835,16.363C1298.924,234.824,1300.287,254.65,1320.476,228.684Z" transform="translate(-940.456 -149.302)" fill="#fc7575"/>
    <path id="Tracé_211" data-name="Tracé 211" d="M1312.91,223.042c4.269-.3,12.745-6.453,12.958-11.758l-.895-4.724-9.143,5.38S1314.428,218.058,1312.91,223.042Z" transform="translate(-949.158 -149.331)" fill="#fd5e5a"/>
    <path id="Tracé_212" data-name="Tracé 212" d="M1298.221,116.339s-7.655,3.325-7.655,9.9-3.048,22.929,0,26.06,13.362,1.355,17.967-6.7,3.845-24.741,2.4-26.232S1301.066,113.411,1298.221,116.339Z" transform="translate(-932.025 -83.403)" fill="#fc7575"/>
    <path id="Tracé_213" data-name="Tracé 213" d="M1276.332,101.1v.607s-1.865,8.082-9.029,9.392-8.035-2.524-8.035-2.524-7.458,3.233-8.035-4.433,5.791-9.395,5.791-9.395-2.158,5.264.59,4.646.227-5.051,3.156-6.059a7.318,7.318,0,0,1,5.627.6,22.841,22.841,0,0,0,7.8-2.216c3.239-1.815,9.7-.3,10.39,2.527a38.019,38.019,0,0,1,.895,4.746c-.055-.554,1.97.144,2.064.2,6.372,3.577,1.662,13.745-1.471,20.441a62.054,62.054,0,0,1-3.031,5.788,11.692,11.692,0,0,1-1.784,2.216s3.341-9.143,2.216-12.262-2.493.2-3.089-3.031,1.865-3.638,1.865-6.261S1276.332,101.1,1276.332,101.1Z" transform="translate(-904.543 -65.739)"/>
    <path id="Tracé_214" data-name="Tracé 214" d="M1357.3,170.87s2.749-4.848,4.417-3.131-1.324,11.465-2.992,10.5S1357.3,170.87,1357.3,170.87Z" transform="translate(-981.239 -121)" fill="#fc7575"/>
    <path id="Tracé_215" data-name="Tracé 215" d="M1293.84,217.63a9.93,9.93,0,0,0,7.267,1.247s-2.327,2.748-4.084,2.754S1293.84,217.63,1293.84,217.63Z" transform="translate(-935.372 -157.334)" fill="#fff"/>
    <path id="Tracé_216" data-name="Tracé 216" d="M1360.033,177.127s2.061-2.879,2.6-1.313-1.768,7.727-2.6,6.868S1360.033,177.127,1360.033,177.127Z" transform="translate(-982.958 -126.766)" fill="#fd5e5a"/>
    <path id="Tracé_217" data-name="Tracé 217" d="M1299.8,183.245a10.311,10.311,0,0,0-1.158,3.951,21.7,21.7,0,0,0,2.305.277c-.618-.219-1.236-.432-1.862-.607.233-1.189,2.241-6.181,2.959-6.716C1301.194,180.516,1300.191,182.394,1299.8,183.245Z" transform="translate(-938.842 -130.238)"/>
    <path id="Tracé_218" data-name="Tracé 218" d="M1324.636,176.974c0,.895-.5,1.621-1.108,1.621s-1.108-.726-1.108-1.621.5-1.624,1.108-1.624S1324.636,176.084,1324.636,176.974Z" transform="translate(-956.034 -126.768)" fill="#330"/>
    <path id="Tracé_219" data-name="Tracé 219" d="M1296.046,176.974c0,.895-.5,1.621-1.108,1.621s-1.108-.726-1.108-1.621.5-1.624,1.108-1.624S1296.046,176.084,1296.046,176.974Z" transform="translate(-935.365 -126.768)" fill="#330"/>
    <path id="Tracé_220" data-name="Tracé 220" d="M1322.415,163.628s2.89-.579,4.366.945.934,2.494.554,2.494-.5-2.638-1.962-2.494C1321.277,164.991,1321.218,163.734,1322.415,163.628Z" transform="translate(-955.541 -118.216)"/>
    <path id="Tracé_221" data-name="Tracé 221" d="M1414.356,630.756s5.541.693,5.541-.673-4.871-.457-5.425-2.053l-.333,4.957s5.76.626,6.422-.055S1414.356,630.756,1414.356,630.756Z" transform="translate(-1022.342 -454.031)" fill="#fd5e5a"/>
    <path id="Tracé_222" data-name="Tracé 222" d="M1389.978,591.7s-1.443,2.449-.391,3.532.887,3.53,1.33,3.53.055.277.884,1.141,10.739,2.277,10.739,1.31c0-.368-.922-.768-2.067-1.108a5.843,5.843,0,0,1-4.034-6.023c-.175-.507,3.693-3.7,9.143-7.974a55.835,55.835,0,0,0-6.1-5.026C1394.424,586.762,1390.51,591.137,1389.978,591.7Z" transform="translate(-1004.313 -420.088)" fill="#fc7575"/>
    <path id="Tracé_223" data-name="Tracé 223" d="M1413.525,577.58l-5.7,6.031,4.932,5.937,8.392-5.472Z" transform="translate(-1017.773 -417.558)" fill="#fff"/>
    <path id="Tracé_224" data-name="Tracé 224" d="M1407.4,319.206c-5.159-2.568-10.315,11.6-4.433,24.611,4.311,9.558,29.551,24.586,29.551,24.586s-15.856,11.2-25.836,23.159c2.017,1.529,7.425,7.356,9.22,9.171,10.946-9.173,31.172-25.761,33.158-29.024,2.9-4.785,1.236-6.575,1.236-6.575S1427.655,329.283,1407.4,319.206Z" transform="translate(-1012.374 -230.548)" fill="#666"/>
    <path id="Tracé_225" data-name="Tracé 225" d="M1246.356,290.089l-2.446,89.522,38.3,1.6,12.044-87.583-15.543-10.085-10.536,1.5-7.685-2.028Z" transform="translate(-899.275 -204.6)" fill="#fff"/>
    <path id="Tracé_226" data-name="Tracé 226" d="M1318.44,293.558l1.313,4.979h3.369l2.172-4.979-3.239-3.228Z" transform="translate(-953.156 -209.892)" fill="#333"/>
    <path id="Tracé_227" data-name="Tracé 227" d="M1295.2,288.988l3.616-5.613-8.029-2.665-4.491,3.059Z" transform="translate(-929.921 -202.938)" fill="#fff" stroke="#333" stroke-miterlimit="10" stroke-width="1"/>
    <path id="Tracé_228" data-name="Tracé 228" d="M1334.623,290.651l-3.133-5.613,11.265-2.028,4.524,3.045Z" transform="translate(-962.591 -204.6)" fill="#fff" stroke="#333" stroke-miterlimit="10" stroke-width="1"/>
    <path id="Tracé_229" data-name="Tracé 229" d="M1312.849,319.95h3.369l2.172,51.41-5.02,7.436-4.48-8.137Z" transform="translate(-946.252 -231.306)" fill="#333"/>
    <path id="Tracé_230" data-name="Tracé 230" d="M1247.138,291.75l9.647,48.609,19.449-46.523,9.553,5.727-9.891,78.39,4.488,16.834-48.255-2.421,2.058-21.707,1.945-75.5Z" transform="translate(-890.759 -210.919)" fill="#666"/>
    <path id="Tracé_231" data-name="Tracé 231" d="M1268.125,291.75l9.647,48.609-12.5-24.3.61-2.463-2.854-4.469-1.87-16.294Z" transform="translate(-911.746 -210.919)" fill="#333"/>
    <path id="Tracé_232" data-name="Tracé 232" d="M1340.35,297.2l-19.23,47.1,17.9-25.436v-2.8l3.826-2.621,3.178-14.038Z" transform="translate(-955.094 -214.859)" fill="#333"/>
    <path id="Tracé_233" data-name="Tracé 233" d="M1304.32,520.209l4.655-53.009-3.388,52.006,26.988,2.422Z" transform="translate(-942.948 -337.76)" fill="#333"/>
    <path id="Tracé_234" data-name="Tracé 234" d="M1598.128,460.927a.416.416,0,0,1-.191-.784,13.219,13.219,0,0,0,6.857-8.165c3.3-10.938-5.281-26.559-5.369-26.714a.417.417,0,0,1,.729-.4c.36.651,8.841,16.069,5.438,27.356a13.987,13.987,0,0,1-7.275,8.666A.418.418,0,0,1,1598.128,460.927Z" transform="translate(-1155.055 -306.995)"/>
    <path id="Tracé_235" data-name="Tracé 235" d="M1091.606,445.046a.418.418,0,0,1-.355-.2,30.415,30.415,0,0,1-3.793-22.442,33.383,33.383,0,0,1,3.8-10.124.416.416,0,0,1,.7.441,33.276,33.276,0,0,0-3.69,9.88,29.615,29.615,0,0,0,3.693,21.818.416.416,0,0,1-.136.571A.421.421,0,0,1,1091.606,445.046Z" transform="translate(-785.67 -297.929)"/>
    <line id="Ligne_1" data-name="Ligne 1" x1="0.194" y2="17.829" transform="translate(356.144 182.197)" fill="none" stroke="#000" stroke-miterlimit="10" stroke-width="1"/>
    <line id="Ligne_2" data-name="Ligne 2" x1="6.757" y1="16.28" transform="translate(356.144 200.026)" fill="none" stroke="#000" stroke-miterlimit="10" stroke-width="1"/>
  </g>
</svg>
