<svg xmlns="http://www.w3.org/2000/svg" width="140.4" height="131.04" viewBox="0 0 140.4 131.04">
  <g id="Groupe_60" data-name="Groupe 60" transform="translate(-158.8 -3905.48)">
    <g id="capital" transform="translate(142.8 3873.48)">
      <path id="Tracé_406" data-name="Tracé 406" d="M18.34,247.94H93.22a2.34,2.34,0,0,0,2.34-2.34v-6.051a10.261,10.261,0,0,0-3.025-7.3l-1.655-1.654V194.12a23.428,23.428,0,0,0-22.295-23.372l.8-2A38.621,38.621,0,0,0,72.16,154.34,2.34,2.34,0,0,0,69.82,152H41.74a2.34,2.34,0,0,0-2.34,2.34,38.621,38.621,0,0,0,2.775,14.407l.8,2A23.428,23.428,0,0,0,20.68,194.12v34.131a5.612,5.612,0,0,1-1.655,3.994,10.261,10.261,0,0,0-3.025,7.3V245.6a2.34,2.34,0,0,0,2.34,2.34ZM67.4,156.68a33.938,33.938,0,0,1-2.36,10.329l-1.484,3.711H48l-1.484-3.711a33.938,33.938,0,0,1-2.36-10.329ZM20.68,239.549a5.612,5.612,0,0,1,1.655-3.995,10.261,10.261,0,0,0,3.025-7.3V194.12A18.741,18.741,0,0,1,44.08,175.4h23.4A18.741,18.741,0,0,1,86.2,194.12v35.1H76.84v4.68H87.571l1.655,1.655a5.611,5.611,0,0,1,1.655,3.994v3.711H20.68Z" transform="translate(0 -84.9)" fill="#9dc5f2"/>
      <path id="Tracé_408" data-name="Tracé 408" d="M295.56,102.2H286.2V78.8h4.68a2.34,2.34,0,0,0,2.34-2.34V48.38a2.34,2.34,0,0,0-2.34-2.34h-.006a11.639,11.639,0,0,0,2.346-7.02V34.34A2.34,2.34,0,0,0,290.88,32H272.16a2.34,2.34,0,0,0-2.34,2.34v4.68a7.028,7.028,0,0,1-7.02,7.02H225.36a2.34,2.34,0,0,0-2.34,2.34V74.12h-4.68A2.34,2.34,0,0,0,216,76.46v7.02h4.68V78.8H239.4v4.68H225.36v4.68H239.4v4.68h-7.02v4.68h7.02v4.68h-2.34v4.68H251.1v4.68h-9.36v4.68h9.36v4.68h-9.36v4.68h9.36v4.68H234.72v4.68h11.7v4.68h-4.68v4.68h4.68V149h-4.68v4.68h4.68v4.68H239.4v4.68h51.48a2.34,2.34,0,0,0,2.34-2.34V134.96h2.34a2.34,2.34,0,0,0,2.34-2.34V104.54a2.34,2.34,0,0,0-2.34-2.34Zm-2.34,9.36H274.5v-4.68h18.72Zm-23.4,32.76h18.72V149H269.82Zm4.68-28.08h18.72v4.68H274.5ZM262.8,102.2V97.52h18.72v4.68Zm18.72-9.36H262.8V88.16h18.72Zm0-9.36H262.8V78.8h18.72Zm7.02-32.76V55.4H269.82V50.72Zm-18.72,9.36h18.72v4.68H269.82Zm0,14.04V69.44h18.72v4.68Zm4.68-35.1V36.68h14.04v2.34a7.028,7.028,0,0,1-7.02,7.02h-9.366A11.639,11.639,0,0,0,274.5,39.02Zm-9.36,11.7v23.4H251.1V50.72Zm-37.44,0h18.72V55.4H232.38v4.68h14.04v4.68H232.38v4.68h14.04v4.68H227.7ZM244.08,78.8h14.04v23.4H244.08Zm11.7,28.08h14.04v23.4H255.78Zm-4.68,28.08h14.04v23.4H251.1Zm18.72,23.4v-4.68h18.72v4.68Zm18.72-18.72H269.82v-4.68h18.72Zm-14.04-9.36V125.6h18.72v4.68Z" transform="translate(-141.5)" fill="#9dc5f2"/>
    </g>
    <g id="euro" transform="translate(408.778 4316.882)">
      <g id="Groupe_26" data-name="Groupe 26" transform="translate(-225 -332.615)">
        <g id="Groupe_25" data-name="Groupe 25">
          <path id="Tracé_306" data-name="Tracé 306" d="M151.481,155.173a8.734,8.734,0,0,1-5,1.573c-3.782,0-7.059-2.5-8.837-6.16h6.784a2.053,2.053,0,1,0,0-4.106h-8.04a12.311,12.311,0,0,1,0-4.107h10.094a2.053,2.053,0,0,0,0-4.107h-8.837c1.778-3.663,5.055-6.16,8.837-6.16a8.734,8.734,0,0,1,5,1.573,2.054,2.054,0,0,0,2.316-3.392A12.957,12.957,0,0,0,146.479,128c-6.016,0-11.166,4.258-13.305,10.266h-3.121a2.053,2.053,0,0,0,0,4.107h2.234a11.76,11.76,0,0,0,0,4.107h-2.234a2.053,2.053,0,0,0,0,4.106h3.121c2.139,6.008,7.289,10.266,13.305,10.266a12.957,12.957,0,0,0,7.318-2.287,2.054,2.054,0,1,0-2.316-3.392Z" transform="translate(-128 -128)" fill="#9dc5f2"/>
        </g>
      </g>
    </g>
  </g>
</svg>
