<svg id="epargne" xmlns="http://www.w3.org/2000/svg" width="141.867" height="141.867" viewBox="0 0 141.867 141.867">
  <g id="Groupe_28" data-name="Groupe 28" transform="translate(0 33.576)">
    <g id="Groupe_27" data-name="Groupe 27">
      <path id="Tracé_393" data-name="Tracé 393" d="M134.8,158.487l-6.436-.806a44.257,44.257,0,0,0-8.262-13.047l4.732-20.048a2.771,2.771,0,0,0-2.7-3.407h-.615A19.091,19.091,0,0,0,103.8,133.37a43.576,43.576,0,0,0-6.059-1.916,2.771,2.771,0,1,0-1.275,5.393,38.368,38.368,0,0,1,18.3,10.184,2.763,2.763,0,0,0,.672.69,38.561,38.561,0,0,1,8.326,13.449,2.771,2.771,0,0,0,2.26,1.8l8.08,1.012a2.534,2.534,0,0,1,2.216,2.51v13.97a2.534,2.534,0,0,1-2.216,2.51l-7.488.937a2.77,2.77,0,0,0-2.3,1.922,38.444,38.444,0,0,1-12.206,18.15,2.771,2.771,0,0,0-1,2.134v15.316a2.5,2.5,0,0,1-2.493,2.493H92.548a2.5,2.5,0,0,1-2.493-2.493V215.6a2.771,2.771,0,0,0-2.771-2.771H64a2.771,2.771,0,0,0-2.771,2.771v5.837a2.5,2.5,0,0,1-2.493,2.493H42.668a2.5,2.5,0,0,1-2.493-2.493V210.619a2.771,2.771,0,0,0-1.449-2.435,38.511,38.511,0,0,1,18.344-72.37h3.472a2.771,2.771,0,0,0,0-5.542H57.071a44.125,44.125,0,0,0-42.71,33.264H12.33a6.789,6.789,0,1,1,0-13.577,2.771,2.771,0,0,0,0-5.542,12.33,12.33,0,0,0,0,24.66h1.006a44.055,44.055,0,0,0,21.3,43.155v9.2a8.044,8.044,0,0,0,8.034,8.035H58.741a8.044,8.044,0,0,0,8.035-8.035v-3.066H84.512v3.066a8.044,8.044,0,0,0,8.035,8.035H108.62a8.044,8.044,0,0,0,8.034-8.035V207.4a43.955,43.955,0,0,0,12.384-18.2l5.76-.721a8.084,8.084,0,0,0,7.069-8.009V166.5A8.084,8.084,0,0,0,134.8,158.487Zm-19.352-18.263a44.184,44.184,0,0,0-6.61-4.475,13.529,13.529,0,0,1,9.718-8.694Z" transform="translate(0 -121.178)" fill="#9dc5f2"/>
    </g>
  </g>
  <g id="Groupe_30" data-name="Groupe 30" transform="translate(105.569 69.548)">
    <g id="Groupe_29" data-name="Groupe 29">
      <path id="Tracé_394" data-name="Tracé 394" d="M385.731,251.812a2.769,2.769,0,1,0,.812,1.959A2.79,2.79,0,0,0,385.731,251.812Z" transform="translate(-381.001 -251)" fill="#9dc5f2"/>
    </g>
  </g>
  <g id="Groupe_32" data-name="Groupe 32" transform="translate(78.482 16.163)">
    <g id="Groupe_31" data-name="Groupe 31">
      <path id="Tracé_395" data-name="Tracé 395" d="M286.013,58.333a2.771,2.771,0,0,0-2.771,2.771V72.094a2.771,2.771,0,0,0,5.542,0V61.1A2.771,2.771,0,0,0,286.013,58.333Z" transform="translate(-283.242 -58.333)" fill="#9dc5f2"/>
    </g>
  </g>
  <g id="Groupe_34" data-name="Groupe 34" transform="translate(78.481 6.11)">
    <g id="Groupe_33" data-name="Groupe 33">
      <path id="Tracé_396" data-name="Tracé 396" d="M287.971,22.862a2.769,2.769,0,1,0,.812,1.959A2.791,2.791,0,0,0,287.971,22.862Z" transform="translate(-283.241 -22.05)" fill="#9dc5f2"/>
    </g>
  </g>
  <g id="Groupe_36" data-name="Groupe 36" transform="translate(55.971)">
    <g id="Groupe_35" data-name="Groupe 35">
      <path id="Tracé_397" data-name="Tracé 397" d="M204.771,0A2.771,2.771,0,0,0,202,2.771v4.71a2.771,2.771,0,0,0,5.542,0V2.771A2.771,2.771,0,0,0,204.771,0Z" transform="translate(-202)" fill="#9dc5f2"/>
    </g>
  </g>
  <g id="Groupe_38" data-name="Groupe 38" transform="translate(26.029 83.948)">
    <g id="Groupe_37" data-name="Groupe 37">
      <path id="Tracé_398" data-name="Tracé 398" d="M99.48,305.74a2.771,2.771,0,1,0-5.542,0v.147a2.771,2.771,0,0,0,2.771,2.754h.017a2.771,2.771,0,0,0,2.754-2.788Z" transform="translate(-93.938 -302.969)" fill="#9dc5f2"/>
    </g>
  </g>
  <g id="Groupe_40" data-name="Groupe 40" transform="translate(27.89 94.059)">
    <g id="Groupe_39" data-name="Groupe 39">
      <path id="Tracé_399" data-name="Tracé 399" d="M116.6,353.921a25.684,25.684,0,0,1-10.586-12.681,2.771,2.771,0,0,0-5.175,1.983,31.251,31.251,0,0,0,12.88,15.432,2.771,2.771,0,1,0,2.881-4.734Z" transform="translate(-100.656 -339.46)" fill="#9dc5f2"/>
    </g>
  </g>
  <g id="Groupe_42" data-name="Groupe 42" transform="translate(47.104 13.314)">
    <g id="Groupe_41" data-name="Groupe 41">
      <path id="Tracé_400" data-name="Tracé 400" d="M181.638,48.052A11.638,11.638,0,1,0,193.275,59.69,11.651,11.651,0,0,0,181.638,48.052Zm0,17.733a6.1,6.1,0,1,1,6.1-6.1A6.1,6.1,0,0,1,181.638,65.785Z" transform="translate(-170 -48.052)" fill="#9dc5f2"/>
    </g>
  </g>
  <g id="Groupe_44" data-name="Groupe 44" transform="translate(54.863 41.008)">
    <g id="Groupe_43" data-name="Groupe 43">
      <path id="Tracé_401" data-name="Tracé 401" d="M236.792,165.733H234.3a11.637,11.637,0,1,0-19.816,0H200.771a2.771,2.771,0,0,0,0,5.542h36.021a2.771,2.771,0,0,0,0-5.542Zm-12.4,0a6.1,6.1,0,1,1,6.1-6.1A6.1,6.1,0,0,1,224.39,165.733Z" transform="translate(-198 -148)" fill="#9dc5f2"/>
    </g>
  </g>
</svg>
