<svg xmlns="http://www.w3.org/2000/svg" width="144.932" height="151.236" viewBox="0 0 144.932 151.236">
  <g id="fiscalité" transform="translate(-10.671)">
    <path id="Tracé_409" data-name="Tracé 409" d="M41.258,77.525l-12.6-12.6a3.151,3.151,0,0,0-4.455,0l-12.6,12.6a3.151,3.151,0,0,0-.926,2.231V193.181a3.151,3.151,0,0,0,3.151,3.151H39.027a3.151,3.151,0,0,0,3.151-3.151V79.756A3.151,3.151,0,0,0,41.258,77.525Z" transform="translate(0 -45.096)" fill="#9dc5f2"/>
    <path id="Tracé_410" data-name="Tracé 410" d="M168.23,149.567a3.151,3.151,0,0,0-3.434.681l-10.372,10.378-10.372-10.378a3.151,3.151,0,0,0-5.381,2.231V253.3a3.151,3.151,0,0,0,3.151,3.151h25.205a3.151,3.151,0,0,0,3.151-3.151V152.479A3.15,3.15,0,0,0,168.23,149.567Z" transform="translate(-90.191 -105.216)" fill="#9dc5f2"/>
    <path id="Tracé_411" data-name="Tracé 411" d="M296.23,192.234a3.151,3.151,0,0,0-3.434.681l-10.372,10.378-10.372-10.378a3.151,3.151,0,0,0-5.381,2.231v88.219a3.151,3.151,0,0,0,3.151,3.151h25.205a3.151,3.151,0,0,0,3.151-3.151V195.146A3.15,3.15,0,0,0,296.23,192.234Z" transform="translate(-180.383 -135.28)" fill="#9dc5f2"/>
    <path id="Tracé_412" data-name="Tracé 412" d="M397.822,298.675h25.205a3.151,3.151,0,0,1,3.151,3.151v56.712a3.151,3.151,0,0,1-3.151,3.151H397.822a3.151,3.151,0,0,1-3.151-3.151V301.826A3.151,3.151,0,0,1,397.822,298.675Z" transform="translate(-270.575 -210.453)" fill="#9dc5f2"/>
    <path id="Tracé_413" data-name="Tracé 413" d="M153.755,56.954a3.151,3.151,0,0,0-3.434.681L143.1,64.862,116.974,38.731a3.151,3.151,0,0,0-4.455,0L102.141,49.109,79.166,26.128a3.151,3.151,0,0,0-4.455,0L64.332,36.506,28.755.922a3.151,3.151,0,0,0-4.455,0l-12.6,12.6a3.151,3.151,0,0,0,4.455,4.455L26.524,7.608,62.1,43.192a3.151,3.151,0,0,0,4.455,0L76.936,32.814,99.91,55.788a3.151,3.151,0,0,0,4.455,0l10.378-10.372,23.9,23.9-7.221,7.221a3.151,3.151,0,0,0,2.224,5.381h18.9a3.151,3.151,0,0,0,3.151-3.151v-18.9A3.152,3.152,0,0,0,153.755,56.954Z" transform="translate(-0.1)" fill="#9dc5f2"/>
  </g>
</svg>
