<svg xmlns="http://www.w3.org/2000/svg" width="140.806" height="164.57" viewBox="0 0 140.806 164.57">
  <g id="Calque_2" data-name="Calque 2" transform="translate(0.007)">
    <g id="Layer_1" data-name="Layer 1" transform="translate(-0.007)">
      <path id="Tracé_420" data-name="Tracé 420" d="M202.01,233.34H159.944a1.5,1.5,0,0,0-1.5,1.5v3.007a1.5,1.5,0,0,0,3,0v-1.5H202.01a1.5,1.5,0,1,0,0-3.007Z" transform="translate(-101.31 -149.207)" fill="#9dc5f2"/>
      <path id="Tracé_421" data-name="Tracé 421" d="M191.77,85.518a1.5,1.5,0,0,0,1.5,1.5h6.011a1.5,1.5,0,0,0,1.5-1.5V76.5a1.5,1.5,0,0,0-1.5-1.5h-6.011a1.5,1.5,0,0,0-1.5,1.5v9.014Zm3.007-7.51h3v6.007h-3Z" transform="translate(-122.623 -47.958)" fill="#9dc5f2"/>
      <path id="Tracé_422" data-name="Tracé 422" d="M119.631,50H101.6a1.5,1.5,0,0,0-1.5,1.5V81.553a1.5,1.5,0,1,0,3.007,0V53.007h16.524a1.5,1.5,0,1,0,0-3.007Z" transform="translate(-64.005 -31.972)" fill="#9dc5f2"/>
      <path id="Tracé_423" data-name="Tracé 423" d="M300.11,185.521a1.5,1.5,0,0,0,1.5,1.5h6.029a1.5,1.5,0,0,0,1.5-1.5v-9.014a1.5,1.5,0,0,0-1.5-1.507h-6.029a1.5,1.5,0,0,0-1.5,1.5Zm3.007-7.514h3v6.007h-3Z" transform="translate(-191.9 -111.902)" fill="#9dc5f2"/>
      <path id="Tracé_424" data-name="Tracé 424" d="M107.614,150c-7.428,0-7.514,19.333-7.514,19.531a7.528,7.528,0,0,0,6.011,7.359v7.665a1.5,1.5,0,0,0,3,0v-7.662a7.525,7.525,0,0,0,6.011-7.359C115.125,169.337,115.042,150,107.614,150Zm0,24.038a4.514,4.514,0,0,1-4.507-4.507c0-7.485,2.008-16.528,4.507-16.528s4.507,9.043,4.507,16.528a4.514,4.514,0,0,1-4.507,4.511Z" transform="translate(-64.005 -95.916)" fill="#9dc5f2"/>
      <path id="Tracé_425" data-name="Tracé 425" d="M132.62,125H126.61a1.5,1.5,0,0,0-1.5,1.5v3.007a1.5,1.5,0,0,0,3,0V128h3v7.51a1.5,1.5,0,0,0,3.007,0V126.5A1.5,1.5,0,0,0,132.62,125Z" transform="translate(-79.998 -79.93)" fill="#9dc5f2"/>
      <path id="Tracé_426" data-name="Tracé 426" d="M301.613,87.021h6.029a1.5,1.5,0,0,0,1.5-1.5V76.5a1.5,1.5,0,0,0-1.5-1.5h-6.029a1.5,1.5,0,0,0-1.5,1.5v9.014A1.5,1.5,0,0,0,301.613,87.021Zm1.5-9.014h3v6.007h-3Z" transform="translate(-191.9 -47.958)" fill="#9dc5f2"/>
      <path id="Tracé_427" data-name="Tracé 427" d="M132.62,75H126.61a1.5,1.5,0,0,0-1.5,1.5v9.014a1.5,1.5,0,0,0,1.5,1.5h6.011a1.5,1.5,0,0,0,1.5-1.5V76.5A1.5,1.5,0,0,0,132.62,75Zm-1.5,9.014h-3V78.007h3Z" transform="translate(-79.998 -47.958)" fill="#9dc5f2"/>
      <path id="Tracé_428" data-name="Tracé 428" d="M233.44,85.518a1.5,1.5,0,0,0,1.5,1.5h6.011a1.5,1.5,0,0,0,1.5-1.5V76.5a1.5,1.5,0,0,0-1.5-1.5h-6.011a1.5,1.5,0,0,0-1.5,1.5Zm3.007-7.51h3v6.007h-3Z" transform="translate(-149.268 -47.958)" fill="#9dc5f2"/>
      <path id="Tracé_429" data-name="Tracé 429" d="M311.361,50H293.333a1.5,1.5,0,1,0,0,3.007h16.524v60.372a4.41,4.41,0,0,0-1.5-.278,4.276,4.276,0,0,0-.775.069,6,6,0,0,0-10.474,0,4.239,4.239,0,0,0-.772-.069,4.507,4.507,0,0,0,0,9.014h12.021a4.514,4.514,0,0,0,4.507-4.507V51.5A1.5,1.5,0,0,0,311.361,50Zm-3,69.112H296.319a1.5,1.5,0,1,1,0-3.007,1.486,1.486,0,0,1,.815.245,1.5,1.5,0,0,0,2.279-.923,2.993,2.993,0,0,1,5.834,0,1.5,1.5,0,0,0,2.279.923,1.532,1.532,0,0,1,2.315,1.258,1.5,1.5,0,0,1-1.5,1.5Z" transform="translate(-186.605 -31.972)" fill="#9dc5f2"/>
      <path id="Tracé_430" data-name="Tracé 430" d="M234.944,37.021h6.011a1.5,1.5,0,0,0,1.5-1.5V26.5a1.5,1.5,0,0,0-1.5-1.5h-6.011a1.5,1.5,0,0,0-1.5,1.5v9.014a1.5,1.5,0,0,0,1.5,1.5Zm1.5-9.014h3v6.007h-3Z" transform="translate(-149.268 -15.986)" fill="#9dc5f2"/>
      <path id="Tracé_431" data-name="Tracé 431" d="M233.44,135.524a1.5,1.5,0,0,0,1.5,1.5h6.011a1.5,1.5,0,0,0,1.5-1.5V126.51a1.5,1.5,0,0,0-1.5-1.5h-6.011a1.5,1.5,0,0,0-1.5,1.5Zm3.007-7.51h3v6.007h-3Z" transform="translate(-149.268 -79.937)" fill="#9dc5f2"/>
      <path id="Tracé_432" data-name="Tracé 432" d="M193.28,37.021h6.011a1.5,1.5,0,0,0,1.5-1.5V26.5a1.5,1.5,0,0,0-1.5-1.5H193.28a1.5,1.5,0,0,0-1.5,1.5v9.014a1.5,1.5,0,0,0,1.5,1.5Zm1.5-9.014h3v6.007h-3Z" transform="translate(-122.629 -15.986)" fill="#9dc5f2"/>
      <path id="Tracé_433" data-name="Tracé 433" d="M221.376,200.481a1.5,1.5,0,1,0,2.134,0,1.576,1.576,0,0,0-2.135,0Z" transform="translate(-141.275 -127.93)" fill="#9dc5f2"/>
      <path id="Tracé_434" data-name="Tracé 434" d="M191.77,135.524a1.5,1.5,0,0,0,1.5,1.5h6.011a1.5,1.5,0,0,0,1.5-1.5V126.51a1.5,1.5,0,0,0-1.5-1.5h-6.011a1.5,1.5,0,0,0-1.5,1.5v9.014Zm3.007-7.51h3v6.007h-3Z" transform="translate(-122.623 -79.936)" fill="#9dc5f2"/>
      <path id="Tracé_435" data-name="Tracé 435" d="M183.44,176.507a1.5,1.5,0,0,0,1.5,1.5h4.507v13.521a1.5,1.5,0,1,0,3,0V178.01h12.021v13.521a1.5,1.5,0,1,0,3,0V178.01h4.507a1.5,1.5,0,1,0,0-3H184.944A1.5,1.5,0,0,0,183.44,176.507Z" transform="translate(-117.296 -111.905)" fill="#9dc5f2"/>
      <path id="Tracé_436" data-name="Tracé 436" d="M300.11,135.518a1.5,1.5,0,0,0,1.5,1.5h6.029a1.5,1.5,0,0,0,1.5-1.5V126.5a1.5,1.5,0,0,0-1.5-1.5h-6.029a1.5,1.5,0,0,0-1.5,1.5Zm3.007-7.51h3v6.007h-3Z" transform="translate(-191.9 -79.93)" fill="#9dc5f2"/>
      <path id="Tracé_437" data-name="Tracé 437" d="M207.337,0H168.274a1.5,1.5,0,0,0-1.5,1.5V79.626a1.5,1.5,0,0,0,3.007,0V3h36.056V79.626a1.5,1.5,0,0,0,3.007,0V1.5A1.5,1.5,0,0,0,207.337,0Z" transform="translate(-106.637)" fill="#9dc5f2"/>
      <path id="Tracé_438" data-name="Tracé 438" d="M125.142,286.481l-.8.433c-2.884-3.606-7.932-5.048-11.79-3.05l-.04.018-1.86,1.017a13,13,0,0,0-14.718-1.442l-9.234,5.1H74.422a17.6,17.6,0,0,1-7.7-1.8l-1.687-.826a28.459,28.459,0,0,0-30,2.975,1.308,1.308,0,0,0-.108.09l-4.071,3.678a14.145,14.145,0,0,1-5.462,3.076l-2.351-7.828a1.72,1.72,0,0,0-1.648-1.226H1.711A1.716,1.716,0,0,0,0,288.41a1.962,1.962,0,0,0,0,.206l6.562,54.639a1.72,1.72,0,0,0,1.705,1.514H37.789a1.716,1.716,0,0,0,1.716-1.716,1.741,1.741,0,0,0-.072-.494l-3.9-13.045L47.7,321.7a7.28,7.28,0,0,1,5.376-.721l.108.025,24.572,4.6a31.289,31.289,0,0,0,19.589-2.8,1.531,1.531,0,0,0,.209-.126l42.506-29.62a1.716,1.716,0,0,0,.5-2.282,11.462,11.462,0,0,0-15.418-4.273Zm-11,.443c2.214-1.125,5.21-.324,7.125,1.695l-16.308,8.938-1.053.544a14.087,14.087,0,0,0-2.344-4.327Zm-16.524-.462.04-.022a9.424,9.424,0,0,1,9.67.3l-8.343,4.547a13.748,13.748,0,0,0-5.628-2.488ZM9.8,341.333l-6.13-51.2H20.118l15.371,51.2Zm85.9-21.547a27.824,27.824,0,0,1-17.307,2.445l-24.518-4.586a10.676,10.676,0,0,0-7.9,1.082l-.079.047L34.5,326.092,26.377,299.05a17.668,17.668,0,0,0,6.789-3.833l4.017-3.634A25.052,25.052,0,0,1,63.529,289l1.684.829a21.017,21.017,0,0,0,9.209,2.138H90.77a10.507,10.507,0,0,1,10.283,8.823l-12-.53a69.947,69.947,0,0,0-12.879.606,1.717,1.717,0,0,0,.429,3.407h.05a66.493,66.493,0,0,1,12.241-.577l13.946.642h.076a1.723,1.723,0,0,0,1.72-1.72c0-.332-.018-.66-.04-.984l1.99-1.082,20.191-11.066a8.019,8.019,0,0,1,9.876,1.727Z" transform="translate(0.007 -180.199)" fill="#9dc5f2"/>
      <path id="Tracé_439" data-name="Tracé 439" d="M43.929,415.015a5.654,5.654,0,1,0,1.634-4.037,5.654,5.654,0,0,0-1.634,4.037Zm5.654-2.282a2.282,2.282,0,1,1-2.217,2.344v-.061A2.257,2.257,0,0,1,49.583,412.733Z" transform="translate(-28.087 -261.723)" fill="#9dc5f2"/>
    </g>
  </g>
</svg>
