<svg xmlns="http://www.w3.org/2000/svg" width="794.8" height="808.987" viewBox="0 0 794.8 808.987">
  <g id="Calque_2" data-name="Calque 2" transform="translate(0)">
    <g id="Layer_1" data-name="Layer 1" transform="translate(0)">
      <path id="Tracé_352" data-name="Tracé 352" d="M649.527,1191.378c-.04,6.831-97.87,11.831-218.584,11.165s-218.484-6.758-218.444-13.589,97.87-11.838,218.583-11.165S649.587,1184.567,649.527,1191.378Z" transform="translate(-71.021 -393.616)" fill="#fff"/>
      <path id="Tracé_353" data-name="Tracé 353" d="M510.927,629.156c163.21,13.982,303.318-65.953,312.952-178.5,2.41-28.169-3.589-55.713-16.485-81.4,43.136-9.641,74.828-36.372,77.73-70.3,3.995-46.365-47.317-88.609-114.515-94.362-50.02-4.281-94.774,12.85-116.039,40.986A415.221,415.221,0,0,0,545.827,221.61c-163.2-13.981-303.318,65.959-312.918,178.5S347.723,615.195,510.927,629.156Z" transform="translate(-90.542 -1.64)" fill="#fff"/>
      <path id="Tracé_354" data-name="Tracé 354" d="M220.65,605.262c47.783-18.123,71.352,13.981,42.217,55.44l-7.57-9.94a38.712,38.712,0,0,0,13.2-17.683c8.429-23.828-17.976-37.044-41.425-19.374Z" transform="translate(-73.744 -200.558)"/>
      <path id="Tracé_355" data-name="Tracé 355" d="M140.043,749.675,49.23,630.427,150.862,570.16l77.3,101.505Z" transform="translate(-16.453 -190.556)"/>
      <path id="Tracé_356" data-name="Tracé 356" d="M303.957,557.82c-6.778,5.033-6.565,8.216-10.732,9.374-6.112,1.691-17.364,2.736-26.9,12.563s-10.719,12.071-.533,21.971a53.69,53.69,0,0,1,8.136,9.507,6.984,6.984,0,0,0,7.75,3.056c26.731-7.324,3.462-14.341,33.955-33.343,1.585-.985,3.382-2.084,5.366-3.276a81.526,81.526,0,0,0-17.044-19.854Z" transform="translate(-86.445 -186.432)" fill="#fc7575"/>
      <path id="Tracé_357" data-name="Tracé 357" d="M944.71,781.151l31.611-24.6,20.759,62.777L970.9,788.255,948.7,794.912Z" transform="translate(-315.737 -252.851)"/>
      <path id="Tracé_358" data-name="Tracé 358" d="M585.868,605.83l-98.123,43.489L369.562,779.939l-59,190.96,27.863,10.826,82.085-187.192,174.955-169.1Z" transform="translate(-103.794 -202.478)" fill="#333"/>
      <path id="Tracé_359" data-name="Tracé 359" d="M597.47,642.154l62.8,201.034,193.477-79.275L829.2,732.794l-128.3,42.118L691.352,635.27Z" transform="translate(-199.684 -212.317)" fill="#666"/>
      <path id="Tracé_360" data-name="Tracé 360" d="M283.553,1154.16l-1.864,5.6-60.959,5.6,79,21.145,6.265-25Z" transform="translate(-73.771 -385.739)"/>
      <path id="Tracé_361" data-name="Tracé 361" d="M320.282,553.5l-6.152,11.092,13.975,20.14,14.98-8.6Z" transform="translate(-104.987 -184.988)" fill="#fff"/>
      <path id="Tracé_362" data-name="Tracé 362" d="M368.22,399.016c31.239-56.032,35.952-125.773,54.734-142.391a13.983,13.983,0,0,1,3.895-2.27c7.151-2,4.3,55.586,4.421,63.915-4.534,23.922,2.164,102.777-87.5,166.446-3.8-5.087-22.4-26.185-25.773-31.545C331.629,439.675,350.67,430.481,368.22,399.016Z" transform="translate(-106.28 -84.992)" fill="#666"/>
      <path id="Tracé_363" data-name="Tracé 363" d="M520.356,426.392C496.894,338.442,459.5,264.606,475.576,248.5c0,0,25.559-15.213,36.844-18.589,16.831-5.033,45.273-3.229,72.337,41.578,12.3,20.413,6.025,71.638,15.213,115.7s33.855,80.933,41.645,114.069c-47.99,12.59-53.655,13.682-100.214,25.912C536.581,512.011,527.733,454.042,520.356,426.392Z" transform="translate(-157.643 -76.189)" fill="#fff"/>
      <path id="Tracé_364" data-name="Tracé 364" d="M470.181,251.1s-10.3,13.282-10.872,37.837c-.333,13.981,32.87,87.537,47.976,152.671,11.425,49.268,5.38,95.66,7.211,96.539,4.254,2.117,26.492,4.993,26.492,4.993l-10.812-148.47-47.1-104.315c-2.71-11.818-3.329-27.064-.513-38.689,1.411-5.832,4.208-8.475,6.964-13.9h0Z" transform="translate(-153.507 -79.463)" fill="#666"/>
      <path id="Tracé_365" data-name="Tracé 365" d="M488.1,176.805l3.928,44.268c.8,9.095,6.984,15.792,14.161,15.426,1.818-.093,3.722-.266,5.639-.559,9.614-1.485,18.642-9.987,16.758-22.071-2.41-15.506-7.989-41.279-7.8-54.887C521.05,136.732,488.16,165.454,488.1,176.805Z" transform="translate(-163.13 -50.386)" fill="#fc7575"/>
      <path id="Tracé_366" data-name="Tracé 366" d="M520.773,158.982c.293-22.251-32.624,6.471-32.624,17.823l2.277,25.872a78.2,78.2,0,0,0,16.811-4.747c8.775-3.768,9.4-15.313,14.587-18.555a5.677,5.677,0,0,0,.812-.626A131.165,131.165,0,0,1,520.773,158.982Z" transform="translate(-163.147 -50.386)" fill="#fd5e5a"/>
      <path id="Tracé_367" data-name="Tracé 367" d="M424.27,79.5c9.454,6.318,27.963,15.493,34.927,6.358-6.212,10.459-26.711,3.435-37.4-1.838Z" transform="translate(-140.972 -26.57)"/>
      <path id="Tracé_368" data-name="Tracé 368" d="M461.413,119.689s-11.618-9.121-9.7-1.172,7.677,25.033,13.848,18.342S461.413,119.689,461.413,119.689Z" transform="translate(-150.898 -38.523)" fill="#fd5e5a"/>
      <path id="Tracé_369" data-name="Tracé 369" d="M489.011,64.19c-1.585,1.631-18.888.24-24.634,18.9s.5,61.479,11.451,73.017,23.589,4.394,33.449-14.9,28.975-44.055,15.14-62.55C517.04,68.831,489.011,64.19,489.011,64.19Z" transform="translate(-154.474 -21.453)" fill="#fc7575"/>
      <path id="Tracé_370" data-name="Tracé 370" d="M470.846,169.884s5.06,12.51,0,17.783,14.547,7.324,21.139,5.506,15.013-3.655,17.677-5.679c4.414-3.329,4.714-46.478.932-36.4s-12.7,27.79-16.4,27.77-8.449.952-12.2.952S470.846,169.884,470.846,169.884Z" transform="translate(-157.088 -49.99)"/>
      <path id="Tracé_371" data-name="Tracé 371" d="M472.514,58.405c-1.631,9.827-11.072,23.3-33.336,8.4s-17.756-33.549-17.756-33.549S432.667,48.738,439.611,45.5s2-21.631,2-21.631,25.187-1.831,29.907-1.8,9.441,15.466,9.441,15.466-3.189-6.9,21.685-9.068,10.093,36.618,12.85,50.074-14.274,37.151-14.314,45.02a21.3,21.3,0,0,0,3.995,12.81s-5.36,1.285-9.987-12.517,4.095-34.062,4.154-44.554c.073-12.756-5.633-17.364-10.7-21.305C484.891,55.01,474.139,48.571,472.514,58.405Z" transform="translate(-140.721 -7.373)"/>
      <path id="Tracé_372" data-name="Tracé 372" d="M534.892,122.229s-9.188,17.437-2.743,16.105S551.33,128.074,548.6,115.6,534.892,122.229,534.892,122.229Z" transform="translate(-177.086 -37.221)" fill="#fc7575"/>
      <path id="Tracé_373" data-name="Tracé 373" d="M536.147,125.675s5.646-5.533,7.51-3.575c4.341,4.574-10.06,17.5-10.047,14.028S536.147,125.675,536.147,125.675Z" transform="translate(-178.341 -40.668)" fill="#fd5e5a"/>
      <path id="Tracé_374" data-name="Tracé 374" d="M500.1,118.96c0,2.663-1.551,4.827-3.422,4.82s-3.389-2.19-3.369-4.86,1.545-4.827,3.422-4.82S500.114,116.284,500.1,118.96Z" transform="translate(-164.872 -38.134)" fill="#330"/>
      <path id="Tracé_375" data-name="Tracé 375" d="M470.371,118.794c0,2.663-1.545,4.834-3.422,4.82s-3.382-2.184-3.369-4.854,1.551-4.834,3.422-4.82S470.391,116.124,470.371,118.794Z" transform="translate(-154.935 -38.081)" fill="#330"/>
      <path id="Tracé_376" data-name="Tracé 376" d="M498.025,96.293,497,99.409a7.838,7.838,0,0,1,8.442,2.623C505.415,102,502.153,95.594,498.025,96.293Z" transform="translate(-166.105 -32.165)"/>
      <path id="Tracé_377" data-name="Tracé 377" d="M463.66,103.93s3.655-2.45,6.152-2.437L468.48,99.15S463.68,101.254,463.66,103.93Z" transform="translate(-154.962 -33.138)"/>
      <path id="Tracé_378" data-name="Tracé 378" d="M457.981,107.97l-10.619-.06c-3.415,0-6.205,3.089-6.225,6.937l-.047,8.309c0,3.848,2.73,6.984,6.152,7l10.619.06c3.415,0,6.205-3.089,6.225-6.937l.047-8.309C464.153,111.139,461.4,108,457.981,107.97Zm3.249,15.313a3.559,3.559,0,0,1-3.329,3.735l-10.619-.06a3.581,3.581,0,0,1-3.329-3.768l.047-8.309a3.55,3.55,0,0,1,3.329-3.735l10.619.053a3.583,3.583,0,0,1,3.329,3.775Z" transform="translate(-147.419 -36.065)"/>
      <path id="Tracé_379" data-name="Tracé 379" d="M505.211,107.853l-12.37-.073a7.171,7.171,0,0,0-7.244,7.1l-.047,8.509a7.17,7.17,0,0,0,7.17,7.17l12.364.067a7.177,7.177,0,0,0,7.25-7.1l.047-8.509A7.177,7.177,0,0,0,505.211,107.853Zm3.8,15.666a3.862,3.862,0,0,1-3.9,3.822l-12.37-.067a3.875,3.875,0,0,1-3.862-3.862l.047-8.515a3.868,3.868,0,0,1,3.908-3.822l12.364.067a3.868,3.868,0,0,1,3.862,3.868Z" transform="translate(-162.278 -36.022)"/>
      <path id="Tracé_380" data-name="Tracé 380" d="M475.848,145.254c0-.166-4.474-13.728,1.371-34.9a.832.832,0,0,1,1.6.433c-.053.193-5.08,18.755-1.764,32.537,4.887-.746,6.7-2,7-.606S482.193,143.656,475.848,145.254Z" transform="translate(-158.489 -36.691)"/>
      <rect id="Rectangle_41" data-name="Rectangle 41" width="8.589" height="3.023" transform="matrix(1, 0.005, -0.005, 1, 315.496, 79.21)"/>
      <path id="Tracé_381" data-name="Tracé 381" d="M482.443,0c7.457.333,15.033,3.582,18.489,10.193,3.083,5.886,2.437,11.139,2.237,15.193l-.872,4.907-1.645-.28a45.326,45.326,0,0,0,0-9.474c-1.4-10.553-8.529-15.273-18.242-14.634Z" transform="translate(-161.229)"/>
      <path id="Tracé_382" data-name="Tracé 382" d="M545.74,227.15l2.33,165.96L557.178,438l61.092,87.378s53.4-12.8,65.347-23.642c0,0-28.422-58.689-44.914-114.874-12.65-43.2-13.708-84.927-17.35-97.351C612.971,260.952,607.125,224.281,545.74,227.15Z" transform="translate(-182.395 -75.864)" fill="#666"/>
      <path id="Tracé_383" data-name="Tracé 383" d="M600.548,252.526c-44.421-19.874-44.994,127.531-44.994,137.451,0,1.871-2.477,2.031-6.585,1.052l.18,9.987,7.943,39.148c6.5.919,11.5.313,14.128-2.483,14.334-15.273,39.947-127.165,39.947-157.724,0-8.535-.826-14.441-2-18.522a54.688,54.688,0,0,0-6.591-8.855A4.121,4.121,0,0,0,600.548,252.526Z" transform="translate(-183.474 -83.783)" fill="#333"/>
      <path id="Tracé_384" data-name="Tracé 384" d="M485.2,174.611a.666.666,0,0,1,0-1.332c.126,0,12.157.14,15.26-6.065a.666.666,0,0,1,1.192.593C499.057,173.019,490.882,174.67,485.2,174.611Z" transform="translate(-161.937 -55.768)"/>
      <path id="Tracé_385" data-name="Tracé 385" d="M404.193,391.892c-17.31-5.326-13.669-24.341-19.974-30.673s-27.337-9.987-27.337-1.332-17.976,25.333-10.653,32.67,34,15.979,48,20.639a46.342,46.342,0,0,1,6.332,3c3.875-7.25,7.91-14.414,10.985-21.924C408.66,393.323,406.177,392.5,404.193,391.892Z" transform="translate(-115.129 -118.574)" fill="#fc7575"/>
      <path id="Tracé_386" data-name="Tracé 386" d="M426.475,404.17,418.04,430.8l24.188,15.28,11.525-31.259Z" transform="translate(-139.715 -135.08)" fill="#fff"/>
      <path id="Tracé_387" data-name="Tracé 387" d="M551.579,242.406c-44.421-18.642-48.01,120.021-48.01,129.355,0,8.269-45.313-13.136-67.4-20.679-3.076,7.51-9.927,27.816-13.8,35.067,23.582,12.7,93.683,49.135,106.525,36.279,14.334-14.334,39.947-119.342,39.947-148.017S551.579,242.406,551.579,242.406Z" transform="translate(-141.162 -80.44)" fill="#666"/>
      <path id="Tracé_388" data-name="Tracé 388" d="M592.189,242.164c-6.478-2.2-12.344-1.565-17.523,2.577-21.8,17.6-28.136,97.95-30.486,126.779-1.831-31.525,4.141-120.886,33.789-130.6C581.5,239.481,586.856,239.481,592.189,242.164Z" transform="translate(-181.773 -80.198)" fill="#333"/>
      <path id="Tracé_389" data-name="Tracé 389" d="M608.71,557.82l38.615,60.6,37.284-16.425-35.952,12.53Z" transform="translate(-203.44 -186.432)" fill="#333"/>
      <path id="Tracé_390" data-name="Tracé 390" d="M713.647,978.333c-24.368,0-48.169-24.568-49.175-25.613a1,1,0,1,1,1.445-1.378c.24.246,24.221,24.994,47.73,24.994,23.709,0,121.326-48.675,122.311-49.168a1,1,0,1,1,.892,1.791C832.816,930.975,737.828,978.333,713.647,978.333Z" transform="translate(-221.978 -309.839)"/>
      <path id="Tracé_391" data-name="Tracé 391" d="M25.872,700.277a1.018,1.018,0,0,1-.806-.406C3.249,670.27-4.381,648.838,2.39,636.2,8.735,624.331,25.22,625,25.919,625a1,1,0,0,1-.093,2c-.16,0-15.939-.6-21.685,10.146-6.272,11.738,1.518,33.016,22.537,61.538a1.005,1.005,0,0,1-.806,1.591Z" transform="translate(0 -208.882)"/>
      <path id="Tracé_392" data-name="Tracé 392" d="M694.333,297.93h-.18a1,1,0,0,1-.806-1.158c4.441-25-8.162-45.739-19.521-58.742a126.088,126.088,0,0,0-26.1-22.537,1,1,0,1,1,1.032-1.7,127.831,127.831,0,0,1,26.531,22.91c16.7,19.121,23.609,40.007,19.974,60.407A1,1,0,0,1,694.333,297.93Z" transform="translate(-216.299 -71.391)"/>
    </g>
  </g>
</svg>
