<svg xmlns="http://www.w3.org/2000/svg" width="140.463" height="140.533" viewBox="0 0 140.463 140.533">
  <g id="Groupe_61" data-name="Groupe 61" transform="translate(-164.81 -3539.8)">
    <g id="retraite" transform="translate(163.81 3538.8)">
      <path id="Tracé_403" data-name="Tracé 403" d="M44.5,26.488,39.514,22.75l-4.982,3.738A52.454,52.454,0,0,1,3.266,36.91H1V65.247A50.046,50.046,0,0,0,38.966,113.87l.548.138.548-.14a50.041,50.041,0,0,0,37.966-48.62V36.91H75.762A52.442,52.442,0,0,1,44.5,26.488Zm29,38.759a45.521,45.521,0,0,1-33.983,44.087A45.521,45.521,0,0,1,5.531,65.247V41.393a57.034,57.034,0,0,0,31.72-11.28l2.263-1.7,2.266,1.7A57.02,57.02,0,0,0,73.5,41.393Z" transform="translate(0 27.525)" fill="#9dc5f2"/>
      <path id="Tracé_404" data-name="Tracé 404" d="M138.98,17.969,129.308,8.3A24.761,24.761,0,0,0,111.687,1H60.393A20.413,20.413,0,0,0,49.9,3.9L46.311,6.061V1H1V41.779H46.311V37.248H54.7a29.132,29.132,0,0,0,15.634,4.531H73.5v9.062a9.062,9.062,0,1,0,18.124,0V40.52a8.844,8.844,0,0,0,3.994-10.757,8.957,8.957,0,0,1,5.068-1.577,9.071,9.071,0,0,1,9.062,9.062v86.09h-4.184l-3.022,18.124h32.535l-3.022-18.124H127.87V37.248a27.234,27.234,0,0,0-.893-6.8,8.517,8.517,0,0,0,5.73,2.268h.283a8.483,8.483,0,0,0,8.473-8.473v-.283a8.529,8.529,0,0,0-2.483-5.992Zm-97.2,19.28H5.531V5.531H41.78ZM87.09,50.842a4.531,4.531,0,1,1-9.062,0V41.779H87.09Zm41.126,77.028,1.509,9.062H107.888l1.509-9.062h18.82Zm-13.94-4.531V37.248a13.607,13.607,0,0,0-13.593-13.593A13.433,13.433,0,0,0,93.119,26a9,9,0,0,0-6.029-2.345H81.231l2.54-2.54a6.752,6.752,0,0,1,4.807-1.991h24.209a6.766,6.766,0,0,1,2.458.471l-.147.177a22.588,22.588,0,0,1,8.24,17.476v86.09Zm22.655-99.094a3.945,3.945,0,0,1-3.942,3.942h-.283a3.968,3.968,0,0,1-2.787-1.155L120.8,17.912a11.266,11.266,0,0,0-8.013-3.319H88.578a11.257,11.257,0,0,0-8.011,3.319l-5.743,5.743H71.231v4.531H87.09a4.531,4.531,0,0,1,0,9.062H70.336A24.651,24.651,0,0,1,56.628,33.1l-.569-.381H46.311V11.344L52.23,7.79a15.9,15.9,0,0,1,8.163-2.259h51.3A20.265,20.265,0,0,1,126.107,11.5l9.672,9.672a3.968,3.968,0,0,1,1.155,2.787v.283Z" fill="#9dc5f2"/>
      <path id="Tracé_405" data-name="Tracé 405" d="M5,59.452A29.452,29.452,0,1,0,34.452,30,29.486,29.486,0,0,0,5,59.452Zm54.373,0A24.921,24.921,0,1,1,34.452,34.531,24.95,24.95,0,0,1,59.373,59.452Z" transform="translate(5.062 36.7)" fill="#9dc5f2"/>
    </g>
    <g id="euro" transform="translate(412.778 3951.882)">
      <g id="Groupe_26" data-name="Groupe 26" transform="translate(-225 -332.615)">
        <g id="Groupe_25" data-name="Groupe 25">
          <path id="Tracé_306" data-name="Tracé 306" d="M151.481,155.173a8.734,8.734,0,0,1-5,1.573c-3.782,0-7.059-2.5-8.837-6.16h6.784a2.053,2.053,0,1,0,0-4.106h-8.04a12.311,12.311,0,0,1,0-4.107h10.094a2.053,2.053,0,0,0,0-4.107h-8.837c1.778-3.663,5.055-6.16,8.837-6.16a8.734,8.734,0,0,1,5,1.573,2.054,2.054,0,0,0,2.316-3.392A12.957,12.957,0,0,0,146.479,128c-6.016,0-11.166,4.258-13.305,10.266h-3.121a2.053,2.053,0,0,0,0,4.107h2.234a11.76,11.76,0,0,0,0,4.107h-2.234a2.053,2.053,0,0,0,0,4.106h3.121c2.139,6.008,7.289,10.266,13.305,10.266a12.957,12.957,0,0,0,7.318-2.287,2.054,2.054,0,1,0-2.316-3.392Z" transform="translate(-128 -128)" fill="#9dc5f2"/>
        </g>
      </g>
    </g>
  </g>
</svg>
