<svg xmlns="http://www.w3.org/2000/svg" width="141.818" height="155.269" viewBox="0 0 141.818 155.269">
  <g id="transmission" transform="translate(-22.178)">
    <g id="Groupe_46" data-name="Groupe 46" transform="translate(22.178)">
      <g id="Groupe_45" data-name="Groupe 45">
        <path id="Tracé_414" data-name="Tracé 414" d="M234.273,304.154a9.913,9.913,0,1,0-9.913-9.913A9.925,9.925,0,0,0,234.273,304.154Zm0-15.277a5.364,5.364,0,1,1-5.364,5.364A5.37,5.37,0,0,1,234.273,288.877Z" transform="translate(-163.047 -198.103)" fill="#9dc5f2"/>
        <path id="Tracé_415" data-name="Tracé 415" d="M364.315,32.857a16.429,16.429,0,1,0-16.428-16.429A16.447,16.447,0,0,0,364.315,32.857Zm0-28.308a11.879,11.879,0,1,1-11.879,11.88A11.893,11.893,0,0,1,364.315,4.549Z" transform="translate(-249.113)" fill="#9dc5f2"/>
        <path id="Tracé_416" data-name="Tracé 416" d="M365.252,138a2.274,2.274,0,0,0-2.274,2.274V171.4a1.471,1.471,0,0,1-1.469,1.469h-5.55V132.718a2.274,2.274,0,1,0-4.549,0v96.389a1.471,1.471,0,0,1-1.469,1.469h-5.286a1.471,1.471,0,0,1-1.469-1.469V192.922a2.274,2.274,0,1,0-4.549,0v36.185a1.471,1.471,0,0,1-1.469,1.469h-5.286a1.471,1.471,0,0,1-1.469-1.469V132.718a2.274,2.274,0,1,0-4.549,0v40.149h-5.55a1.47,1.47,0,0,1-1.469-1.467V132.711a13.563,13.563,0,0,1,13.547-13.547h17.036a13.563,13.563,0,0,1,13.547,13.547,2.274,2.274,0,1,0,4.549,0,18.117,18.117,0,0,0-18.1-18.1H332.393a18.117,18.117,0,0,0-18.1,18.1V171.4a6.025,6.025,0,0,0,6.018,6.015h5.55v51.691a6.025,6.025,0,0,0,6.018,6.018h5.286a5.985,5.985,0,0,0,3.743-1.314,5.985,5.985,0,0,0,3.744,1.314h5.286a6.024,6.024,0,0,0,6.018-6.018V177.416h5.55a6.025,6.025,0,0,0,6.018-6.018V140.274A2.274,2.274,0,0,0,365.252,138Z" transform="translate(-225.709 -79.856)" fill="#9dc5f2"/>
        <path id="Tracé_417" data-name="Tracé 417" d="M62.409,78.705A16.429,16.429,0,1,0,45.981,62.277,16.447,16.447,0,0,0,62.409,78.705Zm0-28.308A11.879,11.879,0,1,1,50.53,62.277,11.893,11.893,0,0,1,62.409,50.4Z" transform="translate(-38.763 -31.944)" fill="#9dc5f2"/>
        <path id="Tracé_418" data-name="Tracé 418" d="M53.305,161.237H38.346A16.186,16.186,0,0,0,22.178,177.4v33.973a5.568,5.568,0,0,0,5.561,5.559h.069l-1.575,14.33a2.274,2.274,0,0,0,2.261,2.523h3.841v28.259a5.568,5.568,0,0,0,5.561,5.561h4.642a5.525,5.525,0,0,0,3.287-1.085,5.525,5.525,0,0,0,3.287,1.085h4.642a5.568,5.568,0,0,0,5.561-5.561V249.488a2.274,2.274,0,1,0-4.549,0v12.559a1.013,1.013,0,0,1-1.012,1.012H49.113a1.014,1.014,0,0,1-1.013-1.012V237.753a2.274,2.274,0,1,0-4.549,0v24.294a1.013,1.013,0,0,1-1.012,1.012H37.9a1.013,1.013,0,0,1-1.012-1.012V233.789H54.766v8.418a2.274,2.274,0,1,0,4.549,0v-8.418h3.84a2.275,2.275,0,0,0,2.261-2.523l-1.575-14.33h.069a5.567,5.567,0,0,0,5.561-5.561V177.4A16.186,16.186,0,0,0,53.305,161.237Zm11.618,50.138h0a1.014,1.014,0,0,1-1.013,1.012h-.569l-4.164-37.894a2.275,2.275,0,0,0-4.522.5l5.961,54.25H31.033l5.961-54.25a2.275,2.275,0,0,0-4.522-.5l-4.164,37.894H27.74a1.013,1.013,0,0,1-1.012-1.011V177.4a11.632,11.632,0,0,1,11.618-11.618H53.305A11.632,11.632,0,0,1,64.923,177.4v33.97Z" transform="translate(-22.178 -112.34)" fill="#9dc5f2"/>
        <path id="Tracé_419" data-name="Tracé 419" d="M220.755,324.754a6.057,6.057,0,0,0-4.253,1.92l-8.483,9.033h-8.781l-8.483-9.034a6.1,6.1,0,0,0-8.889,8.347l9.835,10.473v30.1a5.951,5.951,0,0,0,5.944,5.944h11.967a5.95,5.95,0,0,0,5.944-5.944V363.11a2.274,2.274,0,0,0-4.549,0v12.482a1.4,1.4,0,0,1-1.394,1.395H205.8V358.015a2.274,2.274,0,1,0-4.549,0v18.971h-3.6a1.4,1.4,0,0,1-1.395-1.395v-31a2.276,2.276,0,0,0-.616-1.557l-10.451-11.129a1.548,1.548,0,1,1,2.256-2.119l9.156,9.751a2.274,2.274,0,0,0,1.658.717H209a2.276,2.276,0,0,0,1.658-.717l9.156-9.751a1.547,1.547,0,1,1,2.256,2.119l-10.452,11.129a2.273,2.273,0,0,0-.617,1.557v10.935a2.274,2.274,0,0,0,4.549,0V345.494l9.835-10.473a6.1,6.1,0,0,0-4.636-10.267Z" transform="translate(-132.291 -226.267)" fill="#9dc5f2"/>
      </g>
    </g>
  </g>
</svg>
