<svg xmlns="http://www.w3.org/2000/svg" width="591" height="729.259" viewBox="0 0 591 729.259">
  <g id="Calque_2" data-name="Calque 2" transform="translate(-0.004 0.002)">
    <g id="Layer_1" data-name="Layer 1" transform="translate(0.004 -0.002)">
      <path id="Tracé_312" data-name="Tracé 312" d="M86.309,552.175c101.42,116.388,251.811,151.357,335.9,78.069,21.045-18.341,35.946-41.726,44.865-68.3,35.991,21.341,75.958,23.128,101.32,1.039,34.628-30.16,28.847-93.523-12.935-141.471-31.081-35.667-73.327-52.768-107.19-46.759a373.926,373.926,0,0,0-57.454-87.927C289.384,170.437,139,135.468,54.915,208.756S-15.117,435.786,86.309,552.175Z" transform="translate(-0.004 -75.243)" fill="#9dc5f2"/>
      <path id="Tracé_313" data-name="Tracé 313" d="M438.985,1279.633c-.028,5.73-64.117,10.053-143.141,9.584s-143.058-5.44-143.024-11.17,64.117-10.053,143.141-9.584S439.019,1273.9,438.985,1279.633Z" transform="translate(-67.47 -559.993)" fill="#666" opacity="0.08"/>
      <path id="Tracé_314" data-name="Tracé 314" d="M679.4,204.875a.62.62,0,0,0-1.167-.363c-.843,1.614-1.832,4.032-2.519,5.725-2.273,5.585-4.178,7.177-5.585,7.177-.637-1.033.145-3.251,3.39-10.908,1.5-3.535,3.552-8.378,3.452-9.277-1.324-3.787-4.468,4.189-5.719,7.847-1.279,3.759-2.234,7.869-4.262,7.869-.659,0,.151-5.1,2.016-11.271,6.792-22.419.492-15.856-2.066-4.669-2.334,10.2-3.245,14.84-4.155,14.84-.687-.788-.374-3.089.888-10.3.732-4.155,1.083-11.1.514-12.114-1.4-1.6-2.279,2.195-2.463,4.312,0,.218-2.234,21.877-5.976,22.609s-2.927-5.384-2.346-9.037-2.234-6.428-3.245-5.239c-1.29,1.474,1.486,6.077.14,12.047s-2.832,15.08-2.832,17.4a87.185,87.185,0,0,1-6.669,24.418c-4.63,10.718-13.315,24.329-28.372,28.311a39.658,39.658,0,0,1-10.148,1.24,68.026,68.026,0,0,1-17.811-2.709c-.33,9.813-.788,19.866.408,29.288a120.61,120.61,0,0,0,23.871,2.91c7.5,0,13.237-1.229,17.063-3.653,14.013-8.864,28.529-55.293,32.835-71.166,4.563-5.367,11.84-14.639,15.365-20.916A44.147,44.147,0,0,0,679.4,204.875Z" transform="translate(-257.871 -82.437)" fill="#fd5e5a"/>
      <path id="Tracé_315" data-name="Tracé 315" d="M678.691,298.46l14.521,6.328-5.959,18.621-17.833-7.635Z" transform="translate(-295.543 -131.765)" fill="#fff"/>
      <path id="Tracé_316" data-name="Tracé 316" d="M533.34,301s29.852,29.858,48.334,29.484,27.669-22.536,27.669-22.536l20.252,13.231s-13.4,47.658-32.394,50.266-61.073-20.86-61.073-20.86Z" transform="translate(-235.465 -132.886)" fill="#666"/>
      <path id="Tracé_317" data-name="Tracé 317" d="M374.46,220.84s17.616,39.654,24.452,45.569,23.525,2.653,27.7-4.038L412.93,228.034Z" transform="translate(-165.322 -97.497)" fill="#fc7575"/>
      <path id="Tracé_318" data-name="Tracé 318" d="M416.952,238.132l-4.021-10.1-38.47-7.194s3.547,7.987,8.076,17.314a56.411,56.411,0,0,0,16.565,6.579C407.189,246.319,413.606,243.482,416.952,238.132Z" transform="translate(-165.322 -97.497)" fill="#fd5e5a"/>
      <path id="Tracé_319" data-name="Tracé 319" d="M235.226,931.05s-12.371-4.781-13.779-3.351-12.254,31.562-10.009,38.308,11.7-22.843,23.787-25.373Z" transform="translate(-93.215 -409.448)" fill="#31302c"/>
      <path id="Tracé_320" data-name="Tracé 320" d="M555.827,1266.537l-4.217,13.5h43.7s-28.886-6.758-30.109-12.1S555.827,1266.537,555.827,1266.537Z" transform="translate(-243.531 -558.543)" fill="#31302c"/>
      <path id="Tracé_321" data-name="Tracé 321" d="M444.92,619.09c-1.6-12.209-91.568,20.832-91.568,20.832L343,821.288l-92.925-27.563s-5.311,19.8-5.311,17.068c0,2.737,103.52,39.8,107.234,39.8,25.133,0,47.887-170.011,49.708-171.921,0,0,29.54,107.6,27.618,118.455L405.187,982.218c3.96,1.815,23.927,1.731,27.194.91L461.848,806.08C464.1,800.288,446.517,631.3,444.92,619.09Z" transform="translate(-108.061 -272.124)" fill="#333"/>
      <path id="Tracé_322" data-name="Tracé 322" d="M449.889,297.772l23.586,183.343-65.592,10.221L351.58,317.7l28.015-25,23.765.352,15.387-6.227Z" transform="translate(-155.22 -126.626)" fill="#fff"/>
      <path id="Tracé_323" data-name="Tracé 323" d="M447.993,303.706l-1.413,10.662-6.981.882L433.79,305.5l5.864-7.534Z" transform="translate(-191.515 -131.549)" fill="#333"/>
      <path id="Tracé_324" data-name="Tracé 324" d="M453.254,302.608l-8.964-10.673,15.929-7.635,10.115,5.155Z" transform="translate(-196.151 -125.514)" fill="#fff" stroke="#000" stroke-miterlimit="10" stroke-width="1"/>
      <path id="Tracé_325" data-name="Tracé 325" d="M414.047,309.439l5.021-12.449-23.876-1.24-8.031,7.015Z" transform="translate(-170.929 -130.569)" fill="#fff" stroke="#000" stroke-miterlimit="10" stroke-width="1"/>
      <path id="Tracé_326" data-name="Tracé 326" d="M429.244,293.53l-.436,107.642-59.3-95.668L351.22,319.886l42.413,152.038L379.95,517.611l125.665-17.526-9.645-54.008L452.936,297.7Z" transform="translate(-155.062 -129.589)" fill="#666"/>
      <path id="Tracé_327" data-name="Tracé 327" d="M490.576,293.53l-.436,107.514,12.734-57.907-1.91-4.943,4.736-10-.413-34.259Z" transform="translate(-216.393 -129.589)" fill="#333"/>
      <path id="Tracé_328" data-name="Tracé 328" d="M375.738,311.37l58.152,97.678-50.557-52.383-.737-5.809-8.612-4.423L362.73,316.916Z" transform="translate(-160.143 -137.465)" fill="#333"/>
      <path id="Tracé_329" data-name="Tracé 329" d="M480.853,592.623l-23.4-106.363,13.935,102.47L416.11,600.85Z" transform="translate(-183.71 -214.676)" fill="#333"/>
      <path id="Tracé_330" data-name="Tracé 330" d="M444.19,328.212l6.981-.882c13.918,35,41.721,63.67,78.516,78.806a136.291,136.291,0,0,0,12.628,16.141,161.884,161.884,0,0,1-23.346.8A156.71,156.71,0,0,1,444.19,328.212Z" transform="translate(-196.107 -144.511)" fill="#333"/>
      <path id="Tracé_331" data-name="Tracé 331" d="M388.511,117.7c-4.234-7.261,4.217-18.33,15.219-12.427l-.793,2.234C394.007,103.2,386.83,110.4,388.511,117.7Z" transform="translate(-171.034 -45.736)" fill="#5c2c55"/>
      <path id="Tracé_332" data-name="Tracé 332" d="M359.35,131.1s16.621-2.675,23.765,8.461,21.782,25.965,22.614,42.972c.43,8.791-15.437,18.09-32.014,9.444s-33.46-37.795-32.628-41.889S351.335,129.243,359.35,131.1Z" transform="translate(-150.575 -57.752)" fill="#fc7575"/>
      <path id="Tracé_333" data-name="Tracé 333" d="M343.754,123.973l.659,1.028s11.958,11.679,25.546,6.11,10.908-13.052,10.908-13.052,16.2-2.636,8.813-16.3-20.051-9.634-20.051-9.634,9.383,6.563,4.06,8.523S367.8,92.328,361.738,93.8s-8.886,7.155-8.886,7.155-8.188,4.284-15.638,4.719-16.755,10.053-14.873,15.6a75.635,75.635,0,0,0,3.647,9.031c-.508-1-3.183,2.385-3.284,2.575-6.9,12.991,12.153,25.133,24.748,33.081A123.181,123.181,0,0,0,358.9,172.48a22.246,22.246,0,0,0,5.434,1.8s-15.638-11.857-17.113-18.4,4.468-2.379,1.944-8.506-7.121-4.139-9.981-8.6S343.754,123.973,343.754,123.973Z" transform="translate(-141.826 -40.424)"/>
      <path id="Tracé_334" data-name="Tracé 334" d="M407.169,173.26s-.62-11.221,4.083-10.12,10.232,20.894,6.356,21.084S407.169,173.26,407.169,173.26Z" transform="translate(-179.75 -71.99)" fill="#fc7575"/>
      <path id="Tracé_335" data-name="Tracé 335" d="M423.178,179.828a20.677,20.677,0,0,1,6.261,5.44,44.951,44.951,0,0,1-3.614,2.971c.81-1.044,1.625-2.078,2.5-3.061-1.676-1.759-10.528-8.043-12.332-8.171C417.833,176.712,421.581,178.812,423.178,179.828Z" transform="translate(-183.657 -78.133)"/>
      <path id="Tracé_336" data-name="Tracé 336" d="M399.605,185.133c.972,1.519,2.608,2.234,3.647,1.547s1.084-2.441.112-3.96-2.608-2.234-3.647-1.547S398.628,183.614,399.605,185.133Z" transform="translate(-176.113 -79.869)" fill="#330"/>
      <path id="Tracé_337" data-name="Tracé 337" d="M423.666,169.663c.977,1.519,2.608,2.234,3.647,1.547s1.089-2.441.112-3.96-2.608-2.234-3.647-1.547S422.688,168.16,423.666,169.663Z" transform="translate(-186.736 -73.039)" fill="#330"/>
      <path id="Tracé_338" data-name="Tracé 338" d="M390.857,170.307s-5.529,2.167-6.384,6.356,1.117,5.239,1.8,4.814-2.027-5.027.62-6.361C394.275,171.38,393.007,169.185,390.857,170.307Z" transform="translate(-169.649 -75.058)"/>
      <path id="Tracé_339" data-name="Tracé 339" d="M368.333,197.783s-8.674-3.133-8.763,1.38,9.662,15.018,12.455,11.9S368.333,197.783,368.333,197.783Z" transform="translate(-158.747 -86.85)" fill="#fc7575"/>
      <path id="Tracé_340" data-name="Tracé 340" d="M371.36,202.415s-2.932-3.312-4.87-2.066,3.614,10.93,5.5,9.724S371.36,202.415,371.36,202.415Z" transform="translate(-161.624 -88.327)" fill="#fd5e5a"/>
      <path id="Tracé_341" data-name="Tracé 341" d="M164.837,445.3c-27.2,5.859-67.954-9.143-75.762-17.649C81.893,419.835,74,418,68.734,412.245c-2.558-2.793-3.686-3-3.971-3-.374,0-.754.95-.754,2.765,0,3.2,9.539,6.875,9.539,9.863a1.413,1.413,0,0,1-1.581,1.363c-3.977,0-27.965-12.377-29.043-10.327-.821,1.53,3.865,2.9,3.977,2.971,15.164,6.423,20.106,8.774,18.258,10.779a1.469,1.469,0,0,1-1.145.441c-3.133,0-23.5-9.31-26.5-7.2-.76.531,4.759,3.094,4.87,3.161,2.446,1.117,19.771,5.278,20.464,7.819,1.3,4.725-22.463-4.814-22.463-.866,0,2.262,7.881,2.357,11.584,3.178,7.6,1.676,9.417,2.234,9.807,3.452.754,2.39-4.524,2.792-8.048,3.351-2.753.413-7.747,1.162-8.886,1.994,2.161,2.067,12.237.38,15.214-.061,5.674-.843,4.3-1.033,21.782.922,6.518.726,4.692.084,8.517,2.29,19.771,11.422,46.859,24.681,69.7,24.681,18.308,0,35.371-8.249,46.971-17.777-5.217-8.858-11.17-17.515-15.94-26.736C183.821,435.479,175.321,443.047,164.837,445.3Z" transform="translate(-16.532 -180.673)" fill="#fc7575"/>
      <path id="Tracé_342" data-name="Tracé 342" d="M137.692,448.96l-6.842,15.5,18.989,12.706,5.306-21.223Z" transform="translate(-57.771 -198.209)" fill="#fff"/>
      <path id="Tracé_343" data-name="Tracé 343" d="M263.708,340.72l15.437,55.332s-7.361,29.238-40.135,43.475S153,429.121,153,429.121l4.468-25.234s53.986,11.17,65.156,0S263.708,340.72,263.708,340.72Z" transform="translate(-67.55 -150.422)" fill="#666"/>
      <path id="Tracé_344" data-name="Tracé 344" d="M174.419,569.623c-32.595,0-66.653-14.884-67.072-15.08a.838.838,0,1,1,.681-1.531c.5.224,51.082,22.341,87.452,12.355a.838.838,0,1,1,.441,1.614A81.62,81.62,0,0,1,174.419,569.623Z" transform="translate(-47.175 -244.115)"/>
      <path id="Tracé_345" data-name="Tracé 345" d="M125.124,539.188c-29.97,0-61.436-11.935-61.738-12.058a.838.838,0,0,1,.6-1.564c.307.123,31.483,11.947,61.135,11.947a.838.838,0,1,1,0,1.676Z" transform="translate(-27.749 -232.004)"/>
      <path id="Tracé_346" data-name="Tracé 346" d="M754.051,259.308a.8.8,0,0,1-.318-.061.832.832,0,0,1-.458-1.089c6.758-16.582,0-81.1-.089-81.75a.832.832,0,0,1,.743-.922.843.843,0,0,1,.922.743c.285,2.67,6.892,65.592,0,82.559A.838.838,0,0,1,754.051,259.308Z" transform="translate(-332.522 -77.472)"/>
      <path id="Tracé_347" data-name="Tracé 347" d="M397.667,1057.783a85.875,85.875,0,0,1-18.1-2.016,110.536,110.536,0,0,1-29.467-11.02.838.838,0,1,1,.849-1.441,109.071,109.071,0,0,0,29.043,10.852c15.186,3.279,37.119,4.066,55.393-10.779a.84.84,0,0,1,1.061,1.3C424.09,1054.678,410.161,1057.783,397.667,1057.783Z" transform="translate(-154.364 -460.542)"/>
      <path id="Tracé_348" data-name="Tracé 348" d="M440.772,213.755c0,3.072-1.5,5.585-3.351,5.585s-3.351-2.5-3.351-5.585,1.5-5.585,3.351-5.585S440.772,210.678,440.772,213.755Z" transform="translate(-191.639 -91.903)"/>
      <path id="Tracé_349" data-name="Tracé 349" d="M504.24,4.009c10.712-7.1,32.355-5.289,32.511,9.623.061,6.322-3.859,10.925-8.825,16.281-8.009,8.6-5.44,13.739-5.686,16.152l-8.154.089c.128-1.838-2.793-8.886,6.077-18.582,17.928-19.2-2.709-25.088-13.36-17.733" transform="translate(-222.618 0.002)" fill="#9dc5f2"/>
      <path id="Tracé_350" data-name="Tracé 350" d="M524.173,107.028c-8.378.089-8.378-11.544,0-11.628,8.177-.089,8.473,11.539,0,11.628" transform="translate(-228.644 -42.116)" fill="#9dc5f2"/>
    </g>
  </g>
</svg>
