<svg xmlns="http://www.w3.org/2000/svg" width="1627.999" height="314.165" viewBox="0 0 1627.999 314.165">
  <g id="Calque_2" data-name="Calque 2" transform="translate(0 0.005)">
    <g id="Calque_8" data-name="Calque 8" transform="translate(0 -0.005)">
      <g id="Groupe_54" data-name="Groupe 54" opacity="0.99">
        <path id="Tracé_511" data-name="Tracé 511" d="M64.82,228.047,50.4,224.953a115.375,115.375,0,0,1-26.956-9.23A112.858,112.858,0,0,1,0,200.357l13.373-17.516A95.657,95.657,0,0,0,44.262,201.3a106.775,106.775,0,0,0,36.71,6.136q28.739,0,44.472-11.38a37.077,37.077,0,0,0,15.733-31.938h0a29.683,29.683,0,0,0-6.818-20.453,41.64,41.64,0,0,0-17.673-11.485,192,192,0,0,0-27.9-7.08l-1-.262H86.636l-4.458-.944a274.227,274.227,0,0,1-37.6-9.65A54.174,54.174,0,0,1,20.505,97.83a48.091,48.091,0,0,1-10.017-32.2h0a64.715,64.715,0,0,1,9.387-35.557A58.789,58.789,0,0,1,47.2,7.68,108.925,108.925,0,0,1,89.888.023,107.456,107.456,0,0,1,113.33,2.645a114.223,114.223,0,0,1,23.023,7.867,135.146,135.146,0,0,1,22.341,12.954L145.478,40.719a119.2,119.2,0,0,0-28.267-15.1,79.137,79.137,0,0,0-27.323-4.982c-18.25,0-32.358,3.828-42.427,11.485A38.546,38.546,0,0,0,32.41,64.529h0a26.222,26.222,0,0,0,7.552,19.928,46.045,46.045,0,0,0,18.67,10.8,294.528,294.528,0,0,0,30.522,7.552l1.311.315,1.468.315,1.783.367,1.731.367a213.971,213.971,0,0,1,35.032,9.859,54.8,54.8,0,0,1,23.232,17.1,49.874,49.874,0,0,1,9.282,31.466v.315a61.673,61.673,0,0,1-9.65,34.98,60.52,60.52,0,0,1-28.057,22.393,116.268,116.268,0,0,1-44.315,7.6Z" transform="translate(0 0.005)" fill="#3275c2"/>
        <path id="Tracé_512" data-name="Tracé 512" d="M39.87.44H62V22.571H39.87Zm0,63.928H62V223.639H39.87Z" transform="translate(169.222 1.896)" fill="#3275c2"/>
        <path id="Tracé_513" data-name="Tracé 513" d="M54.05,14.472H76.181V173.743H54.05ZM153.692,77.4a48.72,48.72,0,0,0-10.069-32.882,35.871,35.871,0,0,0-28.686-11.695A38.284,38.284,0,0,0,86.145,43.316,40.958,40.958,0,0,0,75.919,73.051l-3.2-30.732A50.87,50.87,0,0,1,93.7,19.3a61.673,61.673,0,0,1,30.1-7.08,50.765,50.765,0,0,1,28.215,7.6A47.2,47.2,0,0,1,169.845,42a91.776,91.776,0,0,1,6.031,35.19v96.548H153.955Zm99.642,0a48.72,48.72,0,0,0-10.122-32.882,35.924,35.924,0,0,0-28.582-11.695,36.71,36.71,0,0,0-28.844,11.38A46.255,46.255,0,0,0,175.3,76.2l-8.6-23.075a68.177,68.177,0,0,1,21.344-30.365,52.444,52.444,0,0,1,32.882-10.489,55.485,55.485,0,0,1,29.735,7.6,47.986,47.986,0,0,1,18.827,22.184,86.8,86.8,0,0,1,6.451,35.19v96.5H253.807Z" transform="translate(229.406 51.793)" fill="#3275c2"/>
        <path id="Tracé_514" data-name="Tracé 514" d="M127.4,109.545a45.783,45.783,0,0,0,10.908,32.672,40.434,40.434,0,0,0,30.889,11.59,41.955,41.955,0,0,0,30.627-10.489,39.962,39.962,0,0,0,10.856-29.945l2.15,33.3a47.881,47.881,0,0,1-19.3,19.981,63.509,63.509,0,0,1-32.882,7.762,50.45,50.45,0,0,1-40.8-16.992q-14.422-16.992-14.369-47.881V12.63h22.131Zm83.28-96.915h21.974V171.9H210.682Z" transform="translate(447.693 53.635)" fill="#3275c2"/>
        <path id="Tracé_515" data-name="Tracé 515" d="M161,181.684a22.656,22.656,0,0,0,4.982,15.733,17.674,17.674,0,0,0,13.9,5.611h14.737v20.61H176.206a34.927,34.927,0,0,1-27.585-11.066,45.679,45.679,0,0,1-9.754-31.466V.44H161Z" transform="translate(588.943 1.896)" fill="#3275c2"/>
        <path id="Tracé_516" data-name="Tracé 516" d="M179.781,223.639H157.65V.44h22.131Z" transform="translate(669.12 1.896)" fill="#9dc5f2"/>
        <path id="Tracé_517" data-name="Tracé 517" d="M172.71,14.39h22.079V173.661H172.71ZM278.7,77.323A45.783,45.783,0,0,0,267.58,44.441a41.588,41.588,0,0,0-31.466-11.695,42.269,42.269,0,0,0-30.47,10.489,38.808,38.808,0,0,0-10.856,29.421l-3.2-30.732a51.762,51.762,0,0,1,22.446-22.656,71.27,71.27,0,0,1,32.41-6.975,49.612,49.612,0,0,1,40.172,16.939c9.44,11.328,14.212,27.323,14.212,48.038v96.391H278.7Z" transform="translate(733.039 51.874)" fill="#9dc5f2"/>
        <path id="Tracé_518" data-name="Tracé 518" d="M322.068,12.8h23.495L282.578,172.07H265.062L202.13,12.59h23.495l48.248,130.741Z" transform="translate(857.908 53.465)" fill="#9dc5f2"/>
        <path id="Tracé_519" data-name="Tracé 519" d="M281.738,176.313l-15.733-8.391a56.062,56.062,0,0,1-23.914-24.439,84.276,84.276,0,0,1-8.181-38.651V86.9a93.767,93.767,0,0,1,7.919-40.434A56.114,56.114,0,0,1,264.8,20.975a70.379,70.379,0,0,1,36.238-8.758,63.929,63.929,0,0,1,34.088,8.6,54.807,54.807,0,0,1,21.607,25.12,95.814,95.814,0,0,1,7.447,39.7v18.3H248.8V83.96h94.4V82.439c0-15.733-3.671-28-11.118-36.71a39.176,39.176,0,0,0-31.466-13.006,43.528,43.528,0,0,0-34.4,13.688Q254,60.1,254.048,85.114v20.505q0,24.019,12.9,37.13a48.772,48.772,0,0,0,36.71,13.111,55.171,55.171,0,0,0,21.869-4.615,59.84,59.84,0,0,0,19.3-13.058l15.051,14.474a84.7,84.7,0,0,1-26.222,17.569,76.1,76.1,0,0,1-29.788,6.241Z" transform="translate(992.636 51.74)" fill="#9dc5f2"/>
        <path id="Tracé_520" data-name="Tracé 520" d="M318.17,175.712,306.055,173.2a99.639,99.639,0,0,1-22.656-7.447,80.761,80.761,0,0,1-18.67-11.8l12.744-15.733a119.669,119.669,0,0,0,27.008,14,80.764,80.764,0,0,0,26.589,4.825,66.917,66.917,0,0,0,35.452-7.814A24.7,24.7,0,0,0,379,127.1a19.615,19.615,0,0,0-6.031-15.733,33.668,33.668,0,0,0-15.313-7.08,221.622,221.622,0,0,0-25.645-3.042h-8.758a146.47,146.47,0,0,1-26.222-4.615A35.349,35.349,0,0,1,279.309,85.09,36.711,36.711,0,0,1,272.125,60.7a44.841,44.841,0,0,1,7.447-26.222,46.465,46.465,0,0,1,21.816-16.467A94.4,94.4,0,0,1,335.9,12.351a108.763,108.763,0,0,1,20.956,2.041,111.965,111.965,0,0,1,20.055,6.035,86.473,86.473,0,0,1,17.569,9.44L381.521,44.342A106.817,106.817,0,0,0,357.87,34.115,81.812,81.812,0,0,0,334.847,30.5a54.856,54.856,0,0,0-31.2,7.552,24.072,24.072,0,0,0-11.065,20.977A16.992,16.992,0,0,0,298.5,73.553a33.143,33.143,0,0,0,15.156,6.241,244.324,244.324,0,0,0,25.12,2.412h3.514a2.991,2.991,0,0,1,.944,0,138.293,138.293,0,0,1,28.477,4.143,38.7,38.7,0,0,1,19.771,12.8,41.954,41.954,0,0,1,7.971,27.48,43.741,43.741,0,0,1-7.971,26.222,49.35,49.35,0,0,1-23.39,16.677,105.781,105.781,0,0,1-37.025,5.769Z" transform="translate(1123.603 52.34)" fill="#9dc5f2"/>
        <path id="Tracé_521" data-name="Tracé 521" d="M295.69,50.192h71.9V69.229h-71.9Zm25.435,149.569q-8.968-10.489-8.968-31.466V3.78h22.131V168.5a23.913,23.913,0,0,0,4.615,15.733,16.572,16.572,0,0,0,13.636,5.559H367.59v20.558H349.759C336.6,210.407,327.1,206.841,321.125,199.761Z" transform="translate(1255.008 16.072)" fill="#9dc5f2"/>
      </g>
      <path id="Tracé_522" data-name="Tracé 522" d="M272.133,37.938,257.24,6.472a1.377,1.377,0,0,0-1.678-.629L224.1,20.789a1.2,1.2,0,0,0,.105,2.255l13.006,4.93-5.244,14.369H255.4l2.517-7.185,12.8,4.51a1.206,1.206,0,0,0,1.311-.315,1.311,1.311,0,0,0,.1-1.416Z" transform="translate(948.014 24.498)" fill="#9dc5f2"/>
    </g>
    <g id="Calque_1" data-name="Calque 1" transform="translate(1085.578 268.539)">
      <g id="Logo_alternatif1" data-name="Logo alternatif1">
        <g id="Calque_6" data-name="Calque 6">
          <path id="Tracé_523" data-name="Tracé 523" d="M237.365,64.993a12.429,12.429,0,0,1-10.489,13.216,22.24,22.24,0,0,1-3.042,0H211.51V94.624H207V51.41h16.729a16.624,16.624,0,0,1,3.042.262A12.324,12.324,0,0,1,237.365,64.993Zm-4.563,0a8.5,8.5,0,0,0-6.451-8.915,13.53,13.53,0,0,0-2.675-.315H211.458V74.171h12.219a13.113,13.113,0,0,0,2.675,0A8.5,8.5,0,0,0,232.8,64.993Z" transform="translate(-207 -50.314)" fill="#3476c2"/>
          <path id="Tracé_524" data-name="Tracé 524" d="M240.2,84.187H221l-3.619,10.489H212.77L227.664,51.41h5.874l14.946,43.266h-4.667Zm-1.468-4.143-8.181-23.652L222.42,80.044Z" transform="translate(-182.51 -50.314)" fill="#3476c2"/>
          <path id="Tracé_525" data-name="Tracé 525" d="M246.8,94.676l-7.971-16.467H224.983V94.623H220.63V51.41h16.677a17.514,17.514,0,0,1,3.094.262A12.324,12.324,0,0,1,250.89,64.836a12.586,12.586,0,0,1-7.342,12.377L252.1,94.676ZM239.929,73.7a9.387,9.387,0,0,0,0-17.831,14.056,14.056,0,0,0-2.727-.315H224.983V73.961H237.2a13.585,13.585,0,0,0,2.727-.21Z" transform="translate(-149.15 -50.314)" fill="#3476c2"/>
          <path id="Tracé_526" data-name="Tracé 526" d="M263.431,73.077c0,10.961-4.982,19.981-14.894,21.344a42.528,42.528,0,0,1-5.507,0H229.92v-43h13.111a34.249,34.249,0,0,1,5.507.315C258.449,53.043,263.431,62.064,263.431,73.077Zm-4.667,0c0-8.5-2.779-15.733-10.489-17.1a36.718,36.718,0,0,0-5.244-.262h-8.548V90.436h8.548a29.625,29.625,0,0,0,5.244-.315C255.984,88.548,258.764,81.52,258.764,73.077Z" transform="translate(-109.72 -50.322)" fill="#3476c2"/>
          <path id="Tracé_527" data-name="Tracé 527" d="M237.26,73.75c0-13.163,7.395-22.656,19.981-22.5s19.719,9.073,19.876,22.5-7.132,22.5-19.876,22.5S237.365,86.913,237.26,73.75Zm35.19,0c0-10.8-5.244-18.3-15.208-18.3s-15.261,7.5-15.261,18.3,5.244,18.3,15.261,18.25,15.366-7.447,15.366-18.25Z" transform="translate(-78.566 -50.995)" fill="#3476c2"/>
          <path id="Tracé_528" data-name="Tracé 528" d="M272.172,94.676l-8.024-16.467H250.565V94.623H246.16V51.41H262.89a16.992,16.992,0,0,1,3.042.262A12.324,12.324,0,0,1,276.42,64.836a12.638,12.638,0,0,1-7.5,12.377l8.5,17.464ZM265.249,73.7a9.387,9.387,0,0,0,0-17.831,13.582,13.582,0,0,0-2.727-.315H250.565V73.961h12.167a13.217,13.217,0,0,0,2.517-.21Z" transform="translate(-40.792 -50.314)" fill="#3476c2"/>
          <path id="Tracé_529" data-name="Tracé 529" d="M257.593,51.41V94.676H253.24V51.41Z" transform="translate(-10.742 -50.314)" fill="#3476c2"/>
          <path id="Tracé_530" data-name="Tracé 530" d="M293.8,82.662a18.461,18.461,0,0,1-18.565,13.793,18.251,18.251,0,0,1-15.1-6.87,26.222,26.222,0,0,1-4.667-15.733,25.33,25.33,0,0,1,4.667-15.733A19.981,19.981,0,0,1,289.4,57.069a19.249,19.249,0,0,1,4.72,9.02l-4.51.682a16.1,16.1,0,0,0-2.727-5.926A14,14,0,0,0,275.4,55.6a14.316,14.316,0,0,0-11.642,5.244A20.664,20.664,0,0,0,260.135,73.8,20.243,20.243,0,0,0,263.6,86.857,14.212,14.212,0,0,0,275.239,92.1a13.9,13.9,0,0,0,11.485-5.244,18.148,18.148,0,0,0,2.622-5.244Z" transform="translate(-1.38 -51.201)" fill="#3476c2"/>
          <path id="Tracé_531" data-name="Tracé 531" d="M305.551,74.752a24.7,24.7,0,0,1-4.72,14.894,18.46,18.46,0,0,1-15.1,6.66,17.988,17.988,0,0,1-15.156-7.132,28.476,28.476,0,0,1,0-30.994,18.669,18.669,0,0,1,15.1-6.923,18.146,18.146,0,0,1,14.265,5.874,13.534,13.534,0,0,1,3.618,6.031l-4.615,1.154a13.11,13.11,0,0,0-13.111-8.548,14.37,14.37,0,0,0-11.538,5.244A21.82,21.82,0,0,0,270.834,73.7a20.978,20.978,0,0,0,3.461,12.691,14.108,14.108,0,0,0,11.538,5.244,13.426,13.426,0,0,0,10.908-4.825,17.306,17.306,0,0,0,3.671-9.859H289.923V73.179h15.733Z" transform="translate(43.354 -51.053)" fill="#3476c2"/>
          <path id="Tracé_532" data-name="Tracé 532" d="M301.012,94.676l-8.024-16.467H279.2V94.623H274.79V51.41h16.834a16.988,16.988,0,0,1,3.042.262,12.376,12.376,0,0,1,10.489,13.163A12.639,12.639,0,0,1,297.6,77.212l8.548,17.464ZM294.089,73.7a9.387,9.387,0,0,0,0-17.831,13.579,13.579,0,0,0-2.727-.315H279.2V73.961h12.429a13.21,13.21,0,0,0,2.465-.21Z" transform="translate(80.724 -50.314)" fill="#3476c2"/>
          <path id="Tracé_533" data-name="Tracé 533" d="M281.45,73.75c0-13.163,7.394-22.656,19.928-22.5s19.719,9.073,19.928,22.5-7.185,22.5-19.928,22.5S281.5,86.913,281.45,73.75Zm35.137,0c0-10.8-5.244-18.3-15.208-18.3s-15.261,7.5-15.261,18.3,5.244,18.3,15.261,18.25,15.156-7.447,15.208-18.25Z" transform="translate(108.991 -50.995)" fill="#3476c2"/>
          <path id="Tracé_534" data-name="Tracé 534" d="M324.084,79.153A19.289,19.289,0,0,1,323.3,84.4a17.149,17.149,0,0,1-32.41,0,20.041,20.041,0,0,1-.577-4.772V51.41h4.405V77a26.242,26.242,0,0,0,.367,5.507,12.534,12.534,0,0,0,24.072,0,27.4,27.4,0,0,0,.472-5.244V51.41h4.458Z" transform="translate(146.596 -50.314)" fill="#3476c2"/>
          <path id="Tracé_535" data-name="Tracé 535" d="M328.62,64.993a12.482,12.482,0,0,1-10.489,13.216,22.773,22.773,0,0,1-3.042,0H302.765V94.623H298.36V51.41h16.73a16.993,16.993,0,0,1,3.042.262A12.377,12.377,0,0,1,328.62,64.993Zm-4.615,0a8.5,8.5,0,0,0-6.4-8.915,14.052,14.052,0,0,0-2.727-.315H302.713V74.171H314.88a13.583,13.583,0,0,0,2.727,0A8.5,8.5,0,0,0,324,64.993Z" transform="translate(180.763 -50.314)" fill="#3476c2"/>
          <path id="Tracé_536" data-name="Tracé 536" d="M309.675,55.605V70.657h19.037v4.2H309.675V90.585h22.656v4.2H305.27V51.41h27.061v4.2Z" transform="translate(210.091 -50.314)" fill="#3476c2"/>
        </g>
      </g>
    </g>
  </g>
</svg>
