<svg xmlns="http://www.w3.org/2000/svg" width="619.943" height="795.903" viewBox="0 0 619.943 795.903">
  <g id="Calque_2" data-name="Calque 2" transform="translate(-0.003 -0.005)">
    <g id="Layer_1" data-name="Layer 1" transform="translate(0.003 0.006)">
      <ellipse id="Ellipse_2" data-name="Ellipse 2" cx="11.759" cy="162.055" rx="11.759" ry="162.055" transform="matrix(0.006, -1, 1, 0.006, 177.079, 794.091)" fill="#666" opacity="0.08"/>
      <path id="Tracé_440" data-name="Tracé 440" d="M376.269,1201.55s-10.235,15.555-19.293,18.7-17.326,2.758-17.326,4.921v3.163h51.775l-1.771-26.776Z" transform="translate(-124.804 -441.503)"/>
      <path id="Tracé_441" data-name="Tracé 441" d="M546.62,1204l1.967,25.2h51.579s-.2-4.921-8.464-4.921S560.4,1209.1,558.43,1204Z" transform="translate(-200.853 -442.403)"/>
      <path id="Tracé_442" data-name="Tracé 442" d="M475.982,265.054c-127.144-89.779-280.363-91.5-342.277-3.84-15.491,21.943-23.8,47.4-25.549,74.642-40-12.8-78.817-6.092-97.484,20.337-25.5,36.113-3.713,95.377,48.637,132.363,38.959,27.516,83.871,34.955,114.822,22.089A395.219,395.219,0,0,0,251.759,582.5c127.144,89.785,280.363,91.506,342.277,3.84S603.1,354.839,475.982,265.054Z" transform="translate(-0.003 -72.234)" fill="#9dc5f2"/>
      <path id="Tracé_443" data-name="Tracé 443" d="M459.965,562.28,439.356,764.7s-37.8,185.795-48.036,204.715h22.045L467.7,826.879V796.953l39.377-163.795-3.941,144.894-6.326,22.842-13.341,168.52H507.1l32.26-183.486,12.6-223.647Z" transform="translate(-143.789 -206.609)" fill="#333"/>
      <path id="Tracé_444" data-name="Tracé 444" d="M514.963,29.252c-.4-9.356-15.46-14.688-22.443-2.5L494.7,28.4C500.617,18.941,512.034,21.376,514.963,29.252Z" transform="translate(-180.974 -7.229)"/>
      <path id="Tracé_445" data-name="Tracé 445" d="M531.1,163.925l7.167-49.795,21.153,12.113L570.686,163.1S571.52,206.945,531.1,163.925Z" transform="translate(-195.15 -41.94)" fill="#fc7575"/>
      <path id="Tracé_446" data-name="Tracé 446" d="M541.03,114.13l21.153,12.113,8.078,26.441c-10.058-.19-23.544-6.585-30.844-20.274q-.4-.772-.8-1.575Z" transform="translate(-197.913 -41.94)" fill="#fd5e5a"/>
      <path id="Tracé_447" data-name="Tracé 447" d="M559.061,26.355S576.8,33.87,576.8,48.653s7.053,51.642,0,58.7-31,3.049-41.648-15.087S526.243,36.54,529.6,33.181,552.463,19.758,559.061,26.355Z" transform="translate(-193.653 -8.881)" fill="#fc7575"/>
      <path id="Tracé_448" data-name="Tracé 448" d="M537.856,22.939V24.3s4.32,18.2,20.931,21.159,18.654-5.693,18.654-5.693,17.288,7.281,18.654-10.013S582.66,8.611,582.66,8.611s5,11.829-1.366,10.463-.525-11.386-7.312-13.651-13.043,1.366-13.043,1.366-10.538-.911-18.079-5S520.4,1.1,518.778,7.479a85.583,85.583,0,0,0-2.081,10.69c.133-1.265-4.561.323-4.776.443-14.739,8.052-3.833,30.951,3.409,46.038a135.241,135.241,0,0,0,7.028,13.031,34.3,34.3,0,0,0,4.561,5.693s-8.147-21.3-5.554-28.339,5.8.455,7.167-6.825-4.327-8.185-4.327-14.1S537.856,22.939,537.856,22.939Z" transform="translate(-185.415 -0.006)"/>
      <path id="Tracé_449" data-name="Tracé 449" d="M534.921,83.292s-6.37-10.918-10.241-7.053,3.074,25.821,6.958,23.664S534.921,83.292,534.921,83.292Z" transform="translate(-192.373 -27.713)" fill="#fc7575"/>
      <path id="Tracé_450" data-name="Tracé 450" d="M596.215,125a23.537,23.537,0,0,1-16.845,2.809s5.4,6.193,9.488,6.205S596.215,125,596.215,125Z" transform="translate(-212.887 -45.934)" fill="#fff"/>
      <path id="Tracé_451" data-name="Tracé 451" d="M534.169,87.341s-4.776-6.484-6.028-2.96,4.093,17.408,6.028,15.472S534.169,87.341,534.169,87.341Z" transform="translate(-193.994 -30.623)" fill="#fd5e5a"/>
      <path id="Tracé_452" data-name="Tracé 452" d="M593.852,95.044a22.739,22.739,0,0,1,2.676,8.9c-.55.07-1.3.278-5.339.633,1.43-.5,2.865-.974,4.314-1.373-.538-2.676-5.193-13.916-6.863-15.124C590.614,88.9,592.935,93.128,593.852,95.044Z" transform="translate(-216.293 -32.368)"/>
      <path id="Tracé_453" data-name="Tracé 453" d="M568.85,86.986c0,2.018,1.145,3.656,2.568,3.656s2.587-1.638,2.587-3.656-1.151-3.656-2.568-3.656S568.85,84.968,568.85,86.986Z" transform="translate(-209.021 -30.622)" fill="#330"/>
      <path id="Tracé_454" data-name="Tracé 454" d="M597.87,86.986c0,2.018,1.151,3.656,2.568,3.656s2.575-1.638,2.575-3.656-1.145-3.656-2.568-3.656S597.87,84.968,597.87,86.986Z" transform="translate(-219.684 -30.622)" fill="#330"/>
      <path id="Tracé_455" data-name="Tracé 455" d="M567.991,71.909s-6.693-1.3-10.121,2.125-2.163,5.611-1.265,5.611,1.158-5.946,4.548-5.611C570.635,74.977,570.768,72.149,567.991,71.909Z" transform="translate(-204.158 -26.337)"/>
      <path id="Tracé_456" data-name="Tracé 456" d="M586.231,206.832,587.326,408.9l-82.169,6.281L476.9,215.321l33.734-23.386,25.739,3.555,17.528-4.7Z" transform="translate(-175.235 -70.108)" fill="#fff"/>
      <path id="Tracé_457" data-name="Tracé 457" d="M574.92,205.558l-2.954,11.38-7.7.025-5-11.348,7.369-7.395Z" transform="translate(-205.501 -72.838)" fill="#333"/>
      <path id="Tracé_458" data-name="Tracé 458" d="M579.219,207.422l-8.3-12.778,18.306-6.155,10.279,6.945Z" transform="translate(-209.782 -69.263)" fill="#fff" stroke="#333" stroke-miterlimit="10" stroke-width="1"/>
      <path id="Tracé_459" data-name="Tracé 459" d="M543.252,208.42l7.11-12.835-25.739-4.535-9.653,6.541Z" transform="translate(-189.223 -70.203)" fill="#fff" stroke="#333" stroke-miterlimit="10" stroke-width="1"/>
      <path id="Tracé_460" data-name="Tracé 460" d="M572.248,227.81l-7.7.025-4.51,117.4,11.525,16.934,10.159-18.616Z" transform="translate(-205.784 -83.71)" fill="#333"/>
      <path id="Tracé_461" data-name="Tracé 461" d="M564.892,199.47l-21.6,111.065L498.48,204.48l-21.76,13.157,12.816,179.134L481.477,436l111.046-3.283-4.422-53.2,1.942-172.36Z" transform="translate(-175.169 -73.297)" fill="#666"/>
      <path id="Tracé_462" data-name="Tracé 462" d="M603.562,199.47l-21.6,111.065,28.32-55.6-1.411-5.617,6.477-10.222,4.131-37.22Z" transform="translate(-213.838 -73.297)" fill="#333"/>
      <path id="Tracé_463" data-name="Tracé 463" d="M504.892,204.18l43.292,108.085-41.1-57.923-.019-6.4-8.755-5.946-8.267-33.532Z" transform="translate(-180.063 -75.028)" fill="#333"/>
      <path id="Tracé_464" data-name="Tracé 464" d="M562.016,496.033,550.933,375.05l8.179,118.706-61.592,5.756Z" transform="translate(-182.812 -137.813)" fill="#333"/>
      <path id="Tracé_465" data-name="Tracé 465" d="M562.4,360.168s-17.958-1.828-24.037,0-17.712,15.339-17.712,15.339l-2.7,11.165h15.858L550,373.319Z" transform="translate(-190.318 -132.046)" fill="#fc7575"/>
      <path id="Tracé_466" data-name="Tracé 466" d="M492.653,327.284c-14.732-14.726-26.194-101.652-28.731-99.116-25.068,25.068-38.263,146.924,13.739,150.84,33.772,2.53,64.217-25.4,81.41-45.31-4.131-5.465-8.666-10.8-10.4-17.56C530.473,325.291,502.324,336.956,492.653,327.284Z" transform="translate(-162.371 -83.822)" fill="#666"/>
      <path id="Tracé_467" data-name="Tracé 467" d="M626.412,211.62s15.814,2.53,31.305,61.251-1.9,95.383-32.381,80.658c-24.828-11.993-49.637-29.964-49.637-29.964l11.266-18.49s19.97,10.02,37.492,6.167c4.662-1.025-2.22-8.672-1.505-19.521C624.926,261.788,622.762,235.9,626.412,211.62Z" transform="translate(-211.538 -77.762)" fill="#666"/>
      <path id="Tracé_468" data-name="Tracé 468" d="M669.935,347.126c0-1.139-8.78-1.044-16.244-.753,7.053-.468,15-1.234,14.321-2.315-1.208-1.9-24.67-.316-24.67-1.423s22.81,1.581,22.81-1.537-26.258-3-26.258-3l-1.714,1.461L627.1,349l-9.925,7.812c8.223,2.125,14.258,3.9,23.278,3.688,2.853-2,5.13-3.656,5.921-4.39.127-.12,19.135-4.542,19.135-6.2s-16.447,2.4-17.237,1.638S669.935,349.119,669.935,347.126Z" transform="translate(-226.78 -124.235)" fill="#fc7575"/>
      <path id="Tracé_469" data-name="Tracé 469" d="M575.745,355.82l-7.2,16.2,5.465,3.169,9.254-15.365Z" transform="translate(-208.907 -130.747)" fill="#fff"/>
      <path id="Tracé_470" data-name="Tracé 470" d="M420.911,443.62a.955.955,0,0,1-.671-.278c-13.663-13.663-16.345-37.625-16.193-55.317a197.8,197.8,0,0,1,3.606-35.335.949.949,0,1,1,1.853.4c-.133.633-13.284,63.578,12.076,88.912a.949.949,0,0,1-.67,1.619Z" transform="translate(-148.463 -129.305)"/>
      <path id="Tracé_471" data-name="Tracé 471" d="M420.7,545.136a.93.93,0,0,1-.462-.12c-25.239-14.062-35.879-49.548-35.986-49.9a.955.955,0,0,1,.633-1.177.943.943,0,0,1,1.177.633c.108.348,10.538,35.094,35.088,48.777a.955.955,0,0,1,.367,1.265A.936.936,0,0,1,420.7,545.136Z" transform="translate(-141.177 -181.481)"/>
    </g>
  </g>
</svg>
