<svg xmlns="http://www.w3.org/2000/svg" width="142.933" height="135.384" viewBox="0 0 142.933 135.384">
  <g id="Groupe_59" data-name="Groupe 59" transform="translate(-474 -1794.627)">
    <g id="euro" transform="translate(774 2171)">
      <g id="Groupe_26" data-name="Groupe 26" transform="translate(-353 -460.615)">
        <g id="Groupe_25" data-name="Groupe 25" transform="translate(128 128)">
          <path id="Tracé_306" data-name="Tracé 306" d="M137.017,138.434a3.354,3.354,0,0,1-1.921.6,3.874,3.874,0,0,1-3.393-2.365h2.6a.788.788,0,1,0,0-1.577H131.22a4.728,4.728,0,0,1,0-1.577H135.1a.788.788,0,0,0,0-1.577H131.7a3.874,3.874,0,0,1,3.393-2.365,3.354,3.354,0,0,1,1.921.6.789.789,0,0,0,.889-1.3A4.976,4.976,0,0,0,135.1,128a5.584,5.584,0,0,0-5.109,3.942h-1.2a.788.788,0,0,0,0,1.577h.858a4.515,4.515,0,0,0,0,1.577h-.858a.788.788,0,1,0,0,1.577h1.2a5.584,5.584,0,0,0,5.109,3.942,4.975,4.975,0,0,0,2.81-.878.789.789,0,1,0-.889-1.3Z" transform="translate(-128 -128)" fill="#9dc5f2"/>
        </g>
      </g>
    </g>
    <g id="budget" transform="translate(464 1771.639)">
      <path id="Tracé_301" data-name="Tracé 301" d="M137.039,273.738l-.807.442c-2.929-3.675-8.064-5.11-11.969-3.1l-.039.021-1.888,1.033a13.211,13.211,0,0,0-14.943-1.471l-9.373,5.176H85.554a17.834,17.834,0,0,1-7.82-1.82l-1.711-.84A28.889,28.889,0,0,0,45.569,276.2c-.038.029-.075.06-.111.092l-4.131,3.735a14.383,14.383,0,0,1-5.547,3.123l-2.387-7.95a1.743,1.743,0,0,0-1.67-1.242H11.743a1.743,1.743,0,0,0-1.731,1.951l6.66,55.467a1.743,1.743,0,0,0,1.731,1.535H48.376a1.743,1.743,0,0,0,1.67-2.244l-3.975-13.24,12.359-7.936a7.379,7.379,0,0,1,5.455-.719q.055.014.111.024l24.944,4.665a31.744,31.744,0,0,0,19.888-2.851,1.717,1.717,0,0,0,.214-.127l43.146-30.086a1.743,1.743,0,0,0,.5-2.319A11.636,11.636,0,0,0,137.039,273.738Zm-11.164.433c2.247-1.143,5.287-.331,7.231,1.722l-16.556,9.071-1.068.572a14.321,14.321,0,0,0-2.379-4.376ZM109.1,273.7l.042-.023a9.573,9.573,0,0,1,9.818.3l-8.472,4.635a13.922,13.922,0,0,0-5.711-2.527ZM19.95,329.423l-6.242-51.98h16.72l15.6,51.98Zm87.2-21.876a28.235,28.235,0,0,1-17.576,2.483L64.69,305.376a10.848,10.848,0,0,0-8.021,1.1c-.027.015-.054.032-.08.049l-11.563,7.422-8.244-27.463a17.873,17.873,0,0,0,6.882-3.876l4.077-3.687a25.424,25.424,0,0,1,26.743-2.616l1.711.84a21.338,21.338,0,0,0,9.357,2.179h16.594a10.669,10.669,0,0,1,10.442,8.955l-12.179-.56a70.821,70.821,0,0,0-13.073.613,1.743,1.743,0,1,0,.485,3.452,67.3,67.3,0,0,1,12.428-.583l14.155.65.08,0a1.743,1.743,0,0,0,1.743-1.743c0-.337-.016-.67-.039-1l2.02-1.082,20.5-11.234a8.141,8.141,0,0,1,10.025,1.753Z" transform="translate(0 -174.536)" fill="#9dc5f2"/>
      <path id="Tracé_302" data-name="Tracé 302" d="M65.35,435.426a5.74,5.74,0,1,0,5.739-5.8A5.74,5.74,0,0,0,65.35,435.426Zm5.739-2.315a2.316,2.316,0,1,1-2.253,2.315A2.287,2.287,0,0,1,71.089,433.11Z" transform="translate(-39.27 -288.501)" fill="#9dc5f2"/>
      <path id="Tracé_303" data-name="Tracé 303" d="M183.562,66.415c-.162.45-.315.91-.456,1.365A22.108,22.108,0,0,0,204.3,96.342h15.859a22.079,22.079,0,0,0,17.63-8.69,21.7,21.7,0,0,0,3.82-18.937q-.075-.279-.155-.56a26.827,26.827,0,0,0-14.565-17.2,4.839,4.839,0,0,0-1.266-6.064,45.318,45.318,0,0,1,3.806-6.937,18.445,18.445,0,0,1,4.45-4.59c.581-.459,1.183-.934,1.79-1.479a3.35,3.35,0,0,0,1-3.435,3.1,3.1,0,0,0-3.375-2.2c-1.4.119-3.3-1-4.681-1.818a15.545,15.545,0,0,0-1.907-1.021c-3.411-1.388-5.609.957-6.548,1.958a8.065,8.065,0,0,1-2,1.186c-.068.027-.137.051-.206.072-1.608.476-2.448.4-3.958-.97-2.271-2.061-4.936-2.43-7.129-.988a5.267,5.267,0,0,0-1.706,2.463,13.223,13.223,0,0,1-.613,1.251,1.535,1.535,0,0,1-.253.358.375.375,0,0,1-.068.016c-.3.049-.361.06-.972-.391l-.241-.18a21.23,21.23,0,0,0-4.414-2.6c-.064-.029-.136-.064-.214-.1-.24-.116-.539-.26-.876-.392a12.378,12.378,0,0,0-6.014-.241,3.567,3.567,0,0,0-1.153.515,3.738,3.738,0,0,0-1.368,2.02,4.31,4.31,0,0,0,1.76,4.739,21.859,21.859,0,0,1,5.719,5.6,25.206,25.206,0,0,1,3.28,6.63,4.845,4.845,0,0,0-1.841,7.06c-4.059,2.041-11.183,6.241-14.33,15Zm18.346-16.356a1.369,1.369,0,0,1,0-2.739H222.6a1.369,1.369,0,1,1,0,2.739Zm-9.2-20.807a.845.845,0,0,1-.381-.9.794.794,0,0,1,.048-.126l.084-.025a9.6,9.6,0,0,1,3.781.135c.215.085.439.192.636.288.1.049.193.093.276.131a17.867,17.867,0,0,1,3.769,2.217l.264.2a4.365,4.365,0,0,0,3.614,1.028,3.807,3.807,0,0,0,2.762-2.054,16.161,16.161,0,0,0,.784-1.585,7.971,7.971,0,0,1,.506-1.017c.82-.5,1.739-.268,2.8.7a6.815,6.815,0,0,0,7.292,1.731c.162-.048.328-.105.494-.171A11.078,11.078,0,0,0,222.7,27.76c1.189-1.27,1.743-1.5,2.689-1.113a14.2,14.2,0,0,1,1.449.794c1.6.947,3.741,2.208,5.979,2.3-.358.3-.723.588-1.1.887a21.9,21.9,0,0,0-5.179,5.375,49.02,49.02,0,0,0-4.255,7.825h-4.716a8.837,8.837,0,0,1,1.879-5.234,7.365,7.365,0,0,1,2.025-1.634,1.743,1.743,0,0,0-1.689-3.05,10.837,10.837,0,0,0-2.978,2.409,12.38,12.38,0,0,0-2.727,7.509h-1.8a47.274,47.274,0,0,0-3.132-7.485,1.743,1.743,0,0,0-2.959,1.844,41.882,41.882,0,0,1,2.408,5.641h-5.363a28.6,28.6,0,0,0-3.932-8.13A25.545,25.545,0,0,0,192.7,29.252Zm8,24.666c.3-.145.568-.275.806-.394.133.011.266.02.4.02H222.6a4.838,4.838,0,0,0,1.147-.143A23.2,23.2,0,0,1,238.1,69.119c.047.165.093.329.137.494a18.242,18.242,0,0,1-3.215,15.916,18.62,18.62,0,0,1-14.867,7.328H204.3a18.538,18.538,0,0,1-15.059-7.608,18.319,18.319,0,0,1-2.8-16.437c.126-.407.261-.816.407-1.217C189.878,59.146,197.188,55.615,200.7,53.918Z" transform="translate(-122.133)" fill="#9dc5f2"/>
      <path id="Tracé_304" data-name="Tracé 304" d="M253.22,175.846a13.917,13.917,0,1,0-14.139-13.914A14.045,14.045,0,0,0,253.22,175.846Zm0-24.348a10.433,10.433,0,1,1-10.653,10.432A10.556,10.556,0,0,1,253.22,151.5Z" transform="translate(-162.529 -88.704)" fill="#9dc5f2"/>
    </g>
  </g>
</svg>
