<svg xmlns="http://www.w3.org/2000/svg" width="142" height="142" viewBox="0 0 142 142">
  <g id="growth" transform="translate(-0.003 0.001)">
    <g id="Groupe_2" data-name="Groupe 2" transform="translate(12.003 13.999)">
      <g id="Groupe_1" data-name="Groupe 1" transform="translate(0 0)">
        <rect id="Rectangle_31" data-name="Rectangle 31" width="30" height="4" fill="#9dc5f2"/>
      </g>
    </g>
    <g id="Groupe_4" data-name="Groupe 4" transform="translate(12.003 23.999)">
      <g id="Groupe_3" data-name="Groupe 3" transform="translate(0 0)">
        <rect id="Rectangle_32" data-name="Rectangle 32" width="30" height="4" fill="#9dc5f2"/>
      </g>
    </g>
    <g id="Groupe_6" data-name="Groupe 6" transform="translate(12.003 33.485)">
      <g id="Groupe_5" data-name="Groupe 5" transform="translate(0 0)">
        <rect id="Rectangle_33" data-name="Rectangle 33" width="21" height="4" fill="#9dc5f2"/>
      </g>
    </g>
    <g id="Groupe_8" data-name="Groupe 8" transform="translate(12.003 42.617)">
      <g id="Groupe_7" data-name="Groupe 7" transform="translate(0 0)">
        <rect id="Rectangle_34" data-name="Rectangle 34" width="21" height="4" fill="#9dc5f2"/>
      </g>
    </g>
    <g id="Groupe_10" data-name="Groupe 10" transform="translate(0.003 136.999)">
      <g id="Groupe_9" data-name="Groupe 9" transform="translate(0 0)">
        <rect id="Rectangle_35" data-name="Rectangle 35" width="142" height="5" fill="#9dc5f2"/>
      </g>
    </g>
    <g id="Groupe_12" data-name="Groupe 12" transform="translate(9.157 -0.001)">
      <g id="Groupe_11" data-name="Groupe 11">
        <path id="Tracé_295" data-name="Tracé 295" d="M159.536,20l-9.5-18.706A2.393,2.393,0,0,0,146.85.246h0l-19,9.353a2.323,2.323,0,0,0-1.064,3.138,2.394,2.394,0,0,0,3.188,1.048l13.762-6.769-3.755,10.555C123.471,63.847,80.958,96.312,31.323,100.545l.4,4.676c51.505-4.392,95.618-38.085,112.737-86.107L148.3,8.33l6.988,13.76a2.394,2.394,0,0,0,3.188,1.048A2.322,2.322,0,0,0,159.536,20Z" transform="translate(-31.323 0.001)" fill="#9dc5f2"/>
      </g>
    </g>
    <g id="Groupe_14" data-name="Groupe 14" transform="translate(9.356 114.236)">
      <g id="Groupe_13" data-name="Groupe 13">
        <path id="Tracé_296" data-name="Tracé 296" d="M50.709,384.006H34.341A2.338,2.338,0,0,0,32,386.344v14.029a2.338,2.338,0,0,0,2.338,2.338H50.709a2.338,2.338,0,0,0,2.338-2.338V386.344A2.338,2.338,0,0,0,50.709,384.006Zm-2.338,14.029H36.679v-9.353H48.371Z" transform="translate(-32.003 -384.006)" fill="#9dc5f2"/>
      </g>
    </g>
    <g id="Groupe_16" data-name="Groupe 16" transform="translate(35.666 107.221)">
      <g id="Groupe_15" data-name="Groupe 15">
        <path id="Tracé_297" data-name="Tracé 297" d="M138.709,360.006H122.341A2.338,2.338,0,0,0,120,362.344v21.044a2.338,2.338,0,0,0,2.338,2.338h16.368a2.338,2.338,0,0,0,2.338-2.338V362.344A2.338,2.338,0,0,0,138.709,360.006Zm-2.338,21.044H124.679V364.682h11.691Z" transform="translate(-120.003 -360.006)" fill="#9dc5f2"/>
      </g>
    </g>
    <g id="Groupe_18" data-name="Groupe 18" transform="translate(61.819 95.53)">
      <g id="Groupe_17" data-name="Groupe 17">
        <path id="Tracé_298" data-name="Tracé 298" d="M226.709,320.006H210.341A2.338,2.338,0,0,0,208,322.344v32.735a2.338,2.338,0,0,0,2.338,2.338h16.368a2.338,2.338,0,0,0,2.338-2.338V322.344A2.338,2.338,0,0,0,226.709,320.006Zm-2.338,32.735H212.679V324.682h11.691Z" transform="translate(-208.003 -320.006)" fill="#9dc5f2"/>
      </g>
    </g>
    <g id="Groupe_20" data-name="Groupe 20" transform="translate(87.972 79.163)">
      <g id="Groupe_19" data-name="Groupe 19">
        <path id="Tracé_299" data-name="Tracé 299" d="M314.709,264.006H298.341A2.338,2.338,0,0,0,296,266.344v49.1a2.338,2.338,0,0,0,2.338,2.338h16.368a2.338,2.338,0,0,0,2.338-2.338v-49.1A2.338,2.338,0,0,0,314.709,264.006Zm-2.338,49.1H300.679V268.682h11.691Z" transform="translate(-296.003 -264.006)" fill="#9dc5f2"/>
      </g>
    </g>
    <g id="Groupe_22" data-name="Groupe 22" transform="translate(114.238 46.428)">
      <g id="Groupe_21" data-name="Groupe 21">
        <path id="Tracé_300" data-name="Tracé 300" d="M402.709,152.006H386.341A2.338,2.338,0,0,0,384,154.344v81.838a2.338,2.338,0,0,0,2.338,2.338h16.368a2.338,2.338,0,0,0,2.338-2.338V154.344A2.338,2.338,0,0,0,402.709,152.006Zm-2.338,81.838H388.679V156.682h11.691Z" transform="translate(-384.003 -152.006)" fill="#9dc5f2"/>
      </g>
    </g>
  </g>
</svg>
