<svg xmlns="http://www.w3.org/2000/svg" width="142.432" height="138.784" viewBox="0 0 142.432 138.784">
  <g id="graph" transform="translate(0 -6.558)">
    <path id="Tracé_286" data-name="Tracé 286" d="M159.52,96.971a6.963,6.963,0,1,0-5.557-2.778l-11.427,15.968a6.935,6.935,0,0,0-6.9,1.519l-7.617-4.322a6.955,6.955,0,1,0-13.6,0l-7.617,4.322a6.945,6.945,0,1,0,2.065,3.626l7.617-4.322a6.937,6.937,0,0,0,9.468,0l7.617,4.322a6.955,6.955,0,1,0,12.355-2.715l11.427-15.968A6.933,6.933,0,0,0,159.52,96.971Zm0-9.737a2.782,2.782,0,1,1-2.782,2.782A2.785,2.785,0,0,1,159.52,87.234Zm-57.448,32.317a2.782,2.782,0,1,1,2.782-2.782A2.785,2.785,0,0,1,102.072,119.551Zm19.149-10.873A2.782,2.782,0,1,1,124,105.9,2.785,2.785,0,0,1,121.221,108.678Zm19.149,10.873a2.782,2.782,0,1,1,2.782-2.782A2.785,2.785,0,0,1,140.371,119.551Z" transform="translate(-68.657 -55.221)" fill="#9dc5f2"/>
    <path id="Tracé_287" data-name="Tracé 287" d="M116.5,133.823H5.9a1.731,1.731,0,0,1-1.729-1.729V46.018A1.731,1.731,0,0,1,5.9,44.289h9.836a2.086,2.086,0,1,0,0-4.173H5.9a5.908,5.908,0,0,0-5.9,5.9v86.077A5.908,5.908,0,0,0,5.9,138H20.288v4.592a4.749,4.749,0,0,0,4.744,4.744H45.916l-9.831,19.194a2.086,2.086,0,1,0,3.714,1.9l10.806-21.1H73.673l10.806,21.1a2.086,2.086,0,1,0,3.714-1.9l-9.831-19.194H99.246a4.749,4.749,0,0,0,4.744-4.744V138H116.5a2.086,2.086,0,1,0,0-4.173Zm-16.687,8.765a.572.572,0,0,1-.571.571H25.032a.572.572,0,0,1-.571-.571V138H99.817Z" transform="translate(0 -24.223)" fill="#9dc5f2"/>
    <path id="Tracé_288" data-name="Tracé 288" d="M81.157,20.066H175.45a1.731,1.731,0,0,1,1.729,1.729V41.633a2.086,2.086,0,1,0,4.173,0V21.8a5.908,5.908,0,0,0-5.9-5.9H130.793v-4.1a5.24,5.24,0,0,0-5.235-5.234h-12.69a5.241,5.241,0,0,0-5.235,5.234v4.1H81.157a2.086,2.086,0,0,0,0,4.173Zm30.649-8.274a1.063,1.063,0,0,1,1.062-1.062h12.69a1.063,1.063,0,0,1,1.062,1.062v4.1H111.806v-4.1Z" transform="translate(-57.074)" fill="#9dc5f2"/>
    <path id="Tracé_289" data-name="Tracé 289" d="M99.488,267.576a2.086,2.086,0,0,0-2.086,2.086V288.1a2.086,2.086,0,0,0,2.086,2.086h8.464a2.086,2.086,0,0,0,2.086-2.086V269.662a2.086,2.086,0,0,0-2.086-2.086Zm6.378,18.436h-4.292V271.749h4.292Z" transform="translate(-70.306 -188.406)" fill="#9dc5f2"/>
    <path id="Tracé_290" data-name="Tracé 290" d="M168.323,229.248a2.086,2.086,0,0,0-2.086,2.086v29.1a2.086,2.086,0,0,0,2.086,2.086h8.464a2.086,2.086,0,0,0,2.086-2.086v-29.1a2.086,2.086,0,0,0-2.086-2.086Zm6.378,29.1H170.41V233.421H174.7Z" transform="translate(-119.992 -160.74)" fill="#9dc5f2"/>
    <path id="Tracé_291" data-name="Tracé 291" d="M237.159,267.576a2.086,2.086,0,0,0-2.086,2.086V288.1a2.086,2.086,0,0,0,2.086,2.086h8.464a2.086,2.086,0,0,0,2.086-2.086V269.662a2.086,2.086,0,0,0-2.086-2.086Zm6.378,18.436h-4.292V271.749h4.292Z" transform="translate(-169.678 -188.406)" fill="#9dc5f2"/>
    <path id="Tracé_292" data-name="Tracé 292" d="M306,311.832a2.086,2.086,0,0,0-2.086,2.086v6.125A2.086,2.086,0,0,0,306,322.13h8.464a2.086,2.086,0,0,0,0-4.173h-6.378v-4.038A2.086,2.086,0,0,0,306,311.832Z" transform="translate(-219.365 -220.35)" fill="#9dc5f2"/>
    <path id="Tracé_293" data-name="Tracé 293" d="M354.687,211.113l-11.97-20.732a27.284,27.284,0,1,0-26.978,7.7,27.419,27.419,0,0,0,7.1.941,26.927,26.927,0,0,0,6.142-.709l11.967,20.733a7.931,7.931,0,1,0,13.737-7.931Zm-37.868-17.064a23.1,23.1,0,1,1,17.526-2.308A22.947,22.947,0,0,1,316.819,194.049ZM349.7,218.333a3.763,3.763,0,0,1-5.134-1.375l-11.514-19.947a27.387,27.387,0,0,0,6.506-3.76L351.074,213.2a3.755,3.755,0,0,1-1.375,5.134Z" transform="translate(-213.319 -99.55)" fill="#9dc5f2"/>
    <path id="Tracé_294" data-name="Tracé 294" d="M361.036,196.938a19.745,19.745,0,0,0-.988-14.3,2.086,2.086,0,1,0-3.775,1.778,15.627,15.627,0,1,1-4.711-5.822,2.086,2.086,0,1,0,2.518-3.327,19.813,19.813,0,1,0,6.956,21.674Z" transform="translate(-232.64 -118.871)" fill="#9dc5f2"/>
  </g>
</svg>
