<svg xmlns="http://www.w3.org/2000/svg" width="141.933" height="141.933" viewBox="0 0 141.933 141.933">
  <g id="research" transform="translate(0.001 -0.001)">
    <path id="Tracé_307" data-name="Tracé 307" d="M140.11,95.4,118.78,74.071a46.171,46.171,0,0,0,1.85-53.262,2.079,2.079,0,1,0-3.474,2.286,42.037,42.037,0,1,1-5.431-6.66l.114.115a2.079,2.079,0,0,0,2.951-2.93l-.119-.12a46.207,46.207,0,0,0-65.276,0q-.848.848-1.642,1.728H2.078A2.08,2.08,0,0,0,0,17.307v9.2a2.079,2.079,0,1,0,4.158,0V19.387h40.26a45.8,45.8,0,0,0-4.1,7h-25.9a2.079,2.079,0,1,0,0,4.158H38.6A46.061,46.061,0,0,0,37.1,35.624H14.414a2.079,2.079,0,1,0,0,4.158H36.336a46.46,46.46,0,0,0-.419,5.082h-21.5a2.08,2.08,0,0,0,0,4.159H35.989a46.2,46.2,0,0,0,4.654,17.561h-3.5a2.079,2.079,0,0,0-2.079,2.08v61.55a2.079,2.079,0,0,0,2.079,2.08H53.78a2.079,2.079,0,0,0,2.079-2.08V84.169a45.811,45.811,0,0,0,5.821,3.409v42.636a2.08,2.08,0,0,0,2.079,2.08H80.392a2.079,2.079,0,0,0,2.079-2.08V92.279a46.908,46.908,0,0,0,4.852-.3V124.1a2.079,2.079,0,1,0,4.158,0V91.311A45.844,45.844,0,0,0,109.96,82.9l21.326,21.329A6.239,6.239,0,0,0,140.11,95.4ZM51.7,128.135H39.226V70.743h3.746a46.183,46.183,0,0,0,6.422,8.041q1.124,1.124,2.306,2.152Zm14.139,0V89.367a46.281,46.281,0,0,0,12.475,2.765v36Zm71.331-26.851a2.08,2.08,0,0,1-2.942,0L113.165,80.22c.51-.467,1.012-.943,1.505-1.436s.97-.993,1.437-1.505l21.061,21.065a2.081,2.081,0,0,1,0,2.94Zm0,0" fill="#9dc5f2"/>
    <path id="Tracé_308" data-name="Tracé 308" d="M89.4,218.157a2.079,2.079,0,0,0-2.079,2.079v4.714H4.158V122.688a2.079,2.079,0,1,0-4.158,0V227.029a2.079,2.079,0,0,0,2.079,2.079H89.4a2.078,2.078,0,0,0,2.079-2.079v-6.793A2.078,2.078,0,0,0,89.4,218.157Zm0,0" transform="translate(-0.001 -87.174)" fill="#9dc5f2"/>
    <path id="Tracé_309" data-name="Tracé 309" d="M32.5,302.274V347.19a2.08,2.08,0,0,0,2.079,2.079H51.213a2.08,2.08,0,0,0,2.079-2.079V302.274a2.08,2.08,0,0,0-2.079-2.079H34.579A2.08,2.08,0,0,0,32.5,302.274Zm4.158,2.08H49.134V345.11H36.658Zm0,0" transform="translate(-23.491 -216.976)" fill="#9dc5f2"/>
    <path id="Tracé_310" data-name="Tracé 310" d="M62.126,199.339a2.08,2.08,0,0,0,0-4.159H46.579a2.08,2.08,0,0,0,0,4.159Zm0,0" transform="translate(-32.165 -141.073)" fill="#9dc5f2"/>
    <path id="Tracé_311" data-name="Tracé 311" d="M197.3,29.988a37.785,37.785,0,1,0,26.758,11.068A37.583,37.583,0,0,0,197.3,29.988Zm23.817,61.649a33.731,33.731,0,1,1,9.849-23.82A33.45,33.45,0,0,1,221.118,91.637Zm0,0" transform="translate(-115.268 -21.675)" fill="#9dc5f2"/>
  </g>
</svg>
