<svg id="twitter-logo-silhouette_1_" data-name="twitter-logo-silhouette (1)" xmlns="http://www.w3.org/2000/svg" width="26.608" height="21.609" viewBox="0 0 26.608 21.609">
  <g id="Groupe_1" data-name="Groupe 1" transform="translate(0 0)">
    <path id="Tracé_5" data-name="Tracé 5" d="M26.608,60a10.9,10.9,0,0,1-3.134.859,5.481,5.481,0,0,0,2.4-3.017A11,11,0,0,1,22.4,59.171a5.463,5.463,0,0,0-9.3,4.974,15.5,15.5,0,0,1-11.249-5.7,5.465,5.465,0,0,0,1.689,7.286,5.459,5.459,0,0,1-2.472-.685v.068a5.464,5.464,0,0,0,4.378,5.351,5.528,5.528,0,0,1-1.438.193,5.239,5.239,0,0,1-1.028-.1,5.461,5.461,0,0,0,5.1,3.791A10.952,10.952,0,0,1,1.3,76.68,11.6,11.6,0,0,1,0,76.6,15.429,15.429,0,0,0,8.368,79.06,15.422,15.422,0,0,0,23.9,63.531l-.018-.706A10.9,10.9,0,0,0,26.608,60Z" transform="translate(0 -57.451)" fill="#9dc5f2"/>
  </g>
</svg>
