<svg id="Groupe_7" data-name="Groupe 7" xmlns="http://www.w3.org/2000/svg" width="27.16" height="27.16" viewBox="0 0 27.16 27.16">
  <path id="Tracé_56" data-name="Tracé 56" d="M27.16,13.58A13.58,13.58,0,1,0,13.58,27.16,13.58,13.58,0,0,0,27.16,13.58Zm-25.925,0A12.345,12.345,0,1,1,13.58,25.925,12.345,12.345,0,0,1,1.234,13.58Z" fill="#9dc5f2"/>
  <path id="Tracé_57" data-name="Tracé 57" d="M228.179,145v-7.582h2.7l.427-2.513h-3.128v-1.26a1.117,1.117,0,0,1,1.248-1.281h2.031v-2.508h-2.883c-2.424,0-3.086,1.478-3.086,3.527v1.52h-1.663v2.514h1.663V145Z" transform="translate(-214.055 -123.837)" fill="#9dc5f2"/>
</svg>
